<svg width="151" height="49" viewBox="0 0 151 49" fill="none" xmlns="http://www.w3.org/2000/svg">
<rect x="5" y="1" width="136" height="47" rx="22" fill="#D6DFFF" stroke="black" stroke-width="2"/>
<mask id="path-2-outside-1_96_429" maskUnits="userSpaceOnUse" x="15.2857" y="5.625" width="119" height="37" fill="black">
<rect fill="white" x="15.2857" y="5.625" width="119" height="37"/>
<path d="M38.0147 18.3271L33.6201 29.123H43.7715C45.1289 29.123 45.8076 29.5918 45.8076 30.5293C45.8076 31.1934 45.5684 31.7061 45.0899 32.0674C44.6113 32.4385 43.9473 32.624 43.0977 32.624H32.1992L32.0234 33.0342C31.3399 34.5576 30.8027 35.627 30.4121 36.2422C30.0215 36.8574 29.5137 37.4531 28.8887 38.0293C27.2578 39.5234 25.3828 40.2705 23.2637 40.2705C21.5449 40.2705 20.1289 39.7578 19.0156 38.7324C17.8926 37.707 17.3311 36.4033 17.3311 34.8213C17.3311 33.835 17.5703 32.9121 18.0488 32.0527C18.5274 31.1934 19.1768 30.5244 19.9971 30.0459C21.0615 29.4307 22.5068 29.123 24.333 29.123H29.5039L33.8838 18.3271H32.126H31.7305C30.6367 18.3271 30.0899 17.8438 30.0899 16.877C30.0899 16.2422 30.3291 15.7441 30.8076 15.3828C31.2861 15.0117 31.9502 14.8262 32.7998 14.8262H35.3047L35.9785 13.1709C37.2578 10.0068 39.2109 8.4248 41.8379 8.4248C43.1758 8.4248 44.2891 8.84961 45.1777 9.69922C46.0664 10.5391 46.5107 11.5937 46.5107 12.8633C46.5107 14.4844 45.8662 15.8027 44.5772 16.8184C43.2881 17.8242 41.6133 18.3271 39.5527 18.3271H38.0147ZM39.4356 14.8262H40.1094C40.8418 14.8262 41.4668 14.6455 41.9844 14.2842C42.5117 13.9131 42.7754 13.4639 42.7754 12.9365C42.7754 12.1553 42.4092 11.7646 41.6768 11.7646C41.0127 11.7646 40.4024 12.4482 39.8457 13.8154L39.4356 14.8262ZM28.0684 32.624H24.2158C22.3018 32.624 21.3447 33.3027 21.3447 34.6602C21.3447 35.2168 21.5547 35.6807 21.9746 36.0518C22.3945 36.4326 22.9219 36.623 23.5566 36.623C24.4258 36.623 25.2607 36.2617 26.0615 35.5391C26.8721 34.8262 27.541 33.8545 28.0684 32.624ZM50.876 17.2139C52.292 17.2139 53.4541 17.6631 54.3623 18.5615C55.2803 19.46 55.7393 20.6025 55.7393 21.9893C55.7393 23.0342 55.5 24.0742 55.0215 25.1094C54.543 26.1348 53.9229 26.9551 53.1611 27.5703C52.6533 27.9707 52.126 28.249 51.5791 28.4053C51.042 28.5518 50.2852 28.625 49.3086 28.625C47.7168 28.625 46.6426 28.4346 46.0859 28.0537C44.7774 27.1553 44.1231 25.8271 44.1231 24.0693C44.1231 22.2139 44.792 20.6074 46.1299 19.25C47.4678 17.8926 49.0498 17.2139 50.876 17.2139ZM50.5244 20.334C49.8018 20.334 49.1426 20.6904 48.5469 21.4033C47.9512 22.1162 47.6533 22.9023 47.6533 23.7617C47.6533 24.8945 48.2881 25.4609 49.5576 25.4609C50.2998 25.4609 50.8711 25.2314 51.2715 24.7725C51.9356 24.0205 52.2676 23.1611 52.2676 22.1943C52.2676 21.6377 52.1065 21.1885 51.7842 20.8467C51.4619 20.5049 51.042 20.334 50.5244 20.334ZM65.1436 29.0352H66.9014C68.1416 29.0352 68.7617 29.4648 68.7617 30.3242C68.7617 30.9199 68.542 31.3838 68.1025 31.7158C67.6631 32.0576 67.0576 32.2285 66.2861 32.2285H63.8545L63.2393 33.7373C61.7451 37.3994 59.5625 39.2305 56.6914 39.2305C55.1875 39.2305 53.9375 38.7666 52.9414 37.8389C51.9356 36.9111 51.4326 35.749 51.4326 34.3525C51.4326 33.4443 51.6768 32.5898 52.165 31.7891C52.6436 30.998 53.3027 30.3682 54.1426 29.8994C55.1777 29.3232 56.5693 29.0352 58.3174 29.0352H61.4668L61.9209 27.8926C61.3057 28.2637 60.7246 28.4492 60.1777 28.4492C59.1328 28.4492 58.2832 28.0879 57.6289 27.3652C56.9844 26.6426 56.6621 25.7002 56.6621 24.5381C56.6621 22.6631 57.3213 20.9736 58.6397 19.4697C59.958 17.9658 61.4375 17.2139 63.0781 17.2139C64.2793 17.2139 65.1777 17.6045 65.7734 18.3857C66.2324 17.6045 66.8818 17.2139 67.7217 17.2139C68.1318 17.2139 68.4785 17.3506 68.7617 17.624C69.0547 17.8877 69.2012 18.21 69.2012 18.5908C69.2012 18.8936 69.0742 19.3574 68.8203 19.9824L65.1436 29.0352ZM63.2393 24.6406L64.4258 21.7402C64.5234 21.4961 64.5723 21.2959 64.5723 21.1396C64.5723 20.8467 64.4404 20.6025 64.1768 20.4072C63.9229 20.2119 63.6006 20.1143 63.21 20.1143C62.5068 20.1143 61.833 20.5195 61.1885 21.3301C60.5537 22.1309 60.2363 22.9805 60.2363 23.8789C60.2363 24.9043 60.7149 25.417 61.6719 25.417C62.502 25.417 63.0244 25.1582 63.2393 24.6406ZM60.1631 32.2285H57.6289C56.75 32.2285 56.0664 32.4141 55.5781 32.7852C55.0996 33.1562 54.8604 33.6787 54.8604 34.3525C54.8604 34.8115 55.0264 35.2021 55.3584 35.5244C55.6904 35.8467 56.1006 36.0078 56.5889 36.0078C57.292 36.0078 57.9072 35.7295 58.4346 35.1729C58.9619 34.6162 59.5381 33.6348 60.1631 32.2285ZM88.6836 25.124H91.1445C92.4922 25.124 93.166 25.5928 93.166 26.5303C93.166 27.1943 92.9268 27.7119 92.4482 28.083C91.9795 28.4443 91.3154 28.625 90.4561 28.625H87.79C86.7158 28.625 85.9004 28.4199 85.3438 28.0098C84.7871 27.5898 84.5088 26.9844 84.5088 26.1934C84.5088 25.6367 84.709 24.8604 85.1094 23.8643L88.0537 16.6279C88.6494 15.1631 88.9473 14.1572 88.9473 13.6104C88.9473 13.1709 88.7471 12.7803 88.3467 12.4385C87.9463 12.0869 87.4873 11.9111 86.9697 11.9111C85.9932 11.9111 85.1094 12.3359 84.3184 13.1855C83.5274 14.0254 83.1318 14.9678 83.1318 16.0127C83.1318 16.6182 83.2637 17.0869 83.5274 17.4189C83.8008 17.751 84.294 18.0586 85.0068 18.3418C85.6416 18.5957 85.959 19.0303 85.959 19.6455C85.959 20.2119 85.7441 20.6807 85.3145 21.0518C84.8945 21.4131 84.3672 21.5938 83.7324 21.5938C82.5117 21.5938 81.4668 21.0762 80.5977 20.041C79.7285 18.9961 79.294 17.7461 79.294 16.291C79.294 14.1719 80.0947 12.3164 81.6963 10.7246C83.2979 9.13281 85.1631 8.33691 87.292 8.33691C88.8936 8.33691 90.2266 8.80566 91.291 9.74316C92.3652 10.6807 92.9024 11.8477 92.9024 13.2441C92.9024 14.25 92.6484 15.3779 92.1406 16.6279L88.6836 25.124ZM105.573 25.4316H107.331C108.571 25.4316 109.191 25.8662 109.191 26.7354C109.191 27.3311 108.972 27.7949 108.532 28.127C108.093 28.459 107.487 28.625 106.716 28.625H103.654C103.059 28.625 102.556 28.4443 102.146 28.083C101.745 27.7217 101.545 27.2676 101.545 26.7207C101.545 26.3887 101.682 25.8906 101.955 25.2266L103.244 22.0332C103.381 21.7012 103.454 21.4326 103.464 21.2275C103.474 20.9932 103.376 20.793 103.171 20.627C102.976 20.4609 102.722 20.3779 102.409 20.3779C101.403 20.3779 100.593 21.1348 99.9775 22.6484L98.249 26.8965C97.7315 28.1855 96.96 28.8301 95.9346 28.8301C95.5147 28.8301 95.1582 28.7031 94.8652 28.4492C94.5723 28.1953 94.4258 27.8828 94.4258 27.5117C94.4258 27.2383 94.5039 26.9111 94.6602 26.5303L94.8213 26.1348L97.7803 18.8398C98.1611 17.8926 98.8106 17.4189 99.7285 17.4189C100.48 17.4189 101.018 17.751 101.34 18.415C102.385 17.6143 103.381 17.2139 104.328 17.2139C105.246 17.2139 106.003 17.4775 106.599 18.0049C107.194 18.5322 107.492 19.2012 107.492 20.0117C107.492 20.4609 107.385 20.9541 107.17 21.4912L105.573 25.4316ZM117.834 17.4189H119.855C121.096 17.4189 121.716 17.8535 121.716 18.7227C121.716 19.3184 121.496 19.7822 121.057 20.1143C120.627 20.4463 120.021 20.6123 119.24 20.6123H116.545L109.968 36.8281C109.421 38.166 108.659 38.835 107.683 38.835C107.253 38.835 106.892 38.7031 106.599 38.4395C106.306 38.1758 106.159 37.8486 106.159 37.458C106.159 37.1748 106.286 36.7109 106.54 36.0664L112.824 20.6123H111.828C110.588 20.6123 109.968 20.1875 109.968 19.3379C109.968 18.7324 110.183 18.2637 110.612 17.9316C111.052 17.5898 111.662 17.4189 112.443 17.4189H114.113L115.974 12.834C116.599 11.3105 117.346 10.2314 118.215 9.59668C119.094 8.95215 120.266 8.62988 121.73 8.62988H123.4C124.65 8.62988 125.275 9.05957 125.275 9.91895C125.275 10.5342 125.056 11.0127 124.616 11.3545C124.177 11.6963 123.566 11.8672 122.785 11.8672H122.346C121.525 11.8672 120.876 12.0332 120.397 12.3652C119.929 12.6973 119.533 13.2588 119.211 14.0498L117.834 17.4189ZM126.608 17.2139C128.024 17.2139 129.187 17.6631 130.095 18.5615C131.013 19.46 131.472 20.6025 131.472 21.9893C131.472 23.0342 131.232 24.0742 130.754 25.1094C130.275 26.1348 129.655 26.9551 128.894 27.5703C128.386 27.9707 127.858 28.249 127.312 28.4053C126.774 28.5518 126.018 28.625 125.041 28.625C123.449 28.625 122.375 28.4346 121.818 28.0537C120.51 27.1553 119.855 25.8271 119.855 24.0693C119.855 22.2139 120.524 20.6074 121.862 19.25C123.2 17.8926 124.782 17.2139 126.608 17.2139ZM126.257 20.334C125.534 20.334 124.875 20.6904 124.279 21.4033C123.684 22.1162 123.386 22.9023 123.386 23.7617C123.386 24.8945 124.021 25.4609 125.29 25.4609C126.032 25.4609 126.604 25.2314 127.004 24.7725C127.668 24.0205 128 23.1611 128 22.1943C128 21.6377 127.839 21.1885 127.517 20.8467C127.194 20.5049 126.774 20.334 126.257 20.334Z"/>
</mask>
<path d="M38.0147 18.3271V16.3271H36.6694L36.1622 17.5731L38.0147 18.3271ZM33.6201 29.123L31.7677 28.369L30.6467 31.123H33.6201V29.123ZM45.0899 32.0674L43.8846 30.4713L43.8744 30.4791L43.8642 30.4869L45.0899 32.0674ZM32.1992 32.624V30.624H30.8804L30.3609 31.8362L32.1992 32.624ZM32.0234 33.0342L33.8482 33.853L33.8551 33.8375L33.8617 33.822L32.0234 33.0342ZM28.8887 38.0293L30.2397 39.504L30.2443 39.4998L28.8887 38.0293ZM19.0156 38.7324L20.3706 37.2613L20.3642 37.2555L19.0156 38.7324ZM19.9971 30.0459L18.9963 28.3143L18.9893 28.3183L19.9971 30.0459ZM29.5039 29.123V31.123H30.8508L31.3572 29.8749L29.5039 29.123ZM33.8838 18.3271L35.7371 19.079L36.8535 16.3271H33.8838V18.3271ZM30.8076 15.3828L32.0128 16.9789L32.0231 16.9711L32.0333 16.9633L30.8076 15.3828ZM35.3047 14.8262V16.8262H36.6499L37.1571 15.5802L35.3047 14.8262ZM35.9785 13.1709L37.8309 13.925L37.8327 13.9206L35.9785 13.1709ZM45.1777 9.69922L43.7956 11.1449L43.804 11.1528L45.1777 9.69922ZM44.5772 16.8184L45.8075 18.3951L45.8149 18.3893L44.5772 16.8184ZM39.4356 14.8262L37.5823 14.0741L36.4656 16.8262H39.4356V14.8262ZM41.9844 14.2842L43.1292 15.9241L43.1354 15.9198L41.9844 14.2842ZM39.8457 13.8154L37.9934 13.0613L37.9925 13.0634L39.8457 13.8154ZM28.0684 32.624L29.9067 33.4119L31.1014 30.624H28.0684V32.624ZM21.9746 36.0518L23.3182 34.5703L23.3087 34.5616L23.299 34.5531L21.9746 36.0518ZM26.0615 35.5391L24.7407 34.0373L24.7311 34.0457L24.7216 34.0543L26.0615 35.5391ZM36.1622 17.5731L31.7677 28.369L35.4725 29.8771L39.8671 19.0812L36.1622 17.5731ZM33.6201 31.123H43.7715V27.123H33.6201V31.123ZM43.7715 31.123C44.0021 31.123 44.1424 31.1436 44.2136 31.16C44.2847 31.1763 44.2477 31.1794 44.162 31.1203C44.0634 31.0521 43.9535 30.9374 43.8792 30.7834C43.8095 30.639 43.8076 30.5363 43.8076 30.5293H47.8076C47.8076 29.5076 47.3956 28.4923 46.4352 27.8289C45.6086 27.2581 44.6185 27.123 43.7715 27.123V31.123ZM43.8076 30.5293C43.8076 30.5754 43.8035 30.5975 43.8029 30.6005C43.8024 30.6026 43.8051 30.5891 43.8158 30.5661C43.8268 30.5426 43.8416 30.519 43.8583 30.4987C43.8746 30.4789 43.8859 30.4704 43.8846 30.4713L46.2951 33.6635C47.3329 32.8798 47.8076 31.743 47.8076 30.5293H43.8076ZM43.8642 30.4869C43.8533 30.4954 43.6786 30.624 43.0977 30.624V34.624C44.216 34.624 45.3693 34.3816 46.3155 33.6478L43.8642 30.4869ZM43.0977 30.624H32.1992V34.624H43.0977V30.624ZM30.3609 31.8362L30.1852 32.2463L33.8617 33.822L34.0375 33.4119L30.3609 31.8362ZM30.1987 32.2154C29.5174 33.7337 29.0303 34.6873 28.7237 35.1702L32.1005 37.3142C32.5752 36.5666 33.1623 35.3815 33.8482 33.853L30.1987 32.2154ZM28.7237 35.1702C28.4402 35.6167 28.0509 36.0814 27.5331 36.5588L30.2443 39.4998C30.9764 38.8248 31.6028 38.0981 32.1005 37.3142L28.7237 35.1702ZM27.5376 36.5546C26.2578 37.7271 24.8591 38.2705 23.2637 38.2705V42.2705C25.9066 42.2705 28.2578 41.3198 30.2397 39.504L27.5376 36.5546ZM23.2637 38.2705C21.9738 38.2705 21.0641 37.9001 20.3706 37.2613L17.6607 40.2035C19.1937 41.6155 21.1161 42.2705 23.2637 42.2705V38.2705ZM20.3642 37.2555C19.6747 36.6259 19.3311 35.867 19.3311 34.8213H15.3311C15.3311 36.9397 16.1105 38.7881 17.6671 40.2094L20.3642 37.2555ZM19.3311 34.8213C19.3311 34.1745 19.4838 33.5867 19.7962 33.0257L16.3015 31.0798C15.6568 32.2375 15.3311 33.4954 15.3311 34.8213H19.3311ZM19.7962 33.0257C20.1068 32.4679 20.5056 32.0647 21.0048 31.7735L18.9893 28.3183C17.8479 28.9842 16.9479 29.9188 16.3015 31.0798L19.7962 33.0257ZM20.9979 31.7775C21.6453 31.4033 22.6997 31.123 24.333 31.123V27.123C22.3139 27.123 20.4778 27.458 18.9963 28.3143L20.9979 31.7775ZM24.333 31.123H29.5039V27.123H24.333V31.123ZM31.3572 29.8749L35.7371 19.079L32.0305 17.5753L27.6506 28.3712L31.3572 29.8749ZM33.8838 16.3271H32.126V20.3271H33.8838V16.3271ZM32.126 16.3271H31.7305V20.3271H32.126V16.3271ZM31.7305 16.3271C31.4353 16.3271 31.5875 16.2566 31.8246 16.4661C31.947 16.5743 32.0245 16.7015 32.0638 16.8057C32.0986 16.8981 32.0899 16.935 32.0899 16.877H28.0899C28.0899 17.737 28.3445 18.7286 29.1754 19.4631C29.9593 20.156 30.9319 20.3271 31.7305 20.3271V16.3271ZM32.0899 16.877C32.0899 16.844 32.0929 16.8332 32.0915 16.8398C32.09 16.8473 32.0848 16.867 32.0721 16.8934C32.0592 16.9201 32.0436 16.9436 32.0286 16.9615C32.0141 16.9789 32.0062 16.9839 32.0128 16.9789L29.6024 13.7867C28.5901 14.5511 28.0899 15.6578 28.0899 16.877H32.0899ZM32.0333 16.9633C32.0441 16.9548 32.2189 16.8262 32.7998 16.8262V12.8262C31.6815 12.8262 30.5281 13.0686 29.582 13.8024L32.0333 16.9633ZM32.7998 16.8262H35.3047V12.8262H32.7998V16.8262ZM37.1571 15.5802L37.8309 13.925L34.1261 12.4168L33.4523 14.0721L37.1571 15.5802ZM37.8327 13.9206C38.3888 12.5452 39.026 11.6803 39.6617 11.1655C40.2651 10.6767 40.9604 10.4248 41.8379 10.4248V6.4248C40.0885 6.4248 38.4937 6.96395 37.144 8.0572C35.8265 9.12436 34.8475 10.6326 34.1243 12.4212L37.8327 13.9206ZM41.8379 10.4248C42.7106 10.4248 43.3136 10.684 43.7957 11.1448L46.5598 8.25359C45.2646 7.01526 43.641 6.4248 41.8379 6.4248V10.4248ZM43.804 11.1528C44.276 11.5989 44.5107 12.1201 44.5107 12.8633H48.5107C48.5107 11.0674 47.8568 9.47926 46.5515 8.24564L43.804 11.1528ZM44.5107 12.8633C44.5107 13.8628 44.1541 14.6055 43.3394 15.2474L45.8149 18.3893C47.5784 17 48.5107 15.1059 48.5107 12.8633H44.5107ZM43.3468 15.2416C42.4921 15.9085 41.2855 16.3271 39.5527 16.3271V20.3271C41.9411 20.3271 44.0841 19.74 45.8075 18.3951L43.3468 15.2416ZM39.5527 16.3271H38.0147V20.3271H39.5527V16.3271ZM39.4356 16.8262H40.1094V12.8262H39.4356V16.8262ZM40.1094 16.8262C41.1836 16.8262 42.2244 16.5558 43.1292 15.9241L40.8395 12.6443C40.7092 12.7352 40.5 12.8262 40.1094 12.8262V16.8262ZM43.1354 15.9198C44.0609 15.2685 44.7754 14.263 44.7754 12.9365H40.7754C40.7754 12.8998 40.7802 12.8511 40.7951 12.7961C40.81 12.7409 40.8312 12.6934 40.8528 12.6565C40.8957 12.5835 40.9176 12.5893 40.8334 12.6486L43.1354 15.9198ZM44.7754 12.9365C44.7754 12.2686 44.6214 11.3954 43.9598 10.6897C43.2755 9.95979 42.3855 9.76465 41.6768 9.76465V13.7646C41.7005 13.7646 41.3598 13.7648 41.0417 13.4255C40.7463 13.1105 40.7754 12.8232 40.7754 12.9365H44.7754ZM41.6768 9.76465C40.5833 9.76465 39.7639 10.3463 39.2291 10.9453C38.7073 11.5297 38.3119 12.2789 37.9934 13.0613L41.6981 14.5696C41.8121 14.2895 41.9179 14.0719 42.0115 13.9074C42.1064 13.7407 42.1766 13.65 42.2128 13.6094C42.2496 13.5682 42.2275 13.6052 42.1342 13.6553C42.0292 13.7116 41.8694 13.7646 41.6768 13.7646V9.76465ZM37.9925 13.0634L37.5823 14.0741L41.2888 15.5782L41.6989 14.5675L37.9925 13.0634ZM28.0684 30.624H24.2158V34.624H28.0684V30.624ZM24.2158 30.624C23.0832 30.624 21.8754 30.8139 20.9055 31.5017C19.8096 32.2789 19.3447 33.4501 19.3447 34.6602H23.3447C23.3447 34.5551 23.3629 34.5592 23.3342 34.6201C23.3007 34.6914 23.249 34.7435 23.2195 34.7645C23.2025 34.7765 23.2493 34.7379 23.4198 34.6976C23.5911 34.6572 23.8491 34.624 24.2158 34.624V30.624ZM19.3447 34.6602C19.3447 35.7945 19.804 36.8026 20.6502 37.5504L23.299 34.5531C23.2873 34.5427 23.2882 34.5417 23.2957 34.5516C23.3035 34.5619 23.3142 34.5787 23.3242 34.6008C23.3343 34.623 23.3401 34.6429 23.3431 34.6572C23.3459 34.671 23.3447 34.6731 23.3447 34.6602H19.3447ZM20.631 37.5332C21.4637 38.2884 22.4892 38.623 23.5566 38.623V34.623C23.4406 34.623 23.3834 34.606 23.3644 34.5991C23.3489 34.5935 23.3372 34.5875 23.3182 34.5703L20.631 37.5332ZM23.5566 38.623C25.0325 38.623 26.3255 37.9948 27.4015 37.0238L24.7216 34.0543C24.196 34.5286 23.8191 34.623 23.5566 34.623V38.623ZM27.3824 37.0408C28.4634 36.09 29.2896 34.8517 29.9067 33.4119L26.2301 31.8362C25.7925 32.8573 25.2807 33.5623 24.7407 34.0373L27.3824 37.0408ZM54.3623 18.5615L52.9557 19.9834L52.9634 19.9909L54.3623 18.5615ZM55.0215 25.1094L56.8339 25.9552L56.8369 25.9486L55.0215 25.1094ZM53.1611 27.5703L54.3994 29.1409L54.4087 29.1336L54.4178 29.1262L53.1611 27.5703ZM51.5791 28.4053L52.1053 30.3348L52.117 30.3316L52.1286 30.3283L51.5791 28.4053ZM46.0859 28.0537L44.9539 29.7025L44.9566 29.7043L46.0859 28.0537ZM48.5469 21.4033L47.0122 20.1209L48.5469 21.4033ZM51.2715 24.7725L49.7724 23.4485L49.7644 23.4577L51.2715 24.7725ZM50.876 19.2139C51.8278 19.2139 52.4642 19.4971 52.9558 19.9834L55.7689 17.1397C54.444 15.8291 52.7562 15.2139 50.876 15.2139V19.2139ZM52.9634 19.9909C53.4643 20.4811 53.7393 21.093 53.7393 21.9893H57.7393C57.7393 20.1121 57.0963 18.4388 55.7612 17.1322L52.9634 19.9909ZM53.7393 21.9893C53.7393 22.7187 53.5742 23.4737 53.2061 24.2702L56.8369 25.9486C57.4258 24.6747 57.7393 23.3496 57.7393 21.9893H53.7393ZM53.2091 24.2636C52.8393 25.056 52.395 25.6182 51.9045 26.0144L54.4178 29.1262C55.4507 28.292 56.2466 27.2135 56.8339 25.9551L53.2091 24.2636ZM51.9228 25.9998C51.5917 26.2609 51.2942 26.4066 51.0297 26.4822L52.1286 30.3283C52.9578 30.0914 53.715 29.6805 54.3994 29.1409L51.9228 25.9998ZM51.0529 26.4757C50.7694 26.5531 50.2195 26.625 49.3086 26.625V30.625C50.3508 30.625 51.3146 30.5504 52.1053 30.3348L51.0529 26.4757ZM49.3086 26.625C48.5817 26.625 48.0408 26.5807 47.6582 26.5129C47.2484 26.4402 47.1583 26.3641 47.2153 26.4031L44.9566 29.7043C45.5703 30.1242 46.2956 30.3337 46.96 30.4515C47.6516 30.5741 48.4437 30.625 49.3086 30.625V26.625ZM47.218 26.4049C46.5176 25.9241 46.1231 25.251 46.1231 24.0693H42.1231C42.1231 26.4033 43.0371 28.3865 44.9539 29.7025L47.218 26.4049ZM46.1231 24.0693C46.1231 22.755 46.574 21.6485 47.5543 20.6539L44.7055 17.8461C43.01 19.5663 42.1231 21.6727 42.1231 24.0693H46.1231ZM47.5543 20.6539C48.5347 19.6593 49.6108 19.2139 50.876 19.2139V15.2139C48.4888 15.2139 46.4009 16.1259 44.7055 17.8461L47.5543 20.6539ZM50.5244 18.334C49.0482 18.334 47.8709 19.0932 47.0122 20.1209L50.0816 22.6858C50.2546 22.4787 50.3791 22.3932 50.4394 22.3606C50.488 22.3343 50.5078 22.334 50.5244 22.334V18.334ZM47.0122 20.1209C46.1421 21.1622 45.6533 22.3943 45.6533 23.7617H49.6533C49.6533 23.4104 49.7603 23.0703 50.0816 22.6858L47.0122 20.1209ZM45.6533 23.7617C45.6533 24.6991 45.9264 25.7509 46.7978 26.5284C47.6258 27.2672 48.6672 27.4609 49.5576 27.4609V23.4609C49.3825 23.4609 49.3046 23.4407 49.2947 23.4377C49.2916 23.4368 49.3663 23.4594 49.461 23.5439C49.5067 23.5846 49.5474 23.6314 49.5808 23.6812C49.6139 23.7304 49.6342 23.774 49.6459 23.8052C49.6681 23.8647 49.6533 23.8631 49.6533 23.7617H45.6533ZM49.5576 27.4609C50.7401 27.4609 51.9165 27.0755 52.7786 26.0872L49.7644 23.4577C49.7659 23.456 49.7723 23.4493 49.7829 23.4418C49.7934 23.4343 49.7998 23.4319 49.7972 23.433C49.7919 23.4351 49.7245 23.4609 49.5576 23.4609V27.4609ZM52.7706 26.0963C53.7441 24.994 54.2676 23.6685 54.2676 22.1943H50.2676C50.2676 22.6538 50.127 23.047 49.7724 23.4486L52.7706 26.0963ZM54.2676 22.1943C54.2676 21.2281 53.9749 20.2547 53.2394 19.4747L50.329 22.2187C50.3159 22.2048 50.3018 22.1869 50.2891 22.1661C50.2764 22.1453 50.2685 22.1273 50.2642 22.1152C50.2553 22.0904 50.2676 22.1086 50.2676 22.1943H54.2676ZM53.2394 19.4747C52.4986 18.689 51.5307 18.334 50.5244 18.334V22.334C50.5611 22.334 50.5346 22.3394 50.4736 22.3146C50.4446 22.3028 50.415 22.287 50.3874 22.2679C50.3601 22.249 50.3407 22.2311 50.329 22.2187L53.2394 19.4747ZM65.1436 29.0352L63.2906 28.2826L62.1726 31.0352H65.1436V29.0352ZM68.1025 31.7158L66.8969 30.1201L66.8857 30.1285L66.8747 30.1371L68.1025 31.7158ZM63.8545 32.2285V30.2285H62.5102L62.0025 31.4734L63.8545 32.2285ZM63.2393 33.7373L65.0911 34.4928L65.0912 34.4925L63.2393 33.7373ZM52.9414 37.8389L54.3045 36.3753L54.2974 36.3687L52.9414 37.8389ZM52.165 31.7891L53.8726 32.8303L53.8763 32.8243L52.165 31.7891ZM54.1426 29.8994L53.1699 28.1519L53.1679 28.153L54.1426 29.8994ZM61.4668 29.0352V31.0352H62.8241L63.3254 29.7738L61.4668 29.0352ZM61.9209 27.8926L63.7795 28.6312L65.9726 23.113L60.8879 26.18L61.9209 27.8926ZM57.6289 27.3652L56.1363 28.6965L56.1413 28.702L56.1463 28.7076L57.6289 27.3652ZM65.7734 18.3857L64.183 19.5984L65.9891 21.967L67.4979 19.3988L65.7734 18.3857ZM68.7617 17.624L67.3725 19.0628L67.3977 19.0872L67.4238 19.1106L68.7617 17.624ZM68.8203 19.9824L66.9674 19.2297L66.9673 19.2298L68.8203 19.9824ZM63.2393 24.6406L65.0865 25.4074L65.0904 25.3979L63.2393 24.6406ZM64.4258 21.7402L66.2769 22.4975L66.2798 22.4903L66.2827 22.483L64.4258 21.7402ZM64.1768 20.4072L62.9573 21.9925L62.9717 22.0035L62.9863 22.0143L64.1768 20.4072ZM61.1885 21.3301L59.6231 20.0853L59.6212 20.0877L61.1885 21.3301ZM60.1631 32.2285L61.9907 33.0408L63.2406 30.2285H60.1631V32.2285ZM55.5781 32.7852L54.368 31.1928L54.3602 31.1987L54.3525 31.2047L55.5781 32.7852ZM55.3584 35.5244L53.9655 36.9596L55.3584 35.5244ZM65.1436 31.0352H66.9014V27.0352H65.1436V31.0352ZM66.9014 31.0352C67.1023 31.0352 67.2165 31.0532 67.2652 31.0644C67.3137 31.0756 67.258 31.0709 67.1575 31.0013C67.0442 30.9228 66.924 30.7954 66.8432 30.6273C66.7669 30.4688 66.7617 30.3499 66.7617 30.3242H70.7617C70.7617 29.3443 70.3665 28.3584 69.4357 27.7135C68.6379 27.1607 67.6907 27.0352 66.9014 27.0352V31.0352ZM66.7617 30.3242C66.7617 30.3733 66.7537 30.3382 66.7895 30.2627C66.8063 30.2273 66.8276 30.1942 66.8506 30.1664C66.8733 30.139 66.8913 30.1243 66.8969 30.1201L69.3082 33.3116C70.2934 32.5672 70.7617 31.4877 70.7617 30.3242H66.7617ZM66.8747 30.1371C66.8996 30.1177 66.7817 30.2285 66.2861 30.2285V34.2285C67.3336 34.2285 68.4266 33.9975 69.3304 33.2945L66.8747 30.1371ZM66.2861 30.2285H63.8545V34.2285H66.2861V30.2285ZM62.0025 31.4734L61.3873 32.9821L65.0912 34.4925L65.7065 32.9837L62.0025 31.4734ZM61.3875 32.9818C60.7181 34.6223 59.9607 35.6837 59.1963 36.325C58.4682 36.9358 57.6608 37.2305 56.6914 37.2305V41.2305C58.5931 41.2305 60.3126 40.6096 61.7671 39.3894C63.1853 38.1996 64.2663 36.5144 65.0911 34.4928L61.3875 32.9818ZM56.6914 37.2305C55.6358 37.2305 54.8904 36.921 54.3045 36.3753L51.5783 39.3024C52.9847 40.6122 54.7392 41.2305 56.6914 41.2305V37.2305ZM54.2974 36.3687C53.7115 35.8284 53.4326 35.2036 53.4326 34.3525H49.4326C49.4326 36.2945 50.1596 37.9939 51.5854 39.309L54.2974 36.3687ZM53.4326 34.3525C53.4326 33.8241 53.569 33.3282 53.8726 32.8303L50.4575 30.7478C49.7845 31.8515 49.4326 33.0646 49.4326 34.3525H53.4326ZM53.8763 32.8243C54.1678 32.3424 54.5678 31.9525 55.1173 31.6458L53.1679 28.153C52.0377 28.7838 51.1194 29.6537 50.4538 30.7539L53.8763 32.8243ZM55.1153 31.647C55.7446 31.2967 56.7594 31.0352 58.3174 31.0352V27.0352C56.3793 27.0352 54.6109 27.3498 53.1699 28.1519L55.1153 31.647ZM58.3174 31.0352H61.4668V27.0352H58.3174V31.0352ZM63.3254 29.7738L63.7795 28.6312L60.0623 27.1539L59.6082 28.2965L63.3254 29.7738ZM60.8879 26.18C60.489 26.4206 60.2632 26.4492 60.1777 26.4492V30.4492C61.186 30.4492 62.1223 30.1067 62.9539 29.6052L60.8879 26.18ZM60.1777 26.4492C59.6521 26.4492 59.3571 26.2941 59.1115 26.0229L56.1463 28.7076C57.2094 29.8817 58.6136 30.4492 60.1777 30.4492V26.4492ZM59.1215 26.034C58.8666 25.7482 58.6621 25.3126 58.6621 24.5381H54.6621C54.6621 26.0878 55.1022 27.5369 56.1363 28.6965L59.1215 26.034ZM58.6621 24.5381C58.6621 23.1822 59.1218 21.9537 60.1436 20.7881L57.1357 18.1513C55.5207 19.9936 54.6621 22.144 54.6621 24.5381H58.6621ZM60.1436 20.7881C61.1727 19.6142 62.138 19.2139 63.0781 19.2139V15.2139C60.737 15.2139 58.7433 16.3175 57.1357 18.1513L60.1436 20.7881ZM63.0781 19.2139C63.8101 19.2139 64.0505 19.4246 64.183 19.5984L67.3639 17.1731C66.305 15.7843 64.7485 15.2139 63.0781 15.2139V19.2139ZM67.4979 19.3988C67.5913 19.2399 67.648 19.2132 67.6356 19.2207C67.6323 19.2227 67.6299 19.223 67.6349 19.2217C67.6412 19.22 67.6676 19.2139 67.7217 19.2139V15.2139C66.1073 15.2139 64.8328 16.0386 64.049 17.3726L67.4979 19.3988ZM67.7217 19.2139C67.7009 19.2139 67.6383 19.2096 67.5556 19.177C67.4713 19.1437 67.4089 19.0979 67.3725 19.0628L70.1509 16.1852C69.4779 15.5354 68.626 15.2139 67.7217 15.2139V19.2139ZM67.4238 19.1106C67.389 19.0793 67.3235 19.0075 67.2706 18.8911C67.2169 18.773 67.2012 18.6639 67.2012 18.5908H71.2012C71.2012 17.6209 70.7973 16.7654 70.0997 16.1374L67.4238 19.1106ZM67.2012 18.5908C67.2012 18.491 67.2175 18.4897 67.1769 18.6378C67.1408 18.7699 67.0754 18.9638 66.9674 19.2297L70.6733 20.7352C70.9341 20.0932 71.2012 19.3148 71.2012 18.5908H67.2012ZM66.9673 19.2298L63.2906 28.2826L66.9966 29.7877L70.6733 20.735L66.9673 19.2298ZM65.0904 25.3979L66.2769 22.4975L62.5747 20.983L61.3882 23.8834L65.0904 25.3979ZM66.2827 22.483C66.4192 22.1418 66.5723 21.6664 66.5723 21.1396H62.5723C62.5723 21.0756 62.5772 21.0259 62.5816 20.9936C62.5861 20.9611 62.5908 20.9404 62.5926 20.9331C62.5956 20.9207 62.5917 20.9403 62.5688 20.9975L66.2827 22.483ZM66.5723 21.1396C66.5723 20.1303 66.0698 19.3205 65.3672 18.8001L62.9863 22.0143C62.9251 21.969 62.8102 21.866 62.7136 21.6871C62.613 21.5008 62.5723 21.3058 62.5723 21.1396H66.5723ZM65.3962 18.822C64.7213 18.3029 63.9423 18.1143 63.21 18.1143V22.1143C63.2395 22.1143 63.2188 22.118 63.1646 22.1015C63.1065 22.0839 63.0316 22.0496 62.9573 21.9925L65.3962 18.822ZM63.21 18.1143C61.6512 18.1143 60.4616 19.0308 59.6231 20.0853L62.7539 22.5749C62.972 22.3006 63.1294 22.1794 63.2081 22.1321C63.2715 22.0939 63.2633 22.1143 63.21 22.1143V18.1143ZM59.6212 20.0877C58.7467 21.1909 58.2363 22.4682 58.2363 23.8789H62.2363C62.2363 23.4927 62.3607 23.0709 62.7558 22.5725L59.6212 20.0877ZM58.2363 23.8789C58.2363 24.6669 58.4174 25.6303 59.1331 26.3971C59.873 27.1899 60.8484 27.417 61.6719 27.417V23.417C61.6057 23.417 61.6329 23.4075 61.7165 23.4374C61.8112 23.4712 61.9405 23.5426 62.0573 23.6678C62.2945 23.9219 62.2363 24.1163 62.2363 23.8789H58.2363ZM61.6719 27.417C62.8588 27.417 64.4191 27.0151 65.0864 25.4074L61.3921 23.8739C61.4278 23.7879 61.486 23.6917 61.5702 23.603C61.6536 23.5153 61.7375 23.4609 61.7986 23.4307C61.9049 23.378 61.9007 23.417 61.6719 23.417V27.417ZM60.1631 30.2285H57.6289V34.2285H60.1631V30.2285ZM57.6289 30.2285C56.4963 30.2285 55.3264 30.4644 54.368 31.1928L56.7883 34.3775C56.8064 34.3637 57.0037 34.2285 57.6289 34.2285V30.2285ZM54.3525 31.2047C53.3258 32.0009 52.8604 33.1402 52.8604 34.3525H56.8604C56.8604 34.3023 56.8648 34.2756 56.8664 34.2678C56.8678 34.2608 56.8667 34.2695 56.8582 34.288C56.8495 34.3071 56.8373 34.327 56.8233 34.3444C56.8097 34.3614 56.8008 34.3679 56.8038 34.3656L54.3525 31.2047ZM52.8604 34.3525C52.8604 35.3572 53.2489 36.2641 53.9655 36.9596L56.7514 34.0893C56.7592 34.0969 56.7952 34.1362 56.8255 34.2075C56.856 34.2791 56.8604 34.3353 56.8604 34.3525H52.8604ZM53.9655 36.9596C54.6929 37.6656 55.6123 38.0078 56.5889 38.0078V34.0078C56.568 34.0078 56.5946 34.0051 56.6464 34.0255C56.6705 34.0349 56.6935 34.0469 56.7136 34.06C56.7335 34.073 56.746 34.0841 56.7514 34.0893L53.9655 36.9596ZM56.5889 38.0078C57.8941 38.0078 59.0194 37.4636 59.8865 36.5483L56.9827 33.7974C56.795 33.9954 56.6899 34.0078 56.5889 34.0078V38.0078ZM59.8865 36.5483C60.6591 35.7328 61.347 34.4891 61.9907 33.0408L58.3355 31.4162C57.7291 32.7805 57.2647 33.4997 56.9827 33.7974L59.8865 36.5483ZM88.6836 25.124L86.8311 24.3702L85.7106 27.124H88.6836V25.124ZM92.4482 28.083L93.6693 29.667L93.6739 29.6634L92.4482 28.083ZM85.3438 28.0098L84.1393 29.6064L84.1483 29.6132L84.1574 29.6199L85.3438 28.0098ZM85.1094 23.8643L83.2568 23.1105L83.2537 23.1183L85.1094 23.8643ZM88.0537 16.6279L89.9062 17.3817L89.9064 17.3813L88.0537 16.6279ZM88.3467 12.4385L87.0271 13.9414L87.0376 13.9506L87.0482 13.9596L88.3467 12.4385ZM84.3184 13.1855L85.7743 14.5568L85.7822 14.5484L84.3184 13.1855ZM83.5274 17.4189L81.9611 18.6627L81.9722 18.6766L81.9835 18.6904L83.5274 17.4189ZM85.0068 18.3418L85.7496 16.4848L85.7452 16.4831L85.0068 18.3418ZM85.3145 21.0518L86.6189 22.5678L86.6217 22.5654L85.3145 21.0518ZM80.5977 20.041L79.06 21.32L79.066 21.3271L80.5977 20.041ZM91.291 9.74316L89.9691 11.2441L89.976 11.25L91.291 9.74316ZM92.1406 16.6279L93.9931 17.3817L93.9936 17.3807L92.1406 16.6279ZM88.6836 27.124H91.1445V23.124H88.6836V27.124ZM91.1445 27.124C91.3719 27.124 91.509 27.1444 91.5772 27.1602C91.6451 27.176 91.6057 27.178 91.5185 27.1174C91.4185 27.0478 91.3093 26.9322 91.236 26.7793C91.1675 26.6362 91.166 26.5353 91.166 26.5303H95.166C95.166 25.5145 94.7599 24.4996 93.8028 23.8338C92.9775 23.2597 91.9886 23.124 91.1445 23.124V27.124ZM91.166 26.5303C91.166 26.5763 91.1619 26.5993 91.1609 26.604C91.1602 26.6078 91.162 26.597 91.1712 26.5773C91.1805 26.5571 91.1929 26.5372 91.2064 26.5205C91.2195 26.5043 91.2273 26.4989 91.2226 26.5026L93.6739 29.6634C94.6927 28.8734 95.166 27.7439 95.166 26.5303H91.166ZM91.2272 26.499C91.2272 26.499 91.2267 26.4994 91.2257 26.5001C91.2247 26.5008 91.2231 26.5019 91.2207 26.5033C91.2161 26.5061 91.2084 26.5105 91.1969 26.516C91.1738 26.527 91.1343 26.5431 91.0736 26.5596C90.9489 26.5936 90.7504 26.625 90.4561 26.625V30.625C91.5644 30.625 92.7236 30.3959 93.6693 29.667L91.2272 26.499ZM90.4561 26.625H87.79V30.625H90.4561V26.625ZM87.79 26.625C86.9217 26.625 86.5999 26.451 86.5302 26.3997L84.1574 29.6199C85.2009 30.3888 86.51 30.625 87.79 30.625V26.625ZM86.5482 26.4131C86.5306 26.3998 86.5267 26.3939 86.5293 26.3972C86.5303 26.3984 86.5317 26.4002 86.533 26.4024C86.5344 26.4046 86.5349 26.4058 86.5347 26.4054C86.5347 26.4054 86.5287 26.3926 86.5224 26.3609C86.5159 26.3284 86.5088 26.2741 86.5088 26.1934H82.5088C82.5088 27.5155 83.0094 28.754 84.1393 29.6064L86.5482 26.4131ZM86.5088 26.1934C86.5088 26.0323 86.5882 25.5479 86.9651 24.6102L83.2537 23.1183C82.8298 24.1728 82.5088 25.2412 82.5088 26.1934H86.5088ZM86.9619 24.618L89.9062 17.3817L86.2012 15.8742L83.2569 23.1105L86.9619 24.618ZM89.9064 17.3813C90.2179 16.6153 90.4672 15.9315 90.6416 15.3428C90.8048 14.7917 90.9473 14.1795 90.9473 13.6104H86.9473C86.9473 13.5881 86.9409 13.7522 86.8062 14.207C86.6827 14.6242 86.4852 15.1757 86.2011 15.8745L89.9064 17.3813ZM90.9473 13.6104C90.9473 12.4693 90.3939 11.5565 89.6452 10.9173L87.0482 13.9596C87.0884 13.994 87.0575 13.9785 87.0173 13.9C86.9725 13.8126 86.9473 13.7075 86.9473 13.6104H90.9473ZM89.6663 10.9356C88.9128 10.274 87.9884 9.91113 86.9697 9.91113V13.9111C86.9854 13.9111 86.9924 13.9124 86.9926 13.9125C86.9926 13.9125 86.9901 13.9119 86.9869 13.9107C86.9837 13.9095 86.9842 13.9093 86.9894 13.9124C86.9947 13.9157 87.0075 13.9241 87.0271 13.9414L89.6663 10.9356ZM86.9697 9.91113C85.3336 9.91113 83.9464 10.65 82.8546 11.8227L85.7822 14.5484C86.2724 14.0219 86.6528 13.9111 86.9697 13.9111V9.91113ZM82.8625 11.8143C81.7615 12.9832 81.1318 14.4031 81.1318 16.0127H85.1318C85.1318 15.5324 85.2932 15.0676 85.7743 14.5568L82.8625 11.8143ZM81.1318 16.0127C81.1318 16.8813 81.3183 17.8532 81.9611 18.6627L85.0936 16.1752C85.1496 16.2457 85.1606 16.2933 85.156 16.2769C85.15 16.2554 85.1318 16.1748 85.1318 16.0127H81.1318ZM81.9835 18.6904C82.5802 19.415 83.4526 19.8764 84.2685 20.2005L85.7452 16.4831C85.4671 16.3726 85.2795 16.2758 85.1608 16.2017C85.0378 16.125 85.0314 16.0992 85.0712 16.1475L81.9835 18.6904ZM84.2641 20.1988C84.3262 20.2236 84.2212 20.1957 84.1058 20.0377C84.0497 19.9609 84.0093 19.877 83.9851 19.7967C83.9616 19.719 83.959 19.6642 83.959 19.6455H87.959C87.959 18.9771 87.7797 18.2861 87.3361 17.6786C86.9033 17.086 86.3223 16.7139 85.7496 16.4848L84.2641 20.1988ZM83.959 19.6455C83.959 19.6602 83.9577 19.659 83.9604 19.6456C83.9633 19.6316 83.9693 19.6114 83.9797 19.5886C83.9902 19.5658 84.0015 19.5484 84.0098 19.5375C84.0178 19.5271 84.0191 19.5279 84.0072 19.5381L86.6217 22.5654C87.4901 21.8154 87.959 20.7947 87.959 19.6455H83.959ZM84.01 19.5357C84.0054 19.5396 83.9626 19.5938 83.7324 19.5938V23.5938C84.7718 23.5938 85.7836 23.2865 86.6189 22.5678L84.01 19.5357ZM83.7324 19.5938C83.1707 19.5938 82.6645 19.3923 82.1294 18.755L79.066 21.3271C80.2691 22.76 81.8527 23.5938 83.7324 23.5938V19.5938ZM82.1353 18.7621C81.5869 18.1028 81.294 17.3144 81.294 16.291H77.294C77.294 18.1778 77.8701 19.8894 79.06 21.32L82.1353 18.7621ZM81.294 16.291C81.294 14.742 81.8549 13.3868 83.1062 12.1431L80.2864 9.30608C78.3346 11.246 77.294 13.6018 77.294 16.291H81.294ZM83.1062 12.1431C84.3582 10.8987 85.7259 10.3369 87.292 10.3369V6.33691C84.6003 6.33691 82.2375 7.3669 80.2864 9.30608L83.1062 12.1431ZM87.292 10.3369C88.4741 10.3369 89.3174 10.67 89.9691 11.244L92.6129 8.24228C91.1357 6.9413 89.313 6.33691 87.292 6.33691V10.3369ZM89.976 11.25C90.6254 11.8168 90.9024 12.439 90.9024 13.2441H94.9024C94.9024 11.2563 94.105 9.54449 92.6061 8.23631L89.976 11.25ZM90.9024 13.2441C90.9024 13.9202 90.7296 14.7874 90.2877 15.8752L93.9936 17.3807C94.5673 15.9685 94.9024 14.5798 94.9024 13.2441H90.9024ZM90.2881 15.8741L86.8311 24.3702L90.5361 25.8778L93.9931 17.3817L90.2881 15.8741ZM105.573 25.4316L103.72 24.6806L102.605 27.4316H105.573V25.4316ZM102.146 28.083L100.806 29.5678L100.814 29.5758L100.823 29.5837L102.146 28.083ZM101.955 25.2266L103.804 25.9881L103.81 25.9752L101.955 25.2266ZM103.244 22.0332L101.395 21.2717L101.39 21.2846L103.244 22.0332ZM103.464 21.2275L105.462 21.3227L105.462 21.3108L103.464 21.2275ZM103.171 20.627L101.876 22.1508L101.894 22.1664L101.913 22.1814L103.171 20.627ZM99.9775 22.6484L101.83 23.4022L101.83 23.4015L99.9775 22.6484ZM98.249 26.8965L96.3965 26.1427L96.393 26.1513L98.249 26.8965ZM94.6602 26.5303L96.5105 27.2894L96.5123 27.2849L94.6602 26.5303ZM94.8213 26.1348L96.6735 26.8894L96.6746 26.8865L94.8213 26.1348ZM97.7803 18.8398L99.6336 19.5916L99.6359 19.5859L97.7803 18.8398ZM101.34 18.415L99.5405 19.2882L100.611 21.4935L102.556 20.0025L101.34 18.415ZM107.17 21.4912L109.024 22.2423L109.027 22.234L107.17 21.4912ZM105.573 27.4316H107.331V23.4316H105.573V27.4316ZM107.331 27.4316C107.531 27.4316 107.643 27.4498 107.69 27.4607C107.736 27.4715 107.679 27.4661 107.579 27.3954C107.465 27.3158 107.347 27.1887 107.269 27.0241C107.195 26.8694 107.191 26.7555 107.191 26.7354H111.191C111.191 25.7598 110.803 24.7709 109.874 24.1197C109.075 23.5594 108.123 23.4316 107.331 23.4316V27.4316ZM107.191 26.7354C107.191 26.7845 107.183 26.7493 107.219 26.6739C107.236 26.6384 107.257 26.6053 107.28 26.5775C107.303 26.5501 107.321 26.5355 107.327 26.5312L109.738 29.7227C110.723 28.9783 111.191 27.8989 111.191 26.7354H107.191ZM107.327 26.5312C107.349 26.5141 107.222 26.625 106.716 26.625V30.625C107.752 30.625 108.836 30.4039 109.738 29.7227L107.327 26.5312ZM106.716 26.625H103.654V30.625H106.716V26.625ZM103.654 26.625C103.561 26.625 103.518 26.6113 103.506 26.6073C103.498 26.6042 103.488 26.6001 103.468 26.5823L100.823 29.5837C101.633 30.2967 102.619 30.625 103.654 30.625V26.625ZM103.485 26.5982C103.479 26.5923 103.483 26.5953 103.493 26.6085C103.503 26.6222 103.515 26.6414 103.525 26.6646C103.535 26.6879 103.541 26.7079 103.544 26.7212C103.546 26.7341 103.545 26.735 103.545 26.7207H99.5449C99.5449 27.8246 99.9783 28.8212 100.806 29.5678L103.485 26.5982ZM103.545 26.7207C103.545 26.8038 103.532 26.7883 103.576 26.6276C103.616 26.4812 103.688 26.2712 103.804 25.9881L100.106 24.4651C99.8217 25.1549 99.5449 25.9664 99.5449 26.7207H103.545ZM103.81 25.9752L105.099 22.7818L101.39 21.2846L100.1 24.4779L103.81 25.9752ZM105.094 22.7947C105.262 22.3847 105.436 21.8668 105.462 21.3227L101.466 21.1324C101.468 21.0871 101.473 21.0579 101.475 21.048C101.476 21.0377 101.477 21.04 101.472 21.0565C101.462 21.0918 101.44 21.1617 101.395 21.2717L105.094 22.7947ZM105.462 21.3108C105.502 20.3587 105.056 19.5795 104.429 19.0725L101.913 22.1814C101.829 22.1142 101.701 21.9849 101.6 21.7785C101.496 21.5642 101.457 21.3406 101.466 21.1443L105.462 21.3108ZM104.466 19.1031C103.835 18.5663 103.088 18.3779 102.409 18.3779V22.3779C102.389 22.3779 102.317 22.3753 102.213 22.3412C102.103 22.3054 101.984 22.2432 101.876 22.1508L104.466 19.1031ZM102.409 18.3779C100.141 18.3779 98.8324 20.1543 98.1247 21.8954L101.83 23.4015C102.076 22.7968 102.295 22.5168 102.412 22.4074C102.462 22.3602 102.48 22.3581 102.461 22.366C102.452 22.3695 102.441 22.373 102.429 22.3754C102.423 22.3766 102.418 22.3772 102.415 22.3776C102.411 22.3779 102.409 22.3779 102.409 22.3779V18.3779ZM98.125 21.8947L96.3965 26.1427L100.102 27.6503L101.83 23.4022L98.125 21.8947ZM96.393 26.1513C96.2127 26.6003 96.054 26.7667 96 26.8118C95.9777 26.8304 95.9726 26.8296 95.9807 26.8267C95.9884 26.8239 95.9779 26.8301 95.9346 26.8301V30.8301C96.9058 30.8301 97.8113 30.5108 98.5645 29.8815C99.282 29.2821 99.7677 28.4817 100.105 27.6417L96.393 26.1513ZM95.9346 26.8301C95.9283 26.8301 95.9638 26.8296 96.0233 26.8508C96.0852 26.8728 96.1384 26.906 96.1751 26.9378L93.5554 29.9606C94.2434 30.5568 95.0767 30.8301 95.9346 30.8301V26.8301ZM96.1751 26.9378C96.214 26.9716 96.2871 27.0488 96.3466 27.1755C96.4071 27.3046 96.4258 27.4263 96.4258 27.5117H92.4258C92.4258 28.4918 92.8464 29.3462 93.5554 29.9606L96.1751 26.9378ZM96.4258 27.5117C96.4258 27.5624 96.419 27.5706 96.4297 27.5258C96.4401 27.4821 96.4633 27.4045 96.5105 27.2894L92.8098 25.7712C92.5999 26.2829 92.4258 26.8808 92.4258 27.5117H96.4258ZM96.5123 27.2849L96.6735 26.8894L92.9691 25.3802L92.808 25.7757L96.5123 27.2849ZM96.6746 26.8865L99.6336 19.5916L95.9269 18.0881L92.968 25.383L96.6746 26.8865ZM99.6359 19.5859C99.724 19.3669 99.7814 19.3537 99.7315 19.3901C99.7087 19.4067 99.6843 19.4176 99.6689 19.4223C99.6561 19.4261 99.6716 19.4189 99.7285 19.4189V15.4189C98.9086 15.4189 98.0888 15.6373 97.3745 16.1583C96.6752 16.6683 96.2175 17.3655 95.9246 18.0938L99.6359 19.5859ZM99.7285 19.4189C99.7696 19.4189 99.7747 19.4235 99.7533 19.418C99.73 19.412 99.6898 19.3977 99.6437 19.3692C99.5974 19.3405 99.5637 19.3091 99.5436 19.2857C99.5247 19.2639 99.5267 19.2597 99.5405 19.2882L103.139 17.5418C102.841 16.9272 102.39 16.364 101.747 15.9668C101.107 15.5709 100.404 15.4189 99.7285 15.4189V19.4189ZM102.556 20.0025C103.386 19.367 103.964 19.2139 104.328 19.2139V15.2139C102.798 15.2139 101.384 15.8616 100.123 16.8276L102.556 20.0025ZM104.328 19.2139C104.838 19.2139 105.099 19.3481 105.273 19.5024L107.924 16.5074C106.907 15.6069 105.655 15.2139 104.328 15.2139V19.2139ZM105.273 19.5024C105.431 19.6421 105.492 19.7615 105.492 20.0117H109.492C109.492 18.6408 108.958 17.4224 107.924 16.5074L105.273 19.5024ZM105.492 20.0117C105.492 20.1449 105.459 20.3827 105.313 20.7484L109.027 22.234C109.31 21.5255 109.492 20.777 109.492 20.0117H105.492ZM105.316 20.7401L103.72 24.6806L107.427 26.1827L109.024 22.2423L105.316 20.7401ZM117.834 17.4189L115.983 16.6623L114.856 19.4189H117.834V17.4189ZM121.057 20.1143L119.851 18.5185L119.842 18.5251L119.834 18.5317L121.057 20.1143ZM116.545 20.6123V18.6123H115.198L114.692 19.8606L116.545 20.6123ZM109.968 36.8281L111.819 37.5849L111.821 37.5798L109.968 36.8281ZM106.54 36.0664L104.687 35.313L104.683 35.3232L104.679 35.3334L106.54 36.0664ZM112.824 20.6123L114.677 21.3657L115.797 18.6123H112.824V20.6123ZM110.612 17.9316L111.835 19.5142L111.84 19.5103L110.612 17.9316ZM114.113 17.4189V19.4189H115.46L115.967 18.1709L114.113 17.4189ZM115.974 12.834L114.123 12.0749L114.12 12.082L115.974 12.834ZM118.215 9.59668L119.394 11.2118L119.398 11.2095L118.215 9.59668ZM120.397 12.3652L119.257 10.7221L119.249 10.7276L119.241 10.7332L120.397 12.3652ZM119.211 14.0498L121.062 14.8064L121.063 14.8044L119.211 14.0498ZM117.834 19.4189H119.855V15.4189H117.834V19.4189ZM119.855 19.4189C120.055 19.4189 120.168 19.4371 120.214 19.448C120.261 19.4588 120.204 19.4534 120.103 19.3827C119.989 19.3031 119.872 19.176 119.793 19.0114C119.72 18.8567 119.716 18.7428 119.716 18.7227H123.716C123.716 17.7471 123.328 16.7582 122.399 16.107C121.599 15.5467 120.648 15.4189 119.855 15.4189V19.4189ZM119.716 18.7227C119.716 18.7718 119.708 18.7366 119.744 18.6612C119.76 18.6257 119.782 18.5926 119.805 18.5648C119.827 18.5374 119.845 18.5228 119.851 18.5185L122.262 21.71C123.247 20.9656 123.716 19.8862 123.716 18.7227H119.716ZM119.834 18.5317C119.879 18.497 119.767 18.6123 119.24 18.6123V22.6123C120.276 22.6123 121.375 22.3956 122.28 21.6968L119.834 18.5317ZM119.24 18.6123H116.545V22.6123H119.24V18.6123ZM114.692 19.8606L108.114 36.0764L111.821 37.5798L118.398 21.364L114.692 19.8606ZM108.116 36.0714C107.914 36.5677 107.737 36.7683 107.667 36.8305C107.638 36.8557 107.635 36.8514 107.656 36.843C107.679 36.8341 107.693 36.835 107.683 36.835V40.835C109.846 40.835 111.137 39.2545 111.819 37.5849L108.116 36.0714ZM107.683 36.835C107.674 36.835 107.712 36.8342 107.775 36.8572C107.841 36.8813 107.898 36.9177 107.937 36.9529L105.261 39.926C105.955 40.5512 106.807 40.835 107.683 40.835V36.835ZM107.937 36.9529C107.977 36.9889 108.043 37.0636 108.094 37.179C108.146 37.2949 108.159 37.3972 108.159 37.458H104.159C104.159 38.4214 104.551 39.287 105.261 39.926L107.937 36.9529ZM108.159 37.458C108.159 37.5298 108.152 37.564 108.155 37.5468C108.157 37.5329 108.165 37.4941 108.183 37.4257C108.222 37.2862 108.29 37.0811 108.401 36.7995L104.679 35.3334C104.429 35.9687 104.159 36.7535 104.159 37.458H108.159ZM108.393 36.8198L114.677 21.3657L110.972 19.8589L104.687 35.313L108.393 36.8198ZM112.824 18.6123H111.828V22.6123H112.824V18.6123ZM111.828 18.6123C111.626 18.6123 111.51 18.5944 111.459 18.5828C111.409 18.5713 111.463 18.5752 111.563 18.6437C111.676 18.7212 111.799 18.8488 111.882 19.0204C111.961 19.1827 111.968 19.3067 111.968 19.3379H107.968C107.968 20.3224 108.371 21.3052 109.303 21.9437C110.099 22.4889 111.042 22.6123 111.828 22.6123V18.6123ZM111.968 19.3379C111.968 19.2731 111.979 19.2968 111.947 19.3655C111.932 19.3983 111.912 19.4311 111.888 19.4603C111.865 19.4892 111.845 19.5066 111.835 19.5142L109.389 16.3491C108.409 17.107 107.968 18.1945 107.968 19.3379H111.968ZM111.84 19.5103C111.811 19.5328 111.931 19.4189 112.443 19.4189V15.4189C111.393 15.4189 110.292 15.6469 109.384 16.3529L111.84 19.5103ZM112.443 19.4189H114.113V15.4189H112.443V19.4189ZM115.967 18.1709L117.827 13.5859L114.12 12.082L112.26 16.667L115.967 18.1709ZM117.824 13.5931C118.377 12.2442 118.942 11.5422 119.394 11.2118L117.035 7.98157C115.749 8.92068 114.82 10.3769 114.123 12.0749L117.824 13.5931ZM119.398 11.2095C119.833 10.8903 120.546 10.6299 121.73 10.6299V6.62988C119.985 6.62988 118.355 7.01399 117.032 7.98387L119.398 11.2095ZM121.73 10.6299H123.4V6.62988H121.73V10.6299ZM123.4 10.6299C123.605 10.6299 123.722 10.648 123.774 10.6599C123.826 10.6718 123.773 10.6682 123.674 10.6002C123.562 10.5233 123.441 10.3968 123.359 10.2275C123.281 10.0677 123.275 9.94672 123.275 9.91895H127.275C127.275 8.93256 126.874 7.94626 125.94 7.30406C125.141 6.75476 124.192 6.62988 123.4 6.62988V10.6299ZM123.275 9.91895C123.275 9.98662 123.264 9.9677 123.293 9.90467C123.307 9.87491 123.325 9.84552 123.346 9.81973C123.366 9.79432 123.383 9.78023 123.388 9.77579L125.844 12.9332C126.826 12.1691 127.275 11.0771 127.275 9.91895H123.275ZM123.388 9.77579C123.417 9.75338 123.297 9.86719 122.785 9.86719V13.8672C123.836 13.8672 124.936 13.6392 125.844 12.9332L123.388 9.77579ZM122.785 9.86719H122.346V13.8672H122.785V9.86719ZM122.346 9.86719C121.279 9.86719 120.182 10.0804 119.257 10.7221L121.538 14.0084C121.57 13.986 121.772 13.8672 122.346 13.8672V9.86719ZM119.241 10.7332C118.345 11.368 117.759 12.3124 117.359 13.2952L121.063 14.8044C121.307 14.2052 121.512 14.0265 121.554 13.9973L119.241 10.7332ZM117.36 13.2932L115.983 16.6623L119.685 18.1756L121.062 14.8064L117.36 13.2932ZM130.095 18.5615L128.688 19.9834L128.696 19.9909L130.095 18.5615ZM130.754 25.1094L132.566 25.9552L132.569 25.9486L130.754 25.1094ZM128.894 27.5703L130.132 29.1409L130.141 29.1336L130.15 29.1262L128.894 27.5703ZM127.312 28.4053L127.838 30.3348L127.849 30.3316L127.861 30.3283L127.312 28.4053ZM121.818 28.0537L120.686 29.7025L120.689 29.7043L121.818 28.0537ZM124.279 21.4033L122.745 20.1209L124.279 21.4033ZM127.004 24.7725L125.505 23.4485L125.497 23.4577L127.004 24.7725ZM126.608 19.2139C127.56 19.2139 128.197 19.4971 128.688 19.9834L131.501 17.1397C130.176 15.8291 128.489 15.2139 126.608 15.2139V19.2139ZM128.696 19.9909C129.197 20.4811 129.472 21.093 129.472 21.9893H133.472C133.472 20.1121 132.829 18.4388 131.494 17.1322L128.696 19.9909ZM129.472 21.9893C129.472 22.7187 129.307 23.4737 128.938 24.2702L132.569 25.9486C133.158 24.6747 133.472 23.3496 133.472 21.9893H129.472ZM128.942 24.2636C128.572 25.056 128.127 25.6182 127.637 26.0144L130.15 29.1262C131.183 28.292 131.979 27.2135 132.566 25.9551L128.942 24.2636ZM127.655 25.9998C127.324 26.2609 127.027 26.4066 126.762 26.4822L127.861 30.3283C128.69 30.0914 129.447 29.6805 130.132 29.1409L127.655 25.9998ZM126.785 26.4757C126.502 26.5531 125.952 26.625 125.041 26.625V30.625C126.083 30.625 127.047 30.5504 127.838 30.3348L126.785 26.4757ZM125.041 26.625C124.314 26.625 123.773 26.5807 123.391 26.5129C122.981 26.4402 122.891 26.3641 122.948 26.4031L120.689 29.7043C121.303 30.1242 122.028 30.3337 122.692 30.4515C123.384 30.5741 124.176 30.625 125.041 30.625V26.625ZM122.95 26.4049C122.25 25.9241 121.855 25.251 121.855 24.0693H117.855C117.855 26.4033 118.77 28.3865 120.686 29.7025L122.95 26.4049ZM121.855 24.0693C121.855 22.755 122.306 21.6485 123.287 20.6539L120.438 17.8461C118.742 19.5663 117.855 21.6727 117.855 24.0693H121.855ZM123.287 20.6539C124.267 19.6593 125.343 19.2139 126.608 19.2139V15.2139C124.221 15.2139 122.133 16.1259 120.438 17.8461L123.287 20.6539ZM126.257 18.334C124.781 18.334 123.603 19.0932 122.745 20.1209L125.814 22.6858C125.987 22.4787 126.112 22.3932 126.172 22.3606C126.22 22.3343 126.24 22.334 126.257 22.334V18.334ZM122.745 20.1209C121.874 21.1622 121.386 22.3943 121.386 23.7617H125.386C125.386 23.4104 125.493 23.0703 125.814 22.6858L122.745 20.1209ZM121.386 23.7617C121.386 24.6991 121.659 25.7509 122.53 26.5284C123.358 27.2672 124.4 27.4609 125.29 27.4609V23.4609C125.115 23.4609 125.037 23.4407 125.027 23.4377C125.024 23.4368 125.099 23.4594 125.193 23.5439C125.239 23.5846 125.28 23.6314 125.313 23.6812C125.346 23.7304 125.367 23.774 125.378 23.8052C125.401 23.8647 125.386 23.8631 125.386 23.7617H121.386ZM125.29 27.4609C126.472 27.4609 127.649 27.0755 128.511 26.0872L125.497 23.4577C125.498 23.456 125.505 23.4493 125.515 23.4418C125.526 23.4343 125.532 23.4319 125.53 23.433C125.524 23.4351 125.457 23.4609 125.29 23.4609V27.4609ZM128.503 26.0963C129.477 24.994 130 23.6685 130 22.1943H126C126 22.6538 125.859 23.047 125.505 23.4486L128.503 26.0963ZM130 22.1943C130 21.2281 129.707 20.2547 128.972 19.4747L126.061 22.2187C126.048 22.2048 126.034 22.1869 126.022 22.1661C126.009 22.1453 126.001 22.1273 125.997 22.1152C125.988 22.0904 126 22.1086 126 22.1943H130ZM128.972 19.4747C128.231 18.689 127.263 18.334 126.257 18.334V22.334C126.293 22.334 126.267 22.3394 126.206 22.3146C126.177 22.3028 126.147 22.287 126.12 22.2679C126.093 22.249 126.073 22.2311 126.061 22.2187L128.972 19.4747Z" fill="black" mask="url(#path-2-outside-1_96_429)"/>
</svg>
