<svg width="127" height="44" viewBox="0 0 127 44" fill="none" xmlns="http://www.w3.org/2000/svg">
<rect x="1.73914" y="1" width="124.261" height="42" rx="21" fill="#D6DFFF" stroke="black" stroke-width="2"/>
<mask id="path-2-outside-1_96_429" maskUnits="userSpaceOnUse" x="10" y="6" width="111" height="29" fill="black">
<rect fill="white" x="10" y="6" width="111" height="29"/>
<path d="M19.9688 18.9951C18.6504 21.3389 17.9912 23.5117 17.9912 25.5137C17.9912 26.9395 18.3135 27.96 18.958 28.5752C19.6123 29.1904 20.6963 29.498 22.21 29.498H30.3545C31.7021 29.498 32.376 29.957 32.376 30.875C32.376 31.5391 32.1367 32.0566 31.6582 32.4277C31.1895 32.8086 30.5254 32.999 29.666 32.999H21.1699C19.7539 32.999 18.6211 32.8037 17.7715 32.4131C16.5898 31.8662 15.6621 31.0215 14.9883 29.8789C14.3145 28.7461 13.9775 27.4521 13.9775 25.9971C13.9775 24.0439 14.5732 21.71 15.7646 18.9951H14.9443H14.5635C13.4697 18.9951 12.9229 18.5264 12.9229 17.5889C12.9229 17.0029 13.1475 16.5098 13.5967 16.1094C14.0459 15.6992 14.5928 15.4941 15.2373 15.4941H15.6328H17.7568C18.6357 14.0293 19.8174 12.6182 21.3018 11.2607C23.1963 9.55176 25.2422 8.69727 27.4395 8.69727C28.8848 8.69727 30.0811 9.1416 31.0283 10.0303C31.9756 10.9189 32.4492 12.0518 32.4492 13.4287C32.4492 15.3916 31.5361 16.8955 29.71 17.9404C28.4697 18.6436 26.4971 18.9951 23.792 18.9951H19.9688ZM22.1514 15.4941H24.9932C27.4248 15.4941 28.6406 14.8447 28.6406 13.5459C28.6406 13.1357 28.4795 12.8037 28.1572 12.5498C27.8447 12.2861 27.4443 12.1543 26.9561 12.1543C26.2041 12.1543 25.3936 12.457 24.5244 13.0625C23.6553 13.668 22.8643 14.4785 22.1514 15.4941ZM39.8174 25.8066H41.4287C42.6592 25.8066 43.2744 26.2363 43.2744 27.0957C43.2744 27.6914 43.0547 28.1602 42.6152 28.502C42.1758 28.834 41.5703 29 40.7988 29H38.9238C38.084 29 37.5127 28.6729 37.21 28.0186C36.4775 28.6729 35.7695 29 35.0859 29H33.416C32.3418 29 31.4727 28.6191 30.8086 27.8574C30.1543 27.0859 29.8271 26.0801 29.8271 24.8398C29.8271 22.9648 30.4717 21.29 31.7607 19.8154C33.0596 18.3311 34.5244 17.5889 36.1553 17.5889C37.4053 17.5889 38.3184 18.0234 38.8945 18.8926C39.3828 18.1602 40.0225 17.7939 40.8135 17.7939C41.2432 17.7939 41.5996 17.9307 41.8828 18.2041C42.1758 18.4775 42.3223 18.8145 42.3223 19.2148C42.3223 19.4883 42.2441 19.8154 42.0879 20.1963L41.9268 20.5918L39.8174 25.8066ZM34.5 25.8799H34.8662C35.667 25.8799 36.1992 25.5527 36.4629 24.8984L37.4883 22.3643C37.625 22.0322 37.6934 21.7539 37.6934 21.5293C37.6934 21.2656 37.5615 21.0361 37.2979 20.8408C37.0439 20.6455 36.7363 20.5479 36.375 20.5479C35.6621 20.5479 34.9688 20.9629 34.2949 21.793C33.6211 22.623 33.2842 23.4824 33.2842 24.3711C33.2842 25.377 33.6895 25.8799 34.5 25.8799ZM47.7715 25.8066H49.3096C50.5498 25.8066 51.1699 26.2412 51.1699 27.1104C51.1699 27.7061 50.9502 28.1699 50.5107 28.502C50.0811 28.834 49.4756 29 48.6943 29H46.0576C45.335 29 44.7637 28.8291 44.3438 28.4873C43.9238 28.1455 43.7139 27.6865 43.7139 27.1104C43.7139 26.8076 43.8555 26.3047 44.1387 25.6016L50.0566 11.041L50.2178 10.6455C50.667 9.55176 51.3848 9.00488 52.3711 9.00488C52.7812 9.00488 53.1279 9.1416 53.4111 9.41504C53.7041 9.68848 53.8506 10.0156 53.8506 10.3965C53.8506 10.6895 53.7773 11.0215 53.6309 11.3926L53.4697 11.7881L47.7715 25.8066ZM55.3301 24.708C55.3301 25.4404 55.8818 25.8066 56.9854 25.8066H61.3359C62.5664 25.8066 63.1816 26.2412 63.1816 27.1104C63.1816 27.7061 62.9619 28.1699 62.5225 28.502C62.0928 28.834 61.4873 29 60.7061 29H56.5605C55.0176 29 53.8408 28.6191 53.0303 27.8574C52.2295 27.0957 51.8291 25.9824 51.8291 24.5176C51.8291 22.6328 52.4639 21.0068 53.7334 19.6396C55.0127 18.2725 56.5312 17.5889 58.2891 17.5889C59.5684 17.5889 60.5938 17.9258 61.3652 18.5996C62.1465 19.2637 62.5371 20.1426 62.5371 21.2363C62.5371 22.5547 62 23.5312 60.9258 24.166C60.3301 24.5273 59.4414 24.708 58.2598 24.708H55.3301ZM56.0332 22.042H57.6445C58.6895 22.042 59.1973 21.8125 59.168 21.3535C59.1387 20.8359 58.8018 20.5771 58.1572 20.5771C57.2588 20.5771 56.5508 21.0654 56.0332 22.042ZM74.5928 25.8066H76.3506C77.5908 25.8066 78.2109 26.2412 78.2109 27.1104C78.2109 27.7061 77.9912 28.1699 77.5518 28.502C77.1123 28.834 76.5068 29 75.7354 29H72.6738C72.0781 29 71.5752 28.8193 71.165 28.458C70.7646 28.0967 70.5645 27.6426 70.5645 27.0957C70.5645 26.7637 70.7012 26.2656 70.9746 25.6016L72.2637 22.4082C72.4004 22.0762 72.4736 21.8076 72.4834 21.6025C72.4932 21.3682 72.3955 21.168 72.1904 21.002C71.9951 20.8359 71.7412 20.7529 71.4287 20.7529C70.4229 20.7529 69.6123 21.5098 68.9971 23.0234L67.2686 27.2715C66.751 28.5605 65.9795 29.2051 64.9541 29.2051C64.5342 29.2051 64.1777 29.0781 63.8848 28.8242C63.5918 28.5703 63.4453 28.2578 63.4453 27.8867C63.4453 27.6133 63.5234 27.2861 63.6797 26.9053L63.8408 26.5098L66.7998 19.2148C67.1807 18.2676 67.8301 17.7939 68.748 17.7939C69.5 17.7939 70.0371 18.126 70.3594 18.79C71.4043 17.9893 72.4004 17.5889 73.3477 17.5889C74.2656 17.5889 75.0225 17.8525 75.6182 18.3799C76.2139 18.9072 76.5117 19.5762 76.5117 20.3867C76.5117 20.8359 76.4043 21.3291 76.1895 21.8662L74.5928 25.8066ZM88.8311 25.8066H90.501C91.7412 25.8066 92.3613 26.2412 92.3613 27.1104C92.3613 27.7061 92.1416 28.1699 91.7021 28.502C91.2627 28.834 90.6572 29 89.8857 29H87.9082C87.1465 29 86.5898 28.6875 86.2383 28.0625C85.6133 28.6875 84.9443 29 84.2314 29H82.3711C81.2871 29 80.418 28.6289 79.7637 27.8867C79.1191 27.1445 78.7969 26.1582 78.7969 24.9277C78.7969 23.043 79.4365 21.3486 80.7158 19.8447C82.0049 18.3408 83.4502 17.5889 85.0518 17.5889C86.2334 17.5889 87.1758 18.0137 87.8789 18.8633L91.1455 10.8506C91.7021 9.4834 92.4785 8.7998 93.4746 8.7998C93.8945 8.7998 94.251 8.93652 94.5439 9.20996C94.8369 9.47363 94.9834 9.80078 94.9834 10.1914C94.9834 10.4941 94.9102 10.8359 94.7637 11.2168L94.5879 11.6123L88.8311 25.8066ZM83.4697 25.8799H84.0264C84.7002 25.8799 85.1445 25.6113 85.3594 25.0742L86.458 22.3643C86.5947 22.0322 86.6631 21.7783 86.6631 21.6025C86.6631 21.3096 86.5361 21.0605 86.2822 20.8555C86.0381 20.6504 85.7305 20.5479 85.3594 20.5479C84.5977 20.5479 83.8848 20.9727 83.2207 21.8223C82.5664 22.6719 82.2393 23.5898 82.2393 24.5762C82.2393 25.4453 82.6494 25.8799 83.4697 25.8799ZM102.952 25.8066H104.563C105.794 25.8066 106.409 26.2363 106.409 27.0957C106.409 27.6914 106.189 28.1602 105.75 28.502C105.311 28.834 104.705 29 103.934 29H102.059C101.219 29 100.647 28.6729 100.345 28.0186C99.6123 28.6729 98.9043 29 98.2207 29H96.5508C95.4766 29 94.6074 28.6191 93.9434 27.8574C93.2891 27.0859 92.9619 26.0801 92.9619 24.8398C92.9619 22.9648 93.6064 21.29 94.8955 19.8154C96.1943 18.3311 97.6592 17.5889 99.29 17.5889C100.54 17.5889 101.453 18.0234 102.029 18.8926C102.518 18.1602 103.157 17.7939 103.948 17.7939C104.378 17.7939 104.734 17.9307 105.018 18.2041C105.311 18.4775 105.457 18.8145 105.457 19.2148C105.457 19.4883 105.379 19.8154 105.223 20.1963L105.062 20.5918L102.952 25.8066ZM97.6348 25.8799H98.001C98.8018 25.8799 99.334 25.5527 99.5977 24.8984L100.623 22.3643C100.76 22.0322 100.828 21.7539 100.828 21.5293C100.828 21.2656 100.696 21.0361 100.433 20.8408C100.179 20.6455 99.8711 20.5479 99.5098 20.5479C98.7969 20.5479 98.1035 20.9629 97.4297 21.793C96.7559 22.623 96.4189 23.4824 96.4189 24.3711C96.4189 25.377 96.8242 25.8799 97.6348 25.8799ZM110.643 21.002L110.145 22.2324C109.695 23.3262 109.109 23.873 108.387 23.873C107.947 23.873 107.581 23.7412 107.288 23.4775C106.995 23.2139 106.849 22.8867 106.849 22.4961C106.849 22.2715 106.956 21.8906 107.171 21.3535L108.826 17.2666C109.227 16.2803 109.793 15.7871 110.525 15.7871C111.248 15.7871 111.692 16.1289 111.858 16.8125L111.976 17.2666C112.034 17.501 112.122 17.6475 112.239 17.7061C112.356 17.7646 112.645 17.7939 113.104 17.7939H116.531C117.811 17.7939 118.45 18.2432 118.45 19.1416C118.45 20.3818 117.64 21.002 116.019 21.002L115.857 21.1484C114.305 22.6328 113.528 23.7803 113.528 24.5908C113.528 25.4014 113.978 25.8066 114.876 25.8066H116.722C117.962 25.8066 118.582 26.2363 118.582 27.0957C118.582 27.7012 118.362 28.1699 117.923 28.502C117.493 28.834 116.888 29 116.106 29H113.235C112.259 29 111.458 28.6631 110.833 27.9893C110.218 27.3154 109.91 26.4414 109.91 25.3672C109.91 24.6836 110.076 24.0195 110.408 23.375C110.74 22.7305 111.326 21.9395 112.166 21.002H110.643Z"/>
</mask>
<path d="M19.9688 18.9951V16.9951H18.7991L18.2256 18.0146L19.9688 18.9951ZM18.958 28.5752L17.5771 30.0219L17.5825 30.0271L17.588 30.0322L18.958 28.5752ZM31.6582 32.4277L30.4326 30.8473L30.4146 30.8612L30.397 30.8755L31.6582 32.4277ZM17.7715 32.4131L16.9315 34.2281L16.936 34.2302L17.7715 32.4131ZM14.9883 29.8789L16.711 28.8629L16.7072 28.8565L14.9883 29.8789ZM15.7646 18.9951L17.5961 19.7988L18.8265 16.9951H15.7646V18.9951ZM13.5967 16.1094L14.9274 17.6024L14.9364 17.5944L14.9452 17.5863L13.5967 16.1094ZM17.7568 15.4941V17.4941H18.8892L19.4718 16.5231L17.7568 15.4941ZM21.3018 11.2607L19.9621 9.77564L19.9521 9.78482L21.3018 11.2607ZM29.71 17.9404L30.6963 19.6803L30.7032 19.6763L29.71 17.9404ZM22.1514 15.4941L20.5144 14.3451L18.304 17.4941H22.1514V15.4941ZM28.1572 12.5498L26.8675 14.0784L26.8931 14.1L26.9195 14.1208L28.1572 12.5498ZM24.5244 13.0625L25.6676 14.7036L24.5244 13.0625ZM18.2256 18.0146C16.7945 20.5588 15.9912 23.0703 15.9912 25.5137H19.9912C19.9912 23.9531 20.5063 22.1189 21.7119 19.9756L18.2256 18.0146ZM15.9912 25.5137C15.9912 27.1681 16.3547 28.8551 17.5771 30.0219L20.339 27.1285C20.2723 27.0648 19.9912 26.7108 19.9912 25.5137H15.9912ZM17.588 30.0322C18.7967 31.1688 20.5126 31.498 22.21 31.498V27.498C20.88 27.498 20.4279 27.212 20.3281 27.1182L17.588 30.0322ZM22.21 31.498H30.3545V27.498H22.21V31.498ZM30.3545 31.498C30.5842 31.498 30.7245 31.5182 30.7961 31.5345C30.8679 31.5508 30.831 31.5541 30.7447 31.4952C30.6452 31.4275 30.5313 31.3113 30.4532 31.1517C30.3796 31.0012 30.376 30.8907 30.376 30.875H34.376C34.376 29.8516 33.956 28.8429 32.9965 28.1893C32.1747 27.6295 31.1929 27.498 30.3545 27.498V31.498ZM30.376 30.875C30.376 30.921 30.3718 30.944 30.3709 30.9487C30.3701 30.9525 30.372 30.9418 30.3811 30.922C30.3904 30.9019 30.4029 30.8819 30.4163 30.8653C30.4295 30.849 30.4373 30.8436 30.4326 30.8473L32.8839 34.0082C33.9026 33.2181 34.376 32.0887 34.376 30.875H30.376ZM30.397 30.8755C30.3967 30.8757 30.3892 30.8819 30.3694 30.8919C30.3491 30.9022 30.3134 30.9176 30.2573 30.9337C30.1419 30.9668 29.9526 30.999 29.666 30.999V34.999C30.7945 34.999 31.9701 34.7512 32.9194 33.98L30.397 30.8755ZM29.666 30.999H21.1699V34.999H29.666V30.999ZM21.1699 30.999C19.9078 30.999 19.0949 30.8203 18.607 30.5959L16.936 34.2302C18.1473 34.7871 19.6001 34.999 21.1699 34.999V30.999ZM18.6115 30.598C17.8057 30.2251 17.1827 29.6627 16.711 28.8629L13.2655 30.8949C14.1415 32.3802 15.374 33.5073 16.9315 34.2281L18.6115 30.598ZM16.7072 28.8565C16.2361 28.0644 15.9775 27.1307 15.9775 25.9971H11.9775C11.9775 27.7736 12.3928 29.4277 13.2694 30.9014L16.7072 28.8565ZM15.9775 25.9971C15.9775 24.426 16.4638 22.3789 17.5961 19.7988L13.9332 18.1914C12.6827 21.041 11.9775 23.6619 11.9775 25.9971H15.9775ZM15.7646 16.9951H14.9443V20.9951H15.7646V16.9951ZM14.9443 16.9951H14.5635V20.9951H14.9443V16.9951ZM14.5635 16.9951C14.2559 16.9951 14.3985 16.9226 14.6346 17.125C14.7598 17.2323 14.8443 17.3632 14.8894 17.4792C14.9298 17.5831 14.9229 17.6333 14.9229 17.5889H10.9229C10.9229 18.4533 11.1894 19.4403 12.0314 20.1621C12.8144 20.8332 13.7773 20.9951 14.5635 20.9951V16.9951ZM14.9229 17.5889C14.9229 17.5707 14.9245 17.567 14.923 17.5744C14.9223 17.5778 14.921 17.5828 14.919 17.5891C14.9169 17.5954 14.9144 17.602 14.9114 17.6085C14.9085 17.615 14.9055 17.6204 14.903 17.6247C14.9005 17.6289 14.8989 17.6311 14.8987 17.6312C14.8983 17.6319 14.9058 17.6217 14.9274 17.6024L12.2659 14.6163C11.4041 15.3845 10.9229 16.4153 10.9229 17.5889H14.9229ZM14.9452 17.5863C15.0026 17.534 15.0593 17.4941 15.2373 17.4941V13.4941C14.1263 13.4941 13.0892 13.8645 12.2481 14.6324L14.9452 17.5863ZM15.2373 17.4941H15.6328V13.4941H15.2373V17.4941ZM15.6328 17.4941H17.7568V13.4941H15.6328V17.4941ZM19.4718 16.5231C20.2354 15.2505 21.2852 13.9861 22.6514 12.7367L19.9521 9.78482C18.3496 11.2503 17.0361 12.8081 16.0419 14.4651L19.4718 16.5231ZM22.6414 12.7458C24.2315 11.3114 25.8159 10.6973 27.4395 10.6973V6.69727C24.6685 6.69727 22.1611 7.79211 19.9621 9.77568L22.6414 12.7458ZM27.4395 10.6973C28.4386 10.6973 29.1264 10.9883 29.6599 11.4889L32.3967 8.57167C31.0357 7.29487 29.331 6.69727 27.4395 6.69727V10.6973ZM29.6599 11.4889C30.1778 11.9747 30.4492 12.5671 30.4492 13.4287H34.4492C34.4492 11.5364 33.7734 9.86317 32.3967 8.57167L29.6599 11.4889ZM30.4492 13.4287C30.4492 14.6134 29.975 15.4845 28.7167 16.2045L30.7032 19.6763C33.0972 18.3065 34.4492 16.1698 34.4492 13.4287H30.4492ZM28.7236 16.2006C27.9493 16.6396 26.4106 16.9951 23.792 16.9951V20.9951C26.5836 20.9951 28.9902 20.6475 30.6963 19.6803L28.7236 16.2006ZM23.792 16.9951H19.9688V20.9951H23.792V16.9951ZM22.1514 17.4941H24.9932V13.4941H22.1514V17.4941ZM24.9932 17.4941C26.3217 17.4941 27.6289 17.3278 28.671 16.7712C29.2219 16.4769 29.7381 16.0521 30.1094 15.4571C30.4846 14.8558 30.6406 14.1946 30.6406 13.5459H26.6406C26.6406 13.5466 26.6446 13.4537 26.7159 13.3394C26.7833 13.2315 26.8435 13.2125 26.7865 13.243C26.7191 13.279 26.5538 13.3472 26.2384 13.4033C25.9275 13.4587 25.5177 13.4941 24.9932 13.4941V17.4941ZM30.6406 13.5459C30.6406 12.5228 30.1984 11.6118 29.395 10.9788L26.9195 14.1208C26.8699 14.0817 26.7861 13.9976 26.7205 13.8625C26.6549 13.7273 26.6406 13.6093 26.6406 13.5459H30.6406ZM29.447 11.0212C28.7066 10.3965 27.8205 10.1543 26.9561 10.1543V14.1543C27.0206 14.1543 27.0278 14.163 26.9971 14.1528C26.9818 14.1478 26.9606 14.1392 26.9361 14.1256C26.9115 14.112 26.8882 14.0958 26.8675 14.0784L29.447 11.0212ZM26.9561 10.1543C25.6592 10.1543 24.4534 10.6745 23.3812 11.4214L25.6676 14.7036C26.3337 14.2396 26.749 14.1543 26.9561 14.1543V10.1543ZM23.3812 11.4214C22.2901 12.1815 21.3392 13.17 20.5144 14.3451L23.7884 16.6432C24.3893 15.787 25.0204 15.1544 25.6676 14.7036L23.3812 11.4214ZM39.8174 25.8066L37.9633 25.0567L36.851 27.8066H39.8174V25.8066ZM42.6152 28.502L43.8209 30.0977L43.8321 30.0893L43.8431 30.0807L42.6152 28.502ZM37.21 28.0186L39.0251 27.1787L37.8912 24.7281L35.8775 26.527L37.21 28.0186ZM30.8086 27.8574L29.2833 29.151L29.2921 29.1614L29.301 29.1717L30.8086 27.8574ZM31.7607 19.8154L30.2556 18.4984L30.255 18.4991L31.7607 19.8154ZM38.8945 18.8926L37.2276 19.9977L38.8898 22.5052L40.5586 20.002L38.8945 18.8926ZM41.8828 18.2041L40.4936 19.6429L40.5058 19.6547L40.5182 19.6662L41.8828 18.2041ZM42.0879 20.1963L40.2375 19.4372L40.2357 19.4417L42.0879 20.1963ZM41.9268 20.5918L40.0746 19.8372L40.0727 19.8418L41.9268 20.5918ZM36.4629 24.8984L34.6089 24.1483L34.6079 24.1509L36.4629 24.8984ZM37.4883 22.3643L35.6389 21.6027L35.6343 21.6141L37.4883 22.3643ZM37.2979 20.8408L36.0784 22.4261L36.0928 22.4371L36.1074 22.4479L37.2979 20.8408ZM39.8174 27.8066H41.4287V23.8066H39.8174V27.8066ZM41.4287 27.8066C41.6263 27.8066 41.7372 27.8245 41.7827 27.8351C41.828 27.8456 41.7698 27.8398 41.6678 27.7686C41.5531 27.6884 41.4338 27.5602 41.3541 27.3932C41.2791 27.2361 41.2744 27.1192 41.2744 27.0957H45.2744C45.2744 26.1223 44.8854 25.1368 43.9582 24.4892C43.1616 23.9329 42.2153 23.8066 41.4287 23.8066V27.8066ZM41.2744 27.0957C41.2744 27.1443 41.2666 27.1137 41.2987 27.0452C41.3136 27.0133 41.3324 26.984 41.352 26.9599C41.3712 26.9363 41.3855 26.9247 41.3874 26.9232L43.8431 30.0807C44.8078 29.3303 45.2744 28.2587 45.2744 27.0957H41.2744ZM41.4096 26.9062C41.4323 26.8891 41.3054 27 40.7988 27V31C41.8352 31 42.9193 30.7789 43.8209 30.0977L41.4096 26.9062ZM40.7988 27H38.9238V31H40.7988V27ZM38.9238 27C38.7583 27 38.7699 26.9679 38.8594 27.0191C38.9035 27.0444 38.9463 27.079 38.981 27.1178C39.0144 27.1554 39.0262 27.1811 39.0251 27.1787L35.3948 28.8584C35.703 29.5245 36.1916 30.1008 36.8716 30.4902C37.5323 30.8686 38.2495 31 38.9238 31V27ZM35.8775 26.527C35.3534 26.9952 35.1007 27 35.0859 27V31C36.4384 31 37.6016 30.3505 38.5424 29.5101L35.8775 26.527ZM35.0859 27H33.416V31H35.0859V27ZM33.416 27C32.8785 27 32.574 26.839 32.3161 26.5432L29.301 29.1717C30.3713 30.3993 31.8051 31 33.416 31V27ZM32.3339 26.5638C32.051 26.2303 31.8271 25.7174 31.8271 24.8398H27.8271C27.8271 26.4428 28.2576 27.9416 29.2833 29.151L32.3339 26.5638ZM31.8271 24.8398C31.8271 23.472 32.2806 22.2596 33.2665 21.1317L30.255 18.4991C28.6628 20.3205 27.8271 22.4577 27.8271 24.8398H31.8271ZM33.2659 21.1324C34.2717 19.9829 35.221 19.5889 36.1553 19.5889V15.5889C33.8278 15.5889 31.8474 16.6792 30.2556 18.4984L33.2659 21.1324ZM36.1553 19.5889C36.888 19.5889 37.0993 19.8041 37.2276 19.9977L40.5615 17.7875C39.5374 16.2427 37.9225 15.5889 36.1553 15.5889V19.5889ZM40.5586 20.002C40.664 19.844 40.7307 19.8063 40.7342 19.8043C40.7377 19.8022 40.7396 19.8014 40.7446 19.8001C40.7502 19.7987 40.7712 19.7939 40.8135 19.7939V15.7939C39.2697 15.7939 38.0404 16.5682 37.2304 17.7832L40.5586 20.002ZM40.8135 19.7939C40.814 19.7939 40.7641 19.7935 40.6868 19.7638C40.6064 19.733 40.5391 19.6868 40.4936 19.6429L43.272 16.7653C42.5802 16.0973 41.7095 15.7939 40.8135 15.7939V19.7939ZM40.5182 19.6662C40.4826 19.633 40.4239 19.5643 40.3783 19.4593C40.3326 19.3543 40.3223 19.2641 40.3223 19.2148H44.3223C44.3223 18.2595 43.9453 17.3933 43.2474 16.742L40.5182 19.6662ZM40.3223 19.2148C40.3223 19.1642 40.3291 19.156 40.3184 19.2007C40.3079 19.2445 40.2848 19.322 40.2376 19.4372L43.9382 20.9554C44.1482 20.4437 44.3223 19.8458 44.3223 19.2148H40.3223ZM40.2357 19.4417L40.0746 19.8372L43.7789 21.3464L43.9401 20.9509L40.2357 19.4417ZM40.0727 19.8418L37.9633 25.0567L41.6714 26.5566L43.7808 21.3418L40.0727 19.8418ZM34.5 27.8799H34.8662V23.8799H34.5V27.8799ZM34.8662 27.8799C35.5337 27.8799 36.2548 27.7431 36.9133 27.3384C37.5904 26.9222 38.0477 26.3165 38.3179 25.646L34.6079 24.1509C34.6078 24.1509 34.6217 24.117 34.6614 24.0681C34.7026 24.0172 34.7569 23.9686 34.8186 23.9307C34.9449 23.8531 34.9995 23.8799 34.8662 23.8799V27.8799ZM38.3169 25.6486L39.3423 23.1144L35.6343 21.6141L34.6089 24.1483L38.3169 25.6486ZM39.3376 23.1258C39.5213 22.6798 39.6934 22.1247 39.6934 21.5293H35.6934C35.6934 21.4847 35.6967 21.4536 35.6988 21.4385C35.7008 21.4232 35.7022 21.4198 35.6998 21.4294C35.6945 21.451 35.6783 21.5071 35.6389 21.6028L39.3376 23.1258ZM39.6934 21.5293C39.6934 20.4772 39.1226 19.7036 38.4883 19.2337L36.1074 22.4479C36.0694 22.4198 35.9603 22.3298 35.8603 22.1557C35.7527 21.9685 35.6934 21.7484 35.6934 21.5293H39.6934ZM38.5173 19.2556C37.8695 18.7573 37.1181 18.5479 36.375 18.5479V22.5479C36.3752 22.5479 36.3654 22.5479 36.347 22.5452C36.3285 22.5425 36.3027 22.5372 36.2716 22.5273C36.2052 22.5063 36.1374 22.4714 36.0784 22.4261L38.5173 19.2556ZM36.375 18.5479C34.8075 18.5479 33.6017 19.4736 32.7421 20.5325L35.8477 23.0535C36.0822 22.7646 36.2544 22.6309 36.3475 22.5752C36.4261 22.5281 36.4267 22.5479 36.375 22.5479V18.5479ZM32.7421 20.5325C31.84 21.6438 31.2842 22.9352 31.2842 24.3711H35.2842C35.2842 24.0297 35.4022 23.6023 35.8477 23.0535L32.7421 20.5325ZM31.2842 24.3711C31.2842 25.0903 31.4205 26.0002 32.0308 26.7576C32.7077 27.5975 33.6583 27.8799 34.5 27.8799V23.8799C34.5006 23.8799 34.593 23.8797 34.7326 23.9375C34.8844 24.0003 35.0324 24.1074 35.1454 24.2478C35.3505 24.5022 35.2842 24.6578 35.2842 24.3711H31.2842ZM47.7715 25.8066L45.9187 25.0535L44.7996 27.8066H47.7715V25.8066ZM50.5107 28.502L49.3051 26.9062L49.2964 26.9128L49.2878 26.9194L50.5107 28.502ZM44.1387 25.6016L42.2859 24.8485L42.2835 24.8543L44.1387 25.6016ZM50.0566 11.041L48.2045 10.2864L48.2038 10.288L50.0566 11.041ZM50.2178 10.6455L48.3677 9.88567L48.3656 9.89091L50.2178 10.6455ZM53.4111 9.41504L52.0219 10.8538L52.0341 10.8656L52.0465 10.8771L53.4111 9.41504ZM53.6309 11.3926L55.483 12.1472L55.4872 12.1371L55.4912 12.1269L53.6309 11.3926ZM53.4697 11.7881L51.6175 11.0335L51.6169 11.035L53.4697 11.7881ZM47.7715 27.8066H49.3096V23.8066H47.7715V27.8066ZM49.3096 27.8066C49.5092 27.8066 49.6217 27.8248 49.6685 27.8357C49.715 27.8465 49.6579 27.8411 49.557 27.7704C49.4435 27.6908 49.3259 27.5637 49.2476 27.3991C49.174 27.2444 49.1699 27.1305 49.1699 27.1104H53.1699C53.1699 26.1348 52.7819 25.1459 51.8526 24.4947C51.0531 23.9344 50.102 23.8066 49.3096 23.8066V27.8066ZM49.1699 27.1104C49.1699 27.1595 49.1619 27.1243 49.1977 27.0489C49.2145 27.0134 49.2358 26.9803 49.2588 26.9525C49.2815 26.9251 49.2995 26.9105 49.3051 26.9062L51.7164 30.0977C52.7016 29.3533 53.1699 28.2739 53.1699 27.1104H49.1699ZM49.2878 26.9194C49.3327 26.8847 49.2212 27 48.6943 27V31C49.73 31 50.8294 30.7833 51.7336 30.0845L49.2878 26.9194ZM48.6943 27H46.0576V31H48.6943V27ZM46.0576 27C45.6405 27 45.5658 26.9032 45.6063 26.9362L43.0812 30.0384C43.9616 30.755 45.0294 31 46.0576 31V27ZM45.6063 26.9362C45.6086 26.9381 45.6221 26.9496 45.6401 26.9725C45.6585 26.9958 45.676 27.024 45.6901 27.0547C45.7203 27.1209 45.7139 27.1519 45.7139 27.1104H41.7139C41.7139 28.2439 42.1614 29.2897 43.0812 30.0384L45.6063 26.9362ZM45.7139 27.1104C45.7139 27.183 45.7061 27.2153 45.7102 27.192C45.7137 27.1724 45.7233 27.1261 45.7452 27.0481C45.7899 26.8896 45.8684 26.6603 45.9938 26.3488L42.2835 24.8543C42.0068 25.5413 41.7139 26.3746 41.7139 27.1104H45.7139ZM45.9915 26.3546L51.9095 11.7941L48.2038 10.288L42.2859 24.8485L45.9915 26.3546ZM51.9088 11.7956L52.07 11.4001L48.3656 9.89091L48.2045 10.2864L51.9088 11.7956ZM52.0678 11.4053C52.1982 11.0879 52.3036 11.007 52.3051 11.0059C52.3066 11.0048 52.305 11.0061 52.301 11.0082C52.297 11.0103 52.2938 11.0115 52.2928 11.0118C52.2892 11.0129 52.3109 11.0049 52.3711 11.0049V7.00488C51.4832 7.00488 50.621 7.26031 49.8809 7.82418C49.1646 8.36992 48.6866 9.10939 48.3677 9.88567L52.0678 11.4053ZM52.3711 11.0049C52.3503 11.0049 52.2877 11.0006 52.205 10.968C52.1207 10.9347 52.0583 10.8889 52.0219 10.8538L54.8003 7.97624C54.1273 7.32641 53.2755 7.00488 52.3711 7.00488V11.0049ZM52.0465 10.8771C52.021 10.8533 51.9633 10.7899 51.9154 10.6828C51.8664 10.5734 51.8506 10.4698 51.8506 10.3965H55.8506C55.8506 9.42952 55.4502 8.5824 54.7758 7.95293L52.0465 10.8771ZM51.8506 10.3965C51.8506 10.3772 51.8529 10.3879 51.8426 10.4344C51.8323 10.481 51.8114 10.5548 51.7705 10.6582L55.4912 12.1269C55.6987 11.6012 55.8506 11.0138 55.8506 10.3965H51.8506ZM51.7787 10.638L51.6175 11.0335L55.3219 12.5427L55.483 12.1472L51.7787 10.638ZM51.6169 11.035L45.9187 25.0535L49.6243 26.5598L55.3225 12.5412L51.6169 11.035ZM55.3301 24.708V22.708H53.3301V24.708H55.3301ZM62.5225 28.502L61.3168 26.9062L61.3081 26.9128L61.2996 26.9194L62.5225 28.502ZM53.0303 27.8574L51.6518 29.3066L51.6606 29.3149L53.0303 27.8574ZM53.7334 19.6396L52.273 18.2731L52.2678 18.2787L53.7334 19.6396ZM61.3652 18.5996L60.0496 20.1059L60.0597 20.1148L60.0699 20.1235L61.3652 18.5996ZM60.9258 24.166L59.9083 22.4442L59.8984 22.45L59.8886 22.456L60.9258 24.166ZM56.0332 22.042L54.2661 21.1054L52.7097 24.042H56.0332V22.042ZM59.168 21.3535L57.1712 21.4665L57.1716 21.4737L57.172 21.4809L59.168 21.3535ZM53.3301 24.708C53.3301 25.6606 53.7373 26.6006 54.6379 27.1983C55.3943 27.7004 56.2757 27.8066 56.9854 27.8066V23.8066C56.8138 23.8066 56.7232 23.7918 56.6932 23.7852C56.6624 23.7784 56.7342 23.7888 56.8499 23.8656C56.9789 23.9513 57.1215 24.0933 57.2208 24.2911C57.3161 24.4808 57.3301 24.6386 57.3301 24.708H53.3301ZM56.9854 27.8066H61.3359V23.8066H56.9854V27.8066ZM61.3359 27.8066C61.5323 27.8066 61.6414 27.8246 61.6851 27.8349C61.7282 27.845 61.6687 27.8384 61.5663 27.7661C61.4514 27.685 61.3347 27.557 61.2576 27.3935C61.1853 27.2403 61.1816 27.1284 61.1816 27.1104H65.1816C65.1816 26.1412 64.7998 25.1529 63.8741 24.499C63.0758 23.9351 62.1257 23.8066 61.3359 23.8066V27.8066ZM61.1816 27.1104C61.1816 27.1595 61.1736 27.1243 61.2094 27.0489C61.2262 27.0134 61.2475 26.9803 61.2705 26.9525C61.2932 26.9251 61.3112 26.9105 61.3168 26.9062L63.7281 30.0977C64.7133 29.3533 65.1816 28.2739 65.1816 27.1104H61.1816ZM61.2996 26.9194C61.3445 26.8847 61.2329 27 60.7061 27V31C61.7417 31 62.8411 30.7833 63.7454 30.0845L61.2996 26.9194ZM60.7061 27H56.5605V31H60.7061V27ZM56.5605 27C55.3277 27 54.7164 26.6974 54.3999 26.4L51.6606 29.3149C52.9652 30.5409 54.7074 31 56.5605 31V27ZM54.4087 26.4083C54.122 26.1356 53.8291 25.6207 53.8291 24.5176H49.8291C49.8291 26.3442 50.337 28.0558 51.6518 29.3065L54.4087 26.4083ZM53.8291 24.5176C53.8291 23.1319 54.2768 21.9936 55.199 21.0006L52.2678 18.2787C50.6509 20.02 49.8291 22.1337 49.8291 24.5176H53.8291ZM55.1938 21.0061C56.1225 20.0136 57.1239 19.5889 58.2891 19.5889V15.5889C55.9386 15.5889 53.9029 16.5313 52.273 18.2732L55.1938 21.0061ZM58.2891 19.5889C59.2093 19.5889 59.7266 19.8238 60.0496 20.1059L62.6809 17.0933C61.4609 16.0277 59.9275 15.5889 58.2891 15.5889V19.5889ZM60.0699 20.1235C60.3713 20.3796 60.5371 20.6848 60.5371 21.2363H64.5371C64.5371 19.6004 63.9217 18.1477 62.6605 17.0757L60.0699 20.1235ZM60.5371 21.2363C60.5371 21.8962 60.3327 22.1934 59.9083 22.4442L61.9432 25.8879C63.6673 24.8691 64.5371 23.2131 64.5371 21.2363H60.5371ZM59.8886 22.456C59.754 22.5376 59.3007 22.708 58.2598 22.708V26.708C59.5821 26.708 60.9061 26.5171 61.963 25.876L59.8886 22.456ZM58.2598 22.708H55.3301V26.708H58.2598V22.708ZM56.0332 24.042H57.6445V20.042H56.0332V24.042ZM57.6445 24.042C58.2454 24.042 58.982 23.9865 59.6327 23.6924C59.9838 23.5337 60.4081 23.2614 60.7315 22.7962C61.0745 22.3027 61.197 21.7451 61.1639 21.2261L57.172 21.4809C57.1536 21.1915 57.2236 20.8347 57.4469 20.5133C57.6507 20.2201 57.8883 20.0913 57.9854 20.0473C58.0807 20.0043 58.1142 20.0088 58.0351 20.0205C57.9635 20.031 57.8378 20.042 57.6445 20.042V24.042ZM61.1648 21.2405C61.1251 20.5404 60.8419 19.7461 60.1116 19.1851C59.4542 18.6801 58.7039 18.5771 58.1572 18.5771V22.5771C58.2551 22.5771 57.9955 22.6035 57.675 22.3573C57.5042 22.2261 57.368 22.0548 57.2795 21.8671C57.1954 21.6889 57.1754 21.5417 57.1712 21.4665L61.1648 21.2405ZM58.1572 18.5771C56.3353 18.5771 55.0354 19.6538 54.2661 21.1054L57.8003 22.9786C57.9503 22.6956 58.063 22.6069 58.0879 22.5898C58.0947 22.5851 58.0983 22.5833 58.0991 22.5829C58.0998 22.5826 58.1 22.5825 58.1007 22.5823C58.1015 22.582 58.1053 22.5809 58.1133 22.5798C58.1214 22.5786 58.1357 22.5771 58.1572 22.5771V18.5771ZM74.5928 25.8066L72.7392 25.0556L71.6244 27.8066H74.5928V25.8066ZM71.165 28.458L69.8251 29.9428L69.834 29.9508L69.843 29.9587L71.165 28.458ZM70.9746 25.6016L72.824 26.3631L72.8292 26.3502L70.9746 25.6016ZM72.2637 22.4082L70.4143 21.6467L70.4091 21.6596L72.2637 22.4082ZM72.4834 21.6025L74.4812 21.6977L74.4817 21.6858L72.4834 21.6025ZM72.1904 21.002L70.8951 22.5258L70.9134 22.5414L70.932 22.5564L72.1904 21.002ZM68.9971 23.0234L70.8496 23.7772L70.8499 23.7765L68.9971 23.0234ZM67.2686 27.2715L65.416 26.5177L65.4126 26.5263L67.2686 27.2715ZM63.6797 26.9053L65.53 27.6644L65.5319 27.6599L63.6797 26.9053ZM63.8408 26.5098L65.693 27.2644L65.6942 27.2615L63.8408 26.5098ZM66.7998 19.2148L68.6532 19.9666L68.6554 19.9609L66.7998 19.2148ZM70.3594 18.79L68.5601 19.6632L69.6303 21.8685L71.5759 20.3775L70.3594 18.79ZM76.1895 21.8662L78.0431 22.6173L78.0464 22.609L76.1895 21.8662ZM74.5928 27.8066H76.3506V23.8066H74.5928V27.8066ZM76.3506 27.8066C76.5503 27.8066 76.6627 27.8248 76.7095 27.8357C76.756 27.8465 76.6989 27.8411 76.5981 27.7704C76.4845 27.6908 76.3669 27.5637 76.2886 27.3991C76.215 27.2444 76.2109 27.1305 76.2109 27.1104H80.2109C80.2109 26.1348 79.8229 25.1459 78.8936 24.4947C78.0941 23.9344 77.143 23.8066 76.3506 23.8066V27.8066ZM76.2109 27.1104C76.2109 27.1595 76.2029 27.1243 76.2387 27.0489C76.2555 27.0134 76.2768 26.9803 76.2998 26.9525C76.3225 26.9251 76.3405 26.9105 76.3461 26.9062L78.7574 30.0977C79.7426 29.3533 80.2109 28.2739 80.2109 27.1104H76.2109ZM76.3461 26.9062C76.3688 26.8891 76.2419 27 75.7354 27V31C76.7717 31 77.8558 30.7789 78.7574 30.0977L76.3461 26.9062ZM75.7354 27H72.6738V31H75.7354V27ZM72.6738 27C72.5802 27 72.5371 26.9863 72.526 26.9823C72.5175 26.9792 72.5073 26.9751 72.4871 26.9573L69.843 29.9587C70.6523 30.6717 71.6386 31 72.6738 31V27ZM72.505 26.9732C72.4984 26.9673 72.5029 26.9703 72.5126 26.9835C72.5227 26.9972 72.5344 27.0164 72.5446 27.0396C72.5549 27.0629 72.5605 27.0829 72.5632 27.0962C72.5657 27.1091 72.5645 27.11 72.5645 27.0957H68.5645C68.5645 28.1996 68.9978 29.1962 69.8251 29.9428L72.505 26.9732ZM72.5645 27.0957C72.5645 27.1788 72.5515 27.1633 72.5956 27.0026C72.6358 26.8562 72.7074 26.6462 72.824 26.3631L69.1253 24.8401C68.8412 25.5299 68.5645 26.3414 68.5645 27.0957H72.5645ZM72.8292 26.3502L74.1183 23.1568L70.4091 21.6596L69.12 24.8529L72.8292 26.3502ZM74.113 23.1697C74.2818 22.7597 74.4552 22.2418 74.4811 21.6977L70.4857 21.5074C70.4878 21.4621 70.4925 21.4329 70.4942 21.423C70.496 21.4127 70.4961 21.415 70.4916 21.4315C70.482 21.4668 70.4596 21.5367 70.4143 21.6467L74.113 23.1697ZM74.4817 21.6858C74.5213 20.7337 74.0752 19.9545 73.4488 19.4475L70.932 22.5564C70.849 22.4892 70.7207 22.3599 70.6199 22.1535C70.5154 21.9392 70.477 21.7156 70.4851 21.5193L74.4817 21.6858ZM73.4857 19.4781C72.8542 18.9413 72.1077 18.7529 71.4287 18.7529V22.7529C71.4089 22.7529 71.3365 22.7503 71.232 22.7162C71.1226 22.6804 71.0038 22.6182 70.8951 22.5258L73.4857 19.4781ZM71.4287 18.7529C69.161 18.7529 67.8519 20.5293 67.1443 22.2704L70.8499 23.7765C71.0957 23.1718 71.3142 22.8918 71.4314 22.7824C71.4818 22.7352 71.4991 22.7331 71.4802 22.741C71.4718 22.7445 71.4607 22.748 71.4486 22.7504C71.4429 22.7516 71.438 22.7522 71.4343 22.7526C71.4306 22.7529 71.4286 22.7529 71.4287 22.7529V18.7529ZM67.1446 22.2697L65.416 26.5177L69.1211 28.0253L70.8496 23.7772L67.1446 22.2697ZM65.4126 26.5263C65.2323 26.9753 65.0735 27.1417 65.0195 27.1868C64.9973 27.2054 64.9921 27.2046 65.0003 27.2017C65.0079 27.1989 64.9974 27.2051 64.9541 27.2051V31.2051C65.9253 31.2051 66.8308 30.8858 67.584 30.2565C68.3015 29.6571 68.7873 28.8567 69.1245 28.0167L65.4126 26.5263ZM64.9541 27.2051C64.9478 27.2051 64.9834 27.2046 65.0429 27.2258C65.1047 27.2478 65.1579 27.281 65.1946 27.3128L62.5749 30.3356C63.2629 30.9318 64.0962 31.2051 64.9541 31.2051V27.2051ZM65.1946 27.3128C65.2336 27.3466 65.3067 27.4238 65.3661 27.5505C65.4266 27.6796 65.4453 27.8013 65.4453 27.8867H61.4453C61.4453 28.8668 61.866 29.7212 62.5749 30.3356L65.1946 27.3128ZM65.4453 27.8867C65.4453 27.9374 65.4385 27.9456 65.4492 27.9008C65.4597 27.8571 65.4828 27.7795 65.53 27.6644L61.8294 26.1462C61.6194 26.6579 61.4453 27.2558 61.4453 27.8867H65.4453ZM65.5319 27.6599L65.693 27.2644L61.9886 25.7552L61.8275 26.1507L65.5319 27.6599ZM65.6942 27.2615L68.6531 19.9666L64.9465 18.4631L61.9875 25.758L65.6942 27.2615ZM68.6554 19.9609C68.7435 19.7419 68.8009 19.7287 68.751 19.7651C68.7282 19.7817 68.7038 19.7926 68.6884 19.7973C68.6756 19.8011 68.6911 19.7939 68.748 19.7939V15.7939C67.9281 15.7939 67.1083 16.0123 66.394 16.5333C65.6947 17.0433 65.237 17.7405 64.9442 18.4688L68.6554 19.9609ZM68.748 19.7939C68.7891 19.7939 68.7942 19.7985 68.7729 19.793C68.7495 19.787 68.7093 19.7727 68.6632 19.7442C68.6169 19.7155 68.5833 19.6841 68.5631 19.6607C68.5443 19.6389 68.5462 19.6347 68.5601 19.6632L72.1587 17.9168C71.8604 17.3022 71.4091 16.739 70.7665 16.3418C70.1261 15.9459 69.4239 15.7939 68.748 15.7939V19.7939ZM71.5759 20.3775C72.4052 19.742 72.9831 19.5889 73.3477 19.5889V15.5889C71.8177 15.5889 70.4034 16.2366 69.1428 17.2026L71.5759 20.3775ZM73.3477 19.5889C73.8571 19.5889 74.1182 19.7231 74.2925 19.8774L76.9438 16.8824C75.9267 15.9819 74.6741 15.5889 73.3477 15.5889V19.5889ZM74.2925 19.8774C74.4502 20.0171 74.5117 20.1365 74.5117 20.3867H78.5117C78.5117 19.0158 77.9775 17.7974 76.9438 16.8824L74.2925 19.8774ZM74.5117 20.3867C74.5117 20.5199 74.4788 20.7577 74.3325 21.1234L78.0464 22.609C78.3298 21.9005 78.5117 21.152 78.5117 20.3867H74.5117ZM74.3358 21.1151L72.7392 25.0556L76.4464 26.5577L78.0431 22.6173L74.3358 21.1151ZM88.8311 25.8066L86.9777 25.055L85.8617 27.8066H88.8311V25.8066ZM86.2383 28.0625L87.9814 27.082L86.6887 24.7837L84.8241 26.6483L86.2383 28.0625ZM79.7637 27.8867L78.2536 29.1981L78.2585 29.2037L78.2634 29.2093L79.7637 27.8867ZM80.7158 19.8447L79.1973 18.5431L79.1924 18.5489L80.7158 19.8447ZM87.8789 18.8633L86.3381 20.1384L88.4691 22.7134L89.7309 19.6183L87.8789 18.8633ZM91.1455 10.8506L92.9975 11.6056L92.9979 11.6048L91.1455 10.8506ZM94.5439 9.20996L93.1793 10.6721L93.1926 10.6844L93.206 10.6965L94.5439 9.20996ZM94.7637 11.2168L96.5913 12.0291L96.612 11.9824L96.6304 11.9348L94.7637 11.2168ZM94.5879 11.6123L92.7603 10.8L92.7469 10.8301L92.7345 10.8606L94.5879 11.6123ZM85.3594 25.0742L83.5059 24.3228L83.5024 24.3314L85.3594 25.0742ZM86.458 22.3643L84.6086 21.6027L84.6045 21.6128L86.458 22.3643ZM86.2822 20.8555L84.9958 22.3869L85.0106 22.3993L85.0256 22.4114L86.2822 20.8555ZM83.2207 21.8223L81.6449 20.5906L81.6405 20.5963L81.6361 20.602L83.2207 21.8223ZM88.8311 27.8066H90.501V23.8066H88.8311V27.8066ZM90.501 27.8066C90.7006 27.8066 90.8131 27.8248 90.8599 27.8357C90.9064 27.8465 90.8493 27.8411 90.7485 27.7704C90.6349 27.6908 90.5173 27.5637 90.439 27.3991C90.3654 27.2444 90.3613 27.1305 90.3613 27.1104H94.3613C94.3613 26.1348 93.9733 25.1459 93.044 24.4947C92.2445 23.9344 91.2934 23.8066 90.501 23.8066V27.8066ZM90.3613 27.1104C90.3613 27.1595 90.3533 27.1243 90.3891 27.0489C90.4059 27.0134 90.4272 26.9803 90.4502 26.9525C90.4729 26.9251 90.4909 26.9105 90.4965 26.9062L92.9078 30.0977C93.893 29.3533 94.3613 28.2739 94.3613 27.1104H90.3613ZM90.4965 26.9062C90.5192 26.8891 90.3923 27 89.8857 27V31C90.9221 31 92.0062 30.7789 92.9078 30.0977L90.4965 26.9062ZM89.8857 27H87.9082V31H89.8857V27ZM87.9082 27C87.8542 27 87.8329 26.9945 87.8367 26.9953C87.8419 26.9966 87.8657 27.0032 87.8985 27.0217C87.9318 27.0404 87.9588 27.0624 87.9769 27.0811C87.9939 27.0986 87.9934 27.1032 87.9814 27.082L84.4951 29.043C85.2273 30.3446 86.4793 31 87.9082 31V27ZM84.8241 26.6483C84.4789 26.9935 84.2928 27 84.2314 27V31C85.5958 31 86.7477 30.3815 87.6525 29.4767L84.8241 26.6483ZM84.2314 27H82.3711V31H84.2314V27ZM82.3711 27C81.7996 27 81.4996 26.8315 81.2639 26.5641L78.2634 29.2093C79.3363 30.4263 80.7746 31 82.3711 31V27ZM81.2737 26.5753C81.0187 26.2817 80.7969 25.8018 80.7969 24.9277H76.7969C76.7969 26.5146 77.2196 28.0074 78.2536 29.1981L81.2737 26.5753ZM80.7969 24.9277C80.7969 23.5418 81.2517 22.3015 82.2392 21.1406L79.1924 18.5489C77.6214 20.3957 76.7969 22.5441 76.7969 24.9277H80.7969ZM82.2343 21.1463C83.2412 19.9716 84.1692 19.5889 85.0518 19.5889V15.5889C82.7312 15.5889 80.7685 16.71 79.1973 18.5431L82.2343 21.1463ZM85.0518 19.5889C85.6861 19.5889 86.0449 19.7841 86.3381 20.1384L89.4197 17.5881C88.3067 16.2432 86.7807 15.5889 85.0518 15.5889V19.5889ZM89.7309 19.6183L92.9975 11.6056L89.2935 10.0956L86.0269 18.1083L89.7309 19.6183ZM92.9979 11.6048C93.206 11.0936 93.3886 10.8825 93.4669 10.8136C93.4994 10.785 93.5064 10.7871 93.4884 10.794C93.4693 10.8014 93.4595 10.7998 93.4746 10.7998V6.7998C91.2892 6.7998 89.9844 8.39865 89.2932 10.0964L92.9979 11.6048ZM93.4746 10.7998C93.4642 10.7998 93.4128 10.7974 93.3406 10.7697C93.2668 10.7414 93.2114 10.702 93.1793 10.6721L95.9086 7.74785C95.2262 7.11096 94.3744 6.7998 93.4746 6.7998V10.7998ZM93.206 10.6965C93.1659 10.6605 93.0999 10.5859 93.0482 10.4704C92.9963 10.3545 92.9834 10.2522 92.9834 10.1914H96.9834C96.9834 9.22798 96.5919 8.36242 95.8819 7.72337L93.206 10.6965ZM92.9834 10.1914C92.9834 10.1796 92.9841 10.2723 92.897 10.4988L96.6304 11.9348C96.8362 11.3996 96.9834 10.8087 96.9834 10.1914H92.9834ZM92.936 10.4045L92.7603 10.8L96.4155 12.4246L96.5913 12.0291L92.936 10.4045ZM92.7345 10.8606L86.9777 25.055L90.6844 26.5583L96.4413 12.364L92.7345 10.8606ZM83.4697 27.8799H84.0264V23.8799H83.4697V27.8799ZM84.0264 27.8799C84.6215 27.8799 85.2852 27.7614 85.8995 27.3901C86.5363 27.0053 86.9668 26.4408 87.2163 25.817L83.5024 24.3314C83.5161 24.2973 83.5471 24.2338 83.6073 24.1602C83.669 24.0848 83.7458 24.018 83.8305 23.9668C84.0004 23.8641 84.105 23.8799 84.0264 23.8799V27.8799ZM87.2129 25.8256L88.3115 23.1157L84.6045 21.6128L83.5059 24.3228L87.2129 25.8256ZM88.3074 23.1258C88.4616 22.7513 88.6631 22.192 88.6631 21.6025H84.6631C84.6631 21.5601 84.6651 21.5248 84.6675 21.4978C84.6699 21.4706 84.6728 21.4494 84.6751 21.4348C84.6796 21.4067 84.6831 21.3957 84.6806 21.4049C84.6783 21.4134 84.6722 21.4343 84.66 21.4692C84.6479 21.5037 84.6312 21.548 84.6087 21.6028L88.3074 23.1258ZM88.6631 21.6025C88.6631 20.6312 88.2021 19.8352 87.5389 19.2996L85.0256 22.4114C84.9702 22.3667 84.8698 22.2687 84.7861 22.1044C84.6992 21.934 84.6631 21.7562 84.6631 21.6025H88.6631ZM87.5686 19.3241C86.9065 18.7679 86.1198 18.5479 85.3594 18.5479V22.5479C85.3605 22.5479 85.3131 22.5479 85.236 22.5221C85.1548 22.4951 85.0701 22.4492 84.9958 22.3869L87.5686 19.3241ZM85.3594 18.5479C83.7554 18.5479 82.5222 19.4683 81.6449 20.5906L84.7965 23.0539C85.0195 22.7685 85.1863 22.6387 85.2772 22.5845C85.32 22.559 85.3442 22.5513 85.3509 22.5493C85.3566 22.5477 85.3576 22.5479 85.3594 22.5479V18.5479ZM81.6361 20.602C80.7374 21.7689 80.2393 23.1091 80.2393 24.5762H84.2393C84.2393 24.0705 84.3954 23.5748 84.8053 23.0426L81.6361 20.602ZM80.2393 24.5762C80.2393 25.2911 80.4058 26.1992 81.0924 26.9267C81.7995 27.6759 82.7208 27.8799 83.4697 27.8799V23.8799C83.3984 23.8799 83.7044 23.8666 84.0014 24.1812C84.2778 24.4741 84.2393 24.7303 84.2393 24.5762H80.2393ZM102.952 25.8066L101.098 25.0567L99.9857 27.8066H102.952V25.8066ZM105.75 28.502L106.956 30.0977L106.967 30.0893L106.978 30.0807L105.75 28.502ZM100.345 28.0186L102.16 27.1787L101.026 24.7281L99.0123 26.527L100.345 28.0186ZM93.9434 27.8574L92.4181 29.151L92.4269 29.1614L92.4358 29.1717L93.9434 27.8574ZM94.8955 19.8154L93.3904 18.4984L93.3897 18.4991L94.8955 19.8154ZM102.029 18.8926L100.362 19.9977L102.025 22.5052L103.693 20.002L102.029 18.8926ZM105.018 18.2041L103.628 19.6429L103.641 19.6547L103.653 19.6662L105.018 18.2041ZM105.223 20.1963L103.372 19.4372L103.37 19.4417L105.223 20.1963ZM105.062 20.5918L103.209 19.8372L103.207 19.8418L105.062 20.5918ZM99.5977 24.8984L97.7437 24.1483L97.7426 24.1509L99.5977 24.8984ZM100.623 22.3643L98.7737 21.6027L98.7691 21.6141L100.623 22.3643ZM100.433 20.8408L99.2132 22.4261L99.2276 22.4371L99.2422 22.4479L100.433 20.8408ZM102.952 27.8066H104.563V23.8066H102.952V27.8066ZM104.563 27.8066C104.761 27.8066 104.872 27.8245 104.917 27.8351C104.963 27.8456 104.905 27.8398 104.803 27.7686C104.688 27.6884 104.569 27.5602 104.489 27.3932C104.414 27.2361 104.409 27.1192 104.409 27.0957H108.409C108.409 26.1223 108.02 25.1368 107.093 24.4892C106.296 23.9329 105.35 23.8066 104.563 23.8066V27.8066ZM104.409 27.0957C104.409 27.1443 104.401 27.1137 104.433 27.0452C104.448 27.0133 104.467 26.984 104.487 26.9599C104.506 26.9363 104.52 26.9247 104.522 26.9232L106.978 30.0807C107.943 29.3303 108.409 28.2587 108.409 27.0957H104.409ZM104.544 26.9062C104.567 26.8891 104.44 27 103.934 27V31C104.97 31 106.054 30.7789 106.956 30.0977L104.544 26.9062ZM103.934 27H102.059V31H103.934V27ZM102.059 27C101.893 27 101.905 26.9679 101.994 27.0191C102.038 27.0444 102.081 27.079 102.116 27.1178C102.149 27.1554 102.161 27.1811 102.16 27.1787L98.5296 28.8584C98.8378 29.5245 99.3263 30.1008 100.006 30.4902C100.667 30.8686 101.384 31 102.059 31V27ZM99.0123 26.527C98.4882 26.9952 98.2354 27 98.2207 27V31C99.5732 31 100.736 30.3505 101.677 29.5101L99.0123 26.527ZM98.2207 27H96.5508V31H98.2207V27ZM96.5508 27C96.0132 27 95.7088 26.839 95.4509 26.5432L92.4358 29.1717C93.506 30.3993 94.9399 31 96.5508 31V27ZM95.4687 26.5638C95.1858 26.2303 94.9619 25.7174 94.9619 24.8398H90.9619C90.9619 26.4428 91.3923 27.9416 92.4181 29.151L95.4687 26.5638ZM94.9619 24.8398C94.9619 23.472 95.4153 22.2596 96.4013 21.1317L93.3897 18.4991C91.7976 20.3205 90.9619 22.4577 90.9619 24.8398H94.9619ZM96.4007 21.1324C97.4065 19.9829 98.3558 19.5889 99.29 19.5889V15.5889C96.9626 15.5889 94.9822 16.6792 93.3904 18.4984L96.4007 21.1324ZM99.29 19.5889C100.023 19.5889 100.234 19.8041 100.362 19.9977L103.696 17.7875C102.672 16.2427 101.057 15.5889 99.29 15.5889V19.5889ZM103.693 20.002C103.799 19.844 103.865 19.8063 103.869 19.8043C103.872 19.8022 103.874 19.8014 103.879 19.8001C103.885 19.7987 103.906 19.7939 103.948 19.7939V15.7939C102.404 15.7939 101.175 16.5682 100.365 17.7832L103.693 20.002ZM103.948 19.7939C103.949 19.7939 103.899 19.7935 103.822 19.7638C103.741 19.733 103.674 19.6868 103.628 19.6429L106.407 16.7653C105.715 16.0973 104.844 15.7939 103.948 15.7939V19.7939ZM103.653 19.6662C103.617 19.633 103.559 19.5643 103.513 19.4593C103.467 19.3543 103.457 19.2641 103.457 19.2148H107.457C107.457 18.2595 107.08 17.3933 106.382 16.742L103.653 19.6662ZM103.457 19.2148C103.457 19.1642 103.464 19.156 103.453 19.2007C103.443 19.2445 103.42 19.322 103.372 19.4372L107.073 20.9554C107.283 20.4437 107.457 19.8458 107.457 19.2148H103.457ZM103.37 19.4417L103.209 19.8372L106.914 21.3464L107.075 20.9509L103.37 19.4417ZM103.207 19.8418L101.098 25.0567L104.806 26.5566L106.916 21.3418L103.207 19.8418ZM97.6348 27.8799H98.001V23.8799H97.6348V27.8799ZM98.001 27.8799C98.6685 27.8799 99.3896 27.7431 100.048 27.3384C100.725 26.9222 101.182 26.3165 101.453 25.646L97.7426 24.1509C97.7426 24.1509 97.7565 24.117 97.7961 24.0681C97.8374 24.0172 97.8917 23.9686 97.9534 23.9307C98.0796 23.8531 98.1343 23.8799 98.001 23.8799V27.8799ZM101.452 25.6486L102.477 23.1144L98.7691 21.6141L97.7437 24.1483L101.452 25.6486ZM102.472 23.1258C102.656 22.6798 102.828 22.1247 102.828 21.5293H98.8281C98.8281 21.4847 98.8315 21.4536 98.8335 21.4385C98.8356 21.4232 98.837 21.4198 98.8346 21.4294C98.8293 21.451 98.8131 21.5071 98.7737 21.6028L102.472 23.1258ZM102.828 21.5293C102.828 20.4772 102.257 19.7036 101.623 19.2337L99.2422 22.4479C99.2042 22.4198 99.0951 22.3298 98.995 22.1557C98.8875 21.9685 98.8281 21.7484 98.8281 21.5293H102.828ZM101.652 19.2556C101.004 18.7573 100.253 18.5479 99.5098 18.5479V22.5479C99.51 22.5479 99.5001 22.5479 99.4818 22.5452C99.4632 22.5425 99.4374 22.5372 99.4063 22.5273C99.34 22.5063 99.2722 22.4714 99.2132 22.4261L101.652 19.2556ZM99.5098 18.5479C97.9423 18.5479 96.7365 19.4736 95.8769 20.5325L98.9825 23.0535C99.217 22.7646 99.3891 22.6309 99.4823 22.5752C99.5609 22.5281 99.5615 22.5479 99.5098 22.5479V18.5479ZM95.8769 20.5325C94.9747 21.6438 94.4189 22.9352 94.4189 24.3711H98.4189C98.4189 24.0297 98.537 23.6023 98.9825 23.0535L95.8769 20.5325ZM94.4189 24.3711C94.4189 25.0903 94.5553 26.0002 95.1656 26.7576C95.8424 27.5975 96.7931 27.8799 97.6348 27.8799V23.8799C97.6354 23.8799 97.7277 23.8797 97.8673 23.9375C98.0192 24.0003 98.1671 24.1074 98.2802 24.2478C98.4853 24.5022 98.4189 24.6578 98.4189 24.3711H94.4189ZM110.643 21.002V19.002H109.294L108.789 20.2516L110.643 21.002ZM110.145 22.2324L111.995 22.9923L111.998 22.9828L110.145 22.2324ZM107.171 21.3535L105.317 20.6027L105.314 20.6107L107.171 21.3535ZM108.826 17.2666L106.973 16.5143L106.972 16.5158L108.826 17.2666ZM111.858 16.8125L109.915 17.2845L109.918 17.2984L109.922 17.3123L111.858 16.8125ZM111.976 17.2666L113.916 16.7815L113.914 16.7742L113.912 16.7668L111.976 17.2666ZM116.019 21.002V19.002H115.245L114.673 19.5221L116.019 21.002ZM115.857 21.1484L114.512 19.6686L114.494 19.6854L114.475 19.7028L115.857 21.1484ZM117.923 28.502L116.717 26.9062L116.709 26.9128L116.7 26.9194L117.923 28.502ZM110.833 27.9893L109.356 29.3378L109.361 29.3436L109.367 29.3493L110.833 27.9893ZM112.166 21.002L113.656 22.3364L116.643 19.002H112.166V21.002ZM108.789 20.2516L108.291 21.482L111.998 22.9828L112.496 21.7523L108.789 20.2516ZM108.294 21.4726C108.217 21.6614 108.147 21.794 108.091 21.883C108.034 21.9722 108.002 22.0026 108.004 22.0008C108.008 21.9965 108.05 21.9594 108.132 21.9252C108.217 21.8895 108.308 21.873 108.387 21.873V25.873C110.372 25.873 111.455 24.3052 111.995 22.9923L108.294 21.4726ZM108.387 21.873C108.368 21.873 108.4 21.8707 108.46 21.8924C108.524 21.9153 108.583 21.9518 108.626 21.991L105.95 24.9641C106.653 25.5971 107.514 25.873 108.387 25.873V21.873ZM108.626 21.991C108.666 22.027 108.732 22.1016 108.784 22.2171C108.836 22.333 108.849 22.4353 108.849 22.4961H104.849C104.849 23.4595 105.24 24.3251 105.95 24.9641L108.626 21.991ZM108.849 22.4961C108.849 22.5909 108.838 22.647 108.838 22.6477C108.837 22.6526 108.84 22.6334 108.854 22.5849C108.882 22.4853 108.936 22.3264 109.028 22.0963L105.314 20.6107C105.109 21.124 104.849 21.8379 104.849 22.4961H108.849ZM109.025 22.1043L110.68 18.0174L106.972 16.5158L105.317 20.6027L109.025 22.1043ZM110.679 18.0189C110.74 17.8684 110.794 17.7712 110.832 17.7134C110.869 17.6561 110.884 17.6487 110.865 17.6654C110.842 17.6846 110.793 17.7205 110.717 17.7493C110.641 17.7784 110.572 17.7871 110.525 17.7871V13.7871C108.618 13.7871 107.517 15.1754 106.973 16.5143L110.679 18.0189ZM110.525 17.7871C110.574 17.7871 110.398 17.7958 110.181 17.6287C109.958 17.4572 109.911 17.27 109.915 17.2845L113.802 16.3405C113.639 15.6714 113.287 14.9715 112.62 14.4582C111.959 13.9493 111.199 13.7871 110.525 13.7871V17.7871ZM109.922 17.3123L110.039 17.7664L113.912 16.7668L113.795 16.3127L109.922 17.3123ZM110.035 17.7517C110.125 18.1105 110.403 19.0239 111.345 19.4949L113.134 15.9172C113.504 16.1025 113.707 16.3678 113.8 16.5233C113.89 16.6732 113.915 16.7798 113.916 16.7815L110.035 17.7517ZM111.345 19.4949C111.756 19.7003 112.177 19.745 112.341 19.7617C112.579 19.7859 112.841 19.7939 113.104 19.7939V15.7939C113.009 15.7939 112.932 15.7924 112.87 15.79C112.807 15.7875 112.767 15.7844 112.746 15.7822C112.736 15.7812 112.734 15.7808 112.738 15.7815C112.743 15.7822 112.759 15.7846 112.783 15.7899C112.807 15.7951 112.848 15.8049 112.902 15.8221C112.954 15.8387 113.036 15.8681 113.134 15.9172L111.345 19.4949ZM113.104 19.7939H116.531V15.7939H113.104V19.7939ZM116.531 19.7939C116.74 19.7939 116.861 19.8129 116.915 19.8255C116.968 19.838 116.917 19.835 116.821 19.7676C116.712 19.6912 116.599 19.5684 116.523 19.4096C116.453 19.2608 116.45 19.1539 116.45 19.1416H120.45C120.45 18.1531 120.059 17.1534 119.12 16.4942C118.31 15.9255 117.344 15.7939 116.531 15.7939V19.7939ZM116.45 19.1416C116.45 19.2364 116.435 19.2256 116.465 19.1566C116.5 19.0759 116.562 18.9985 116.627 18.9484C116.682 18.9065 116.689 18.922 116.588 18.9477C116.485 18.9741 116.303 19.002 116.019 19.002V23.002C117.028 23.002 118.151 22.8187 119.058 22.1253C120.065 21.3544 120.45 20.235 120.45 19.1416H116.45ZM114.673 19.5221L114.512 19.6686L117.203 22.6283L117.364 22.4818L114.673 19.5221ZM114.475 19.7028C113.646 20.4958 112.953 21.2643 112.454 22.0016C111.983 22.6973 111.528 23.5921 111.528 24.5908H115.528C115.528 24.779 115.461 24.6948 115.767 24.2431C116.045 23.8328 116.516 23.2854 117.239 22.5941L114.475 19.7028ZM111.528 24.5908C111.528 25.3606 111.751 26.289 112.526 26.9877C113.261 27.651 114.166 27.8066 114.876 27.8066V23.8066C114.687 23.8066 114.919 23.7596 115.205 24.0177C115.35 24.1484 115.441 24.3003 115.489 24.4296C115.532 24.5473 115.528 24.6138 115.528 24.5908H111.528ZM114.876 27.8066H116.722V23.8066H114.876V27.8066ZM116.722 27.8066C116.923 27.8066 117.037 27.8247 117.085 27.8359C117.134 27.8471 117.078 27.8424 116.978 27.7728C116.864 27.6943 116.744 27.5669 116.663 27.3988C116.587 27.2403 116.582 27.1213 116.582 27.0957H120.582C120.582 26.1158 120.187 25.1299 119.256 24.485C118.458 23.9322 117.511 23.8066 116.722 23.8066V27.8066ZM116.582 27.0957C116.582 27.1544 116.572 27.1252 116.606 27.0525C116.622 27.0181 116.643 26.9849 116.667 26.9562C116.69 26.9279 116.71 26.9119 116.717 26.9062L119.129 30.0977C120.123 29.3464 120.582 28.2564 120.582 27.0957H116.582ZM116.7 26.9194C116.745 26.8847 116.633 27 116.106 27V31C117.142 31 118.241 30.7833 119.146 30.0845L116.7 26.9194ZM116.106 27H113.235V31H116.106V27ZM113.235 27C112.776 27 112.52 26.8672 112.299 26.6292L109.367 29.3493C110.396 30.459 111.741 31 113.235 31V27ZM112.31 26.6407C112.09 26.3994 111.91 26.0363 111.91 25.3672H107.91C107.91 26.8465 108.346 28.2315 109.356 29.3378L112.31 26.6407ZM111.91 25.3672C111.91 25.0215 111.991 24.6698 112.186 24.2909L108.63 22.4591C108.161 23.3692 107.91 24.3457 107.91 25.3672H111.91ZM112.186 24.2909C112.404 23.8688 112.859 23.2255 113.656 22.3364L110.676 19.6675C109.793 20.6534 109.077 21.5921 108.63 22.4591L112.186 24.2909ZM112.166 19.002H110.643V23.002H112.166V19.002Z" fill="black" mask="url(#path-2-outside-1_96_429)"/>
</svg>
