<svg width="133" height="48" viewBox="0 0 133 48" fill="none" xmlns="http://www.w3.org/2000/svg">
<rect x="1" y="1" width="131" height="46" rx="22" fill="#D6DFFF" stroke="black" stroke-width="2"/>
<mask id="path-2-outside-1_96_429" maskUnits="userSpaceOnUse" x="5" y="6" width="123" height="37" fill="black">
<rect fill="white" x="5" y="6" width="123" height="37"/>
<path d="M35.3867 25.499H37.7598C39.1172 25.499 39.7959 25.9629 39.7959 26.8906C39.7959 27.5547 39.5566 28.0723 39.0781 28.4434C38.6094 28.8145 37.9453 29 37.0859 29H34.3027C33.2871 29 32.501 28.79 31.9443 28.3701C31.3975 27.9404 31.124 27.3301 31.124 26.5391C31.124 26.0312 31.3291 25.2891 31.7393 24.3125L35.5039 15.4941L32.6768 18.5264C32.0029 19.2588 31.3633 19.625 30.7578 19.625C29.9668 19.625 29.4541 19.083 29.2197 17.999L28.8096 16.1826L25.2354 25.001C24.0049 28.0283 23.0674 30.084 22.4229 31.168C21.7783 32.2617 20.9434 33.209 19.918 34.0098C18.4336 35.1621 16.7295 35.7383 14.8057 35.7383C12.7549 35.7383 11.0898 35.0889 9.81055 33.79C8.53125 32.501 7.8916 30.8164 7.8916 28.7363C7.8916 26.0117 8.89746 23.6143 10.9092 21.5439C11.9932 20.4404 13.3457 19.5518 14.9668 18.8779C16.5879 18.1943 18.1846 17.8525 19.7568 17.8525C20.5576 17.8525 21.1973 18.0234 21.6758 18.3652C22.1543 18.707 22.3936 19.1611 22.3936 19.7275C22.3936 20.3232 22.1396 20.8066 21.6318 21.1777C21.3389 21.3926 20.7725 21.5391 19.9326 21.6172C17.9893 21.793 16.4219 22.2373 15.2305 22.9502C14.2441 23.5459 13.458 24.3223 12.8721 25.2793C12.2959 26.2363 12.0078 27.2373 12.0078 28.2822C12.0078 29.3955 12.291 30.2695 12.8574 30.9043C13.4238 31.5488 14.2002 31.8711 15.1865 31.8711C16.3682 31.8711 17.3936 31.3633 18.2627 30.3477C19.1416 29.3418 20.1035 27.5596 21.1484 25.001L26.9639 10.6895C27.4717 9.42969 28.1553 8.7998 29.0146 8.7998C29.5615 8.7998 29.9912 8.97559 30.3037 9.32715C30.626 9.67871 30.9043 10.2939 31.1387 11.1729L32.0322 14.542L36.4268 10.2207C37.3936 9.27344 38.2969 8.7998 39.1367 8.7998C39.7227 8.7998 40.2158 8.98047 40.6162 9.3418C41.0264 9.69336 41.2314 10.123 41.2314 10.6309C41.2314 10.9531 41.1533 11.3047 40.9971 11.6855L40.6602 12.5059L35.3867 25.499ZM49.7715 29.6006H51.4707C52.7109 29.6006 53.3311 30.0352 53.3311 30.9043C53.3311 31.5 53.1113 31.9639 52.6719 32.2959C52.2422 32.6279 51.6367 32.7939 50.8555 32.7939H48.4824C48.1992 33.6338 47.6865 34.7471 46.9443 36.1338C45.6553 38.5752 43.7803 39.7959 41.3193 39.7959C39.8252 39.7959 38.5703 39.3271 37.5547 38.3896C36.5391 37.4521 36.0312 36.29 36.0312 34.9033C36.0312 33.9365 36.3096 33.0332 36.8662 32.1934C37.4131 31.3633 38.1357 30.7383 39.0342 30.3184C40.0693 29.8398 41.5977 29.6006 43.6191 29.6006H46.0068L46.4316 28.5459C45.709 28.8486 45.0449 29 44.4395 29C43.3945 29 42.5449 28.7363 41.8906 28.209C41.2461 27.6719 40.9238 26.9785 40.9238 26.1289C40.9238 25.6113 41.1338 24.835 41.5537 23.7998L43.1504 19.8594L43.3115 19.4492C43.7803 18.3457 44.5078 17.7939 45.4941 17.7939C45.9238 17.7939 46.2803 17.9307 46.5635 18.2041C46.8564 18.4775 47.0029 18.8242 47.0029 19.2441C47.0029 19.5273 46.876 19.9863 46.6221 20.6211L45.1865 24.1221C44.9619 24.6885 44.8447 25.0547 44.835 25.2207C44.8057 25.6992 45.1084 25.9385 45.7432 25.9385C46.1924 25.9385 46.6514 25.8066 47.1201 25.543C47.5889 25.2793 47.8867 24.9814 48.0137 24.6494L49.9766 19.8594L50.123 19.4492C50.582 18.3457 51.3096 17.7939 52.3057 17.7939C52.7354 17.7939 53.0918 17.9355 53.375 18.2188C53.668 18.4922 53.8145 18.834 53.8145 19.2441C53.8145 19.5273 53.7412 19.8545 53.5947 20.2256L53.4189 20.6211L49.7715 29.6006ZM44.9814 32.7939H42.9307C40.6846 32.7939 39.5615 33.4971 39.5615 34.9033C39.5615 35.4014 39.7178 35.8018 40.0303 36.1045C40.333 36.4072 40.7432 36.5586 41.2607 36.5586C41.9736 36.5586 42.6035 36.2803 43.1504 35.7236C43.707 35.167 44.3174 34.1904 44.9814 32.7939ZM76.4756 12.5059H75.0254H74.6299C73.5459 12.5059 73.0039 12.0371 73.0039 11.0996C73.0039 10.5039 73.2236 10.0059 73.6631 9.60547C74.1123 9.20508 74.6592 9.00488 75.3037 9.00488H75.6992H79.9912C82.8623 9.00488 85.0645 9.68848 86.5977 11.0557C88.1309 12.4229 88.8975 14.3906 88.8975 16.959C88.8975 20.875 87.5938 24.4639 84.9863 27.7256C83.5117 29.5615 81.8418 30.8994 79.9766 31.7393C78.1211 32.5791 75.8945 32.999 73.2969 32.999H72.2715L72.0957 33.4092C71.4121 34.9326 70.875 36.002 70.4844 36.6172C70.0938 37.2324 69.5859 37.8281 68.9609 38.4043C67.3301 39.8984 65.46 40.6455 63.3506 40.6455C61.6123 40.6455 60.1865 40.1279 59.0732 39.0928C57.9502 38.0674 57.3887 36.7588 57.3887 35.167C57.3887 34.1904 57.6279 33.2725 58.1064 32.4131C58.585 31.5635 59.2344 30.8994 60.0547 30.4209C61.1191 29.8057 62.5596 29.498 64.376 29.498H69.5762L76.4756 12.5059ZM73.6924 29.498H74.2783C77.3057 29.498 79.8398 28.1553 81.8809 25.4697C82.8672 24.1807 83.6436 22.7842 84.21 21.2803C84.7861 19.7764 85.0742 18.3848 85.0742 17.1055C85.0742 15.6797 84.6738 14.5566 83.873 13.7363C83.0723 12.916 81.9834 12.5059 80.6064 12.5059L73.6924 29.498ZM68.1553 32.999H64.2734C62.3594 32.999 61.4023 33.6777 61.4023 35.0352C61.4023 35.5918 61.6123 36.0605 62.0322 36.4414C62.4521 36.8223 62.9648 37.0127 63.5703 37.0127C64.4688 37.0127 65.3232 36.6562 66.1338 35.9434C66.9443 35.2402 67.6182 34.2588 68.1553 32.999ZM99.1953 25.8066H100.807C102.037 25.8066 102.652 26.2363 102.652 27.0957C102.652 27.6914 102.433 28.1602 101.993 28.502C101.554 28.834 100.948 29 100.177 29H98.3018C97.4619 29 96.8906 28.6729 96.5879 28.0186C95.8555 28.6729 95.1475 29 94.4639 29H92.7939C91.7197 29 90.8506 28.6191 90.1865 27.8574C89.5322 27.0859 89.2051 26.0801 89.2051 24.8398C89.2051 22.9648 89.8496 21.29 91.1387 19.8154C92.4375 18.3311 93.9023 17.5889 95.5332 17.5889C96.7832 17.5889 97.6963 18.0234 98.2725 18.8926C98.7607 18.1602 99.4004 17.7939 100.191 17.7939C100.621 17.7939 100.978 17.9307 101.261 18.2041C101.554 18.4775 101.7 18.8145 101.7 19.2148C101.7 19.4883 101.622 19.8154 101.466 20.1963L101.305 20.5918L99.1953 25.8066ZM93.8779 25.8799H94.2441C95.0449 25.8799 95.5771 25.5527 95.8408 24.8984L96.8662 22.3643C97.0029 22.0322 97.0713 21.7539 97.0713 21.5293C97.0713 21.2656 96.9395 21.0361 96.6758 20.8408C96.4219 20.6455 96.1143 20.5479 95.7529 20.5479C95.04 20.5479 94.3467 20.9629 93.6729 21.793C92.999 22.623 92.6621 23.4824 92.6621 24.3711C92.6621 25.377 93.0674 25.8799 93.8779 25.8799ZM110.548 17.7939H111.002C112.242 17.7939 112.862 18.2285 112.862 19.0977C112.862 19.6934 112.643 20.1572 112.203 20.4893C111.764 20.8213 111.158 20.9873 110.387 20.9873H109.317L107.354 25.8066H108.995C110.235 25.8066 110.855 26.2412 110.855 27.1104C110.855 27.7061 110.636 28.1699 110.196 28.502C109.767 28.834 109.161 29 108.38 29H105.758C105.016 29 104.425 28.8291 103.985 28.4873C103.556 28.1455 103.341 27.6816 103.341 27.0957C103.341 26.7344 103.429 26.334 103.604 25.8945L103.883 25.25L105.611 20.9873H105.392C104.298 20.9873 103.751 20.5625 103.751 19.7129C103.751 19.1074 103.966 18.6387 104.396 18.3066C104.835 17.9648 105.445 17.7939 106.227 17.7939H106.9L107.677 15.875L107.838 15.4795C108.297 14.3955 109.02 13.8535 110.006 13.8535C110.406 13.8535 110.748 13.9902 111.031 14.2637C111.324 14.5273 111.471 14.8496 111.471 15.2305C111.471 15.6016 111.344 16.0703 111.09 16.6367L110.548 17.7939ZM122.252 25.8066H123.863C125.094 25.8066 125.709 26.2363 125.709 27.0957C125.709 27.6914 125.489 28.1602 125.05 28.502C124.61 28.834 124.005 29 123.233 29H121.358C120.519 29 119.947 28.6729 119.645 28.0186C118.912 28.6729 118.204 29 117.521 29H115.851C114.776 29 113.907 28.6191 113.243 27.8574C112.589 27.0859 112.262 26.0801 112.262 24.8398C112.262 22.9648 112.906 21.29 114.195 19.8154C115.494 18.3311 116.959 17.5889 118.59 17.5889C119.84 17.5889 120.753 18.0234 121.329 18.8926C121.817 18.1602 122.457 17.7939 123.248 17.7939C123.678 17.7939 124.034 17.9307 124.317 18.2041C124.61 18.4775 124.757 18.8145 124.757 19.2148C124.757 19.4883 124.679 19.8154 124.522 20.1963L124.361 20.5918L122.252 25.8066ZM116.935 25.8799H117.301C118.102 25.8799 118.634 25.5527 118.897 24.8984L119.923 22.3643C120.06 22.0322 120.128 21.7539 120.128 21.5293C120.128 21.2656 119.996 21.0361 119.732 20.8408C119.479 20.6455 119.171 20.5479 118.81 20.5479C118.097 20.5479 117.403 20.9629 116.729 21.793C116.056 22.623 115.719 23.4824 115.719 24.3711C115.719 25.377 116.124 25.8799 116.935 25.8799Z"/>
</mask>
<path d="M35.3867 25.499L33.5335 24.7469L32.4165 27.499H35.3867V25.499ZM39.0781 28.4434L37.8525 26.8629L37.8446 26.8691L37.8367 26.8753L39.0781 28.4434ZM31.9443 28.3701L30.7087 29.9428L30.7242 29.9549L30.7399 29.9667L31.9443 28.3701ZM31.7393 24.3125L29.8998 23.5272L29.8953 23.538L31.7393 24.3125ZM35.5039 15.4941L37.3433 16.2794L34.0411 14.1303L35.5039 15.4941ZM32.6768 18.5264L31.2139 17.1625L31.2049 17.1723L32.6768 18.5264ZM29.2197 17.999L31.1746 17.5764L31.1726 17.5674L31.1706 17.5585L29.2197 17.999ZM28.8096 16.1826L30.7605 15.7421L29.3542 9.51451L26.956 15.4313L28.8096 16.1826ZM25.2354 25.001L27.0882 25.7541L27.0889 25.7522L25.2354 25.001ZM22.4229 31.168L20.7038 30.1458L20.6998 30.1526L22.4229 31.168ZM19.918 34.0098L21.1444 35.5896L21.149 35.586L19.918 34.0098ZM9.81055 33.79L11.2354 32.3866L11.2301 32.3812L9.81055 33.79ZM10.9092 21.5439L9.48238 20.1424L9.47481 20.1502L10.9092 21.5439ZM14.9668 18.8779L15.7345 20.7248L15.7439 20.7208L14.9668 18.8779ZM21.6318 21.1777L20.4518 19.5629L20.4491 19.5649L21.6318 21.1777ZM19.9326 21.6172L20.1128 23.6091L20.1179 23.6086L19.9326 21.6172ZM15.2305 22.9502L14.2035 21.234L14.1965 21.2382L15.2305 22.9502ZM12.8721 25.2793L11.1664 24.235L11.1625 24.2413L11.1586 24.2477L12.8721 25.2793ZM12.8574 30.9043L14.3598 29.5841L14.3547 29.5784L14.3497 29.5727L12.8574 30.9043ZM18.2627 30.3477L16.7566 29.0317L16.7499 29.0394L16.7432 29.0473L18.2627 30.3477ZM21.1484 25.001L23 25.7571L23.0013 25.7539L21.1484 25.001ZM26.9639 10.6895L28.8167 11.4424L28.8188 11.4372L26.9639 10.6895ZM30.3037 9.32715L28.8089 10.6559L28.8191 10.6673L28.8294 10.6786L30.3037 9.32715ZM31.1387 11.1729L33.0718 10.6601L33.0711 10.6575L31.1387 11.1729ZM32.0322 14.542L30.0991 15.0547L30.9811 18.3805L33.4345 15.968L32.0322 14.542ZM36.4268 10.2207L35.027 8.79213L35.0245 8.79466L36.4268 10.2207ZM40.6162 9.3418L39.2763 10.8266L39.2952 10.8437L39.3146 10.8603L40.6162 9.3418ZM40.9971 11.6855L42.8471 12.4454L42.8474 12.4447L40.9971 11.6855ZM40.6602 12.5059L38.8101 11.746L38.807 11.7537L40.6602 12.5059ZM35.3867 27.499H37.7598V23.499H35.3867V27.499ZM37.7598 27.499C37.9916 27.499 38.1334 27.5194 38.2063 27.536C38.2794 27.5527 38.2436 27.5564 38.1583 27.4981C38.06 27.4309 37.9478 27.3158 37.871 27.1585C37.7988 27.0105 37.7959 26.9029 37.7959 26.8906H41.7959C41.7959 25.8652 41.377 24.8529 40.4154 24.1957C39.5905 23.632 38.604 23.499 37.7598 23.499V27.499ZM37.7959 26.8906C37.7959 26.9366 37.7918 26.9597 37.7908 26.9643C37.79 26.9681 37.7919 26.9574 37.801 26.9377C37.8104 26.9175 37.8228 26.8976 37.8363 26.8809C37.8494 26.8647 37.8572 26.8593 37.8525 26.8629L40.3038 30.0238C41.3225 29.2337 41.7959 28.1043 41.7959 26.8906H37.7959ZM37.8367 26.8753C37.8365 26.8754 37.8346 26.8769 37.8303 26.8796C37.826 26.8823 37.8188 26.8866 37.8079 26.8919C37.7862 26.9025 37.7487 26.9183 37.6903 26.9346C37.5703 26.9681 37.3764 27 37.0859 27V31C38.2042 31 39.3719 30.7617 40.3195 30.0115L37.8367 26.8753ZM37.0859 27H34.3027V31H37.0859V27ZM34.3027 27C33.5308 27 33.2319 26.8362 33.1488 26.7735L30.7399 29.9667C31.77 30.7439 33.0434 31 34.3027 31V27ZM33.18 26.7975C33.1703 26.7899 33.1643 26.7843 33.1608 26.7809C33.1575 26.7775 33.156 26.7757 33.1558 26.7754C33.1556 26.7751 33.1557 26.7753 33.1558 26.7755C33.156 26.7758 33.1554 26.7749 33.1543 26.7724C33.1519 26.7671 33.124 26.7036 33.124 26.5391H29.124C29.124 27.8483 29.6088 29.0785 30.7087 29.9428L33.18 26.7975ZM33.124 26.5391C33.124 26.5432 33.1239 26.5122 33.1361 26.4381C33.148 26.3653 33.1694 26.2651 33.2056 26.1342C33.2787 25.8695 33.3999 25.5235 33.5832 25.087L29.8953 23.538C29.4697 24.5513 29.124 25.6067 29.124 26.5391H33.124ZM33.5787 25.0978L37.3433 16.2794L33.6645 14.7089L29.8999 23.5272L33.5787 25.0978ZM34.0411 14.1303L31.2139 17.1625L34.1396 19.8902L36.9667 16.858L34.0411 14.1303ZM31.2049 17.1723C30.9616 17.4367 30.7898 17.5621 30.6979 17.6147C30.6152 17.6621 30.6435 17.625 30.7578 17.625V21.625C32.1945 21.625 33.331 20.7692 34.1486 19.8805L31.2049 17.1723ZM30.7578 17.625C30.7919 17.625 30.8765 17.6317 30.9845 17.6766C31.0951 17.7226 31.1796 17.7876 31.233 17.8441C31.2814 17.8953 31.2849 17.9185 31.265 17.8754C31.2447 17.8312 31.2094 17.7376 31.1746 17.5764L27.2649 18.4217C27.4243 19.1587 27.726 19.9574 28.3271 20.5929C28.986 21.2894 29.8497 21.625 30.7578 21.625V17.625ZM31.1706 17.5585L30.7605 15.7421L26.8587 16.6231L27.2688 18.4395L31.1706 17.5585ZM26.956 15.4313L23.3818 24.2497L27.0889 25.7522L30.6631 16.9339L26.956 15.4313ZM23.3825 24.2479C22.1488 27.2833 21.2616 29.2077 20.7038 30.1458L24.1419 32.1901C24.8732 30.9602 25.861 28.7734 27.0882 25.7541L23.3825 24.2479ZM20.6998 30.1526C20.1858 31.0248 19.5196 31.7832 18.687 32.4335L21.149 35.586C22.3671 34.6347 23.3708 33.4987 24.1459 32.1834L20.6998 30.1526ZM18.6915 32.4299C17.5669 33.303 16.2968 33.7383 14.8057 33.7383V37.7383C17.1622 37.7383 19.3003 37.0212 21.1444 35.5896L18.6915 32.4299ZM14.8057 33.7383C13.2174 33.7383 12.0904 33.2546 11.2354 32.3866L8.38566 35.1935C10.0893 36.9232 12.2924 37.7383 14.8057 37.7383V33.7383ZM11.2301 32.3812C10.3774 31.522 9.8916 30.3718 9.8916 28.7363H5.8916C5.8916 31.261 6.68512 33.48 8.39097 35.1989L11.2301 32.3812ZM9.8916 28.7363C9.8916 26.5655 10.6707 24.6593 12.3435 22.9377L9.47481 20.1502C7.12423 22.5692 5.8916 25.458 5.8916 28.7363H9.8916ZM12.336 22.9455C13.2086 22.0571 14.3274 21.3096 15.7344 20.7247L14.1991 17.0311C12.364 17.7939 10.7777 18.8237 9.4824 20.1424L12.336 22.9455ZM15.7439 20.7208C17.1483 20.1286 18.4815 19.8525 19.7568 19.8525V15.8525C17.8876 15.8525 16.0275 16.2601 14.1897 17.0351L15.7439 20.7208ZM19.7568 19.8525C20.2886 19.8525 20.4772 19.9669 20.5133 19.9927L22.8383 16.7378C21.9174 16.08 20.8267 15.8525 19.7568 15.8525V19.8525ZM20.5133 19.9927C20.5359 20.0089 20.4903 19.981 20.4447 19.8944C20.4236 19.8544 20.4096 19.8147 20.4015 19.7803C20.3936 19.7467 20.3936 19.7274 20.3936 19.7275H24.3936C24.3936 18.4866 23.8186 17.438 22.8383 16.7378L20.5133 19.9927ZM20.3936 19.7275C20.3936 19.7337 20.393 19.7212 20.3991 19.6952C20.4054 19.6685 20.4164 19.6375 20.4325 19.6068C20.4485 19.5765 20.464 19.5566 20.4722 19.5475C20.4796 19.5391 20.4758 19.5454 20.4518 19.563L22.8119 22.7925C23.8013 22.0695 24.3936 21.0022 24.3936 19.7275H20.3936ZM20.4491 19.5649C20.4921 19.5334 20.5269 19.5127 20.549 19.5007C20.5711 19.4885 20.5843 19.483 20.5857 19.4824C20.5864 19.4821 20.557 19.4942 20.4865 19.5124C20.3411 19.5501 20.103 19.5927 19.7474 19.6258L20.1179 23.6086C20.6021 23.5635 21.0671 23.4939 21.4881 23.385C21.8853 23.2823 22.3766 23.1118 22.8146 22.7905L20.4491 19.5649ZM19.7524 19.6253C17.6233 19.8179 15.7356 20.3173 14.2035 21.234L16.2574 24.6664C17.1082 24.1573 18.3552 23.768 20.1128 23.6091L19.7524 19.6253ZM14.1965 21.2382C12.9437 21.9949 11.9241 22.9973 11.1664 24.235L14.5778 26.3236C14.9919 25.6472 15.5446 25.0969 16.2644 24.6622L14.1965 21.2382ZM11.1586 24.2477C10.4084 25.4938 10.0078 26.8486 10.0078 28.2822H14.0078C14.0078 27.626 14.1834 26.9788 14.5855 26.3109L11.1586 24.2477ZM10.0078 28.2822C10.0078 29.7317 10.3815 31.1335 11.3651 32.2359L14.3497 29.5727C14.2006 29.4056 14.0078 29.0593 14.0078 28.2822H10.0078ZM11.3551 32.2245C12.3599 33.3679 13.7202 33.8711 15.1865 33.8711V29.8711C14.6802 29.8711 14.4878 29.7297 14.3598 29.5841L11.3551 32.2245ZM15.1865 33.8711C17.0332 33.8711 18.5889 33.0425 19.7822 31.648L16.7432 29.0473C16.1982 29.6841 15.7031 29.8711 15.1865 29.8711V33.8711ZM19.7688 31.6636C20.8781 30.394 21.9412 28.3498 23 25.7571L19.2969 24.2448C18.2659 26.7694 17.4051 28.2896 16.7566 29.0317L19.7688 31.6636ZM23.0013 25.7539L28.8167 11.4424L25.111 9.93655L19.2956 24.2481L23.0013 25.7539ZM28.8188 11.4372C29.009 10.9655 29.1658 10.7862 29.2127 10.743C29.2283 10.7287 29.211 10.7483 29.159 10.7696C29.1043 10.7919 29.0507 10.7998 29.0146 10.7998V6.7998C26.9103 6.7998 25.7209 8.42343 25.1089 9.94172L28.8188 11.4372ZM29.0146 10.7998C29.0738 10.7998 29.0541 10.809 28.9898 10.7827C28.9583 10.7699 28.9235 10.7513 28.8889 10.7268C28.8545 10.7023 28.8278 10.6772 28.8089 10.6559L31.7985 7.99842C31.0434 7.14891 30.0304 6.7998 29.0146 6.7998V10.7998ZM28.8294 10.6786C28.8015 10.6481 28.8468 10.6885 28.9319 10.8766C29.0135 11.0569 29.1082 11.3208 29.2062 11.6882L33.0711 10.6575C32.8161 9.70123 32.4378 8.69545 31.778 7.9757L28.8294 10.6786ZM29.2055 11.6856L30.0991 15.0547L33.9654 14.0293L33.0718 10.6601L29.2055 11.6856ZM33.4345 15.968L37.829 11.6468L35.0245 8.79466L30.6299 13.1159L33.4345 15.968ZM37.8265 11.6493C38.6381 10.854 39.0623 10.7998 39.1367 10.7998V6.7998C37.5314 6.7998 36.149 7.69286 35.027 8.79213L37.8265 11.6493ZM39.1367 10.7998C39.222 10.7998 39.2559 10.8124 39.2581 10.8133C39.2604 10.8141 39.2609 10.8144 39.2613 10.8147C39.2618 10.815 39.2668 10.818 39.2763 10.8266L41.9561 7.85701C41.1552 7.13419 40.1712 6.7998 39.1367 6.7998V10.7998ZM39.3146 10.8603C39.3364 10.879 39.3054 10.8578 39.2727 10.7892C39.2573 10.757 39.2461 10.7236 39.2392 10.692C39.2324 10.6609 39.2314 10.6393 39.2314 10.6309H43.2314C43.2314 9.49812 42.7391 8.52724 41.9178 7.82328L39.3146 10.8603ZM39.2314 10.6309C39.2314 10.6302 39.2315 10.6526 39.2205 10.7024C39.2093 10.7526 39.1876 10.8267 39.1467 10.9264L42.8474 12.4447C43.0762 11.887 43.2314 11.2748 43.2314 10.6309H39.2314ZM39.147 10.9257L38.8101 11.746L42.5102 13.2657L42.8471 12.4454L39.147 10.9257ZM38.807 11.7537L33.5335 24.7469L37.2399 26.2512L42.5133 13.258L38.807 11.7537ZM49.7715 29.6006L47.9185 28.8479L46.8004 31.6006H49.7715V29.6006ZM52.6719 32.2959L51.4662 30.7002L51.4576 30.7067L51.449 30.7133L52.6719 32.2959ZM48.4824 32.7939V30.7939H47.0462L46.5873 32.1549L48.4824 32.7939ZM46.9443 36.1338L45.181 35.19L45.1757 35.2L46.9443 36.1338ZM37.5547 38.3896L36.1981 39.8593L37.5547 38.3896ZM36.8662 32.1934L38.5333 33.2983L38.5363 33.2937L36.8662 32.1934ZM39.0342 30.3184L38.195 28.5029L38.1873 28.5065L39.0342 30.3184ZM46.0068 29.6006V31.6006H47.3574L47.862 30.3478L46.0068 29.6006ZM46.4316 28.5459L48.2868 29.2931L50.0761 24.8508L45.6589 26.7012L46.4316 28.5459ZM41.8906 28.209L40.6103 29.7454L40.6228 29.7559L40.6356 29.7662L41.8906 28.209ZM41.5537 23.7998L43.407 24.5516L43.4073 24.5509L41.5537 23.7998ZM43.1504 19.8594L45.004 20.6105L45.008 20.6006L45.0119 20.5907L43.1504 19.8594ZM43.3115 19.4492L41.4707 18.6673L41.46 18.6925L41.45 18.7179L43.3115 19.4492ZM46.5635 18.2041L45.1743 19.6429L45.1865 19.6547L45.1988 19.6662L46.5635 18.2041ZM46.6221 20.6211L48.4725 21.3799L48.4758 21.3719L48.479 21.3639L46.6221 20.6211ZM45.1865 24.1221L43.336 23.3633L43.3316 23.374L43.3274 23.3848L45.1865 24.1221ZM44.835 25.2207L46.8312 25.3429L46.8315 25.3381L44.835 25.2207ZM48.0137 24.6494L46.163 23.891L46.154 23.913L46.1456 23.9351L48.0137 24.6494ZM49.9766 19.8594L51.8272 20.6177L51.8446 20.5753L51.86 20.532L49.9766 19.8594ZM50.123 19.4492L48.2764 18.6811L48.2568 18.7284L48.2396 18.7765L50.123 19.4492ZM53.375 18.2188L51.9608 19.633L51.9852 19.6573L52.0104 19.6809L53.375 18.2188ZM53.5947 20.2256L55.4223 21.0379L55.4395 20.9992L55.455 20.9599L53.5947 20.2256ZM53.4189 20.6211L51.5913 19.8088L51.5782 19.8384L51.566 19.8684L53.4189 20.6211ZM44.9814 32.7939L46.7876 33.6528L48.1471 30.7939H44.9814V32.7939ZM40.0303 36.1045L41.4445 34.6903L41.4333 34.6791L41.4219 34.668L40.0303 36.1045ZM43.1504 35.7236L41.7362 34.3094L41.7299 34.3157L41.7237 34.322L43.1504 35.7236ZM49.7715 31.6006H51.4707V27.6006H49.7715V31.6006ZM51.4707 31.6006C51.6704 31.6006 51.7828 31.6187 51.8297 31.6296C51.8761 31.6405 51.819 31.635 51.7182 31.5644C51.6046 31.4848 51.487 31.3577 51.4087 31.193C51.3351 31.0384 51.3311 30.9245 51.3311 30.9043H55.3311C55.3311 29.9287 54.943 28.9399 54.0138 28.2887C53.2142 27.7283 52.2631 27.6006 51.4707 27.6006V31.6006ZM51.3311 30.9043C51.3311 30.9534 51.3231 30.9182 51.3588 30.8428C51.3756 30.8073 51.3969 30.7743 51.42 30.7464C51.4426 30.7191 51.4606 30.7044 51.4662 30.7002L53.8775 33.8916C54.8627 33.1473 55.3311 32.0678 55.3311 30.9043H51.3311ZM51.449 30.7133C51.4939 30.6786 51.3823 30.7939 50.8555 30.7939V34.7939C51.8911 34.7939 52.9905 34.5772 53.8948 33.8785L51.449 30.7133ZM50.8555 30.7939H48.4824V34.7939H50.8555V30.7939ZM46.5873 32.1549C46.3566 32.839 45.9043 33.8386 45.181 35.19L48.7077 37.0775C49.4687 35.6556 50.0418 34.4286 50.3776 33.433L46.5873 32.1549ZM45.1757 35.2C44.6534 36.1893 44.0728 36.8184 43.4801 37.2043C42.8994 37.5823 42.2026 37.7959 41.3193 37.7959V41.7959C42.897 41.7959 44.3682 41.3991 45.6625 40.5565C46.9447 39.7217 47.9462 38.5197 48.7129 37.0676L45.1757 35.2ZM41.3193 37.7959C40.2836 37.7959 39.526 37.4875 38.9112 36.92L36.1981 39.8593C37.6146 41.1668 39.3668 41.7959 41.3193 41.7959V37.7959ZM38.9112 36.92C38.3073 36.3626 38.0312 35.7339 38.0312 34.9033H34.0312C34.0312 36.8461 34.7708 38.5417 36.1981 39.8593L38.9112 36.92ZM38.0312 34.9033C38.0312 34.3467 38.1841 33.8251 38.5333 33.2983L35.1991 31.0884C34.435 32.2413 34.0312 33.5264 34.0312 34.9033H38.0312ZM38.5363 33.2937C38.8803 32.7715 39.3183 32.3932 39.881 32.1302L38.1873 28.5065C36.9532 29.0833 35.9459 29.955 35.1961 31.093L38.5363 33.2937ZM39.8734 32.1338C40.515 31.8372 41.6972 31.6006 43.6191 31.6006V27.6006C41.4981 27.6006 39.6237 27.8425 38.195 28.5029L39.8734 32.1338ZM43.6191 31.6006H46.0068V27.6006H43.6191V31.6006ZM47.862 30.3478L48.2868 29.2931L44.5765 27.7987L44.1517 28.8534L47.862 30.3478ZM45.6589 26.7012C45.1122 26.9302 44.714 27 44.4395 27V31C45.3758 31 46.3058 30.767 47.2044 30.3906L45.6589 26.7012ZM44.4395 27C43.7371 27 43.3648 26.8284 43.1457 26.6518L40.6356 29.7662C41.7251 30.6443 43.0519 31 44.4395 31V27ZM43.171 26.6725C42.9891 26.521 42.9238 26.3937 42.9238 26.1289H38.9238C38.9238 27.5634 39.5031 28.8228 40.6103 29.7454L43.171 26.6725ZM42.9238 26.1289C42.9238 26.1307 42.924 26.0949 42.9374 26.0125C42.9505 25.9319 42.9736 25.8225 43.0119 25.6806C43.0895 25.3939 43.2167 25.0207 43.407 24.5516L39.7004 23.048C39.2698 24.1094 38.9238 25.1952 38.9238 26.1289H42.9238ZM43.4073 24.5509L45.004 20.6105L41.2968 19.1083L39.7001 23.0487L43.4073 24.5509ZM45.0119 20.5907L45.173 20.1805L41.45 18.7179L41.2889 19.1281L45.0119 20.5907ZM45.1523 20.2312C45.2918 19.9028 45.4052 19.8105 45.4173 19.8013C45.4211 19.7984 45.4218 19.7983 45.4197 19.7994C45.4175 19.8006 45.4158 19.8012 45.4158 19.8012C45.4159 19.8011 45.4209 19.7995 45.4324 19.7978C45.4441 19.796 45.4642 19.7939 45.4941 19.7939V15.7939C44.6018 15.7939 43.7402 16.053 43.0002 16.6142C42.2847 17.1568 41.8 17.8921 41.4707 18.6673L45.1523 20.2312ZM45.4941 19.7939C45.4947 19.7939 45.4448 19.7935 45.3675 19.7638C45.287 19.733 45.2198 19.6868 45.1743 19.6429L47.9527 16.7653C47.2608 16.0973 46.3902 15.7939 45.4941 15.7939V19.7939ZM45.1988 19.6662C45.1534 19.6238 45.0939 19.5498 45.0508 19.4476C45.0085 19.3476 45.0029 19.2706 45.0029 19.2441H49.0029C49.0029 18.2997 48.6477 17.4136 47.9281 16.742L45.1988 19.6662ZM45.0029 19.2441C45.0029 19.1721 45.0104 19.137 45.0078 19.1523C45.0057 19.1645 44.9984 19.2014 44.9801 19.2676C44.9427 19.4028 44.8754 19.6027 44.7651 19.8783L48.479 21.3639C48.7307 20.7348 49.0029 19.9531 49.0029 19.2441H45.0029ZM44.7716 19.8623L43.336 23.3633L47.037 24.8808L48.4725 21.3799L44.7716 19.8623ZM43.3274 23.3848C43.2068 23.6889 43.1032 23.9685 43.0253 24.212C42.9647 24.4016 42.8594 24.7456 42.8384 25.1033L46.8315 25.3381C46.8274 25.4086 46.8195 25.4596 46.8155 25.4833C46.8133 25.4967 46.8113 25.5067 46.81 25.5127C46.8088 25.5189 46.8079 25.5223 46.8078 25.5227C46.8078 25.5231 46.8096 25.5156 46.8143 25.4989C46.819 25.4826 46.8257 25.4602 46.835 25.4311C46.8743 25.3083 46.9416 25.1217 47.0457 24.8593L43.3274 23.3848ZM42.8387 25.0985C42.795 25.8127 43.0089 26.703 43.7999 27.3282C44.4686 27.8567 45.2431 27.9385 45.7432 27.9385V23.9385C45.6085 23.9385 45.9142 23.9007 46.2801 24.1899C46.4862 24.3527 46.6493 24.5736 46.7442 24.8227C46.8332 25.0563 46.8371 25.2471 46.8312 25.3429L42.8387 25.0985ZM45.7432 27.9385C46.5977 27.9385 47.3915 27.685 48.1006 27.2861L46.1396 23.7998C45.9112 23.9283 45.787 23.9385 45.7432 23.9385V27.9385ZM48.1006 27.2861C48.776 26.9062 49.5212 26.3066 49.8818 25.3637L46.1456 23.9351C46.1993 23.7945 46.2672 23.7212 46.2809 23.7076C46.2871 23.7014 46.2814 23.708 46.2578 23.7253C46.2342 23.7426 46.1961 23.7681 46.1396 23.7998L48.1006 27.2861ZM49.8643 25.4078L51.8272 20.6177L48.1259 19.101L46.163 23.891L49.8643 25.4078ZM51.86 20.532L52.0065 20.1219L48.2396 18.7765L48.0931 19.1867L51.86 20.532ZM51.9697 20.2173C52.1041 19.894 52.2139 19.8071 52.2215 19.8013C52.2244 19.7991 52.2245 19.7994 52.2221 19.8006C52.2197 19.8019 52.2181 19.8024 52.2187 19.8022C52.2194 19.8019 52.2255 19.8 52.2385 19.7981C52.2517 19.7962 52.2736 19.7939 52.3057 19.7939V15.7939C51.4132 15.7939 50.5479 16.0503 49.8044 16.6142C49.0844 17.1602 48.6009 17.9009 48.2764 18.6811L51.9697 20.2173ZM52.3057 19.7939C52.298 19.7939 52.2403 19.792 52.1569 19.7589C52.0707 19.7246 52.0031 19.6753 51.9608 19.633L54.7892 16.8045C54.1018 16.1171 53.223 15.7939 52.3057 15.7939V19.7939ZM52.0104 19.6809C51.9698 19.643 51.9107 19.5717 51.8663 19.468C51.8223 19.3654 51.8145 19.2819 51.8145 19.2441H55.8145C55.8145 18.2944 55.4485 17.4183 54.7396 16.7566L52.0104 19.6809ZM51.8145 19.2441C51.8145 19.2148 51.818 19.2194 51.8078 19.265C51.7977 19.3103 51.7765 19.3847 51.7344 19.4913L55.455 20.9599C55.6589 20.4434 55.8145 19.8589 55.8145 19.2441H51.8145ZM51.7671 19.4133L51.5913 19.8088L55.2466 21.4334L55.4223 21.0379L51.7671 19.4133ZM51.566 19.8684L47.9185 28.8479L51.6245 30.3533L55.2719 21.3738L51.566 19.8684ZM44.9814 30.7939H42.9307V34.7939H44.9814V30.7939ZM42.9307 30.7939C41.6636 30.7939 40.3735 30.9806 39.3425 31.6261C38.155 32.3696 37.5615 33.5621 37.5615 34.9033H41.5615C41.5615 34.8215 41.5763 34.8475 41.5375 34.9204C41.4959 34.9985 41.448 35.0272 41.4651 35.0165C41.4957 34.9973 41.6099 34.9369 41.8653 34.8836C42.1185 34.8307 42.4674 34.7939 42.9307 34.7939V30.7939ZM37.5615 34.9033C37.5615 35.8573 37.8799 36.8059 38.6387 37.541L41.4219 34.668C41.4693 34.714 41.5142 34.7793 41.5419 34.8501C41.5673 34.9153 41.5615 34.9425 41.5615 34.9033H37.5615ZM38.6161 37.5187C39.37 38.2726 40.3311 38.5586 41.2607 38.5586V34.5586C41.1958 34.5586 41.2042 34.5491 41.2574 34.5688C41.284 34.5786 41.3168 34.5939 41.352 34.6163C41.3873 34.6388 41.4185 34.6643 41.4445 34.6903L38.6161 37.5187ZM41.2607 38.5586C42.5637 38.5586 43.6934 38.0247 44.5771 37.1253L41.7237 34.322C41.5136 34.5358 41.3835 34.5586 41.2607 34.5586V38.5586ZM44.5646 37.1378C45.3724 36.3301 46.1012 35.0963 46.7876 33.6528L43.1753 31.9351C42.5335 33.2845 42.0417 34.0039 41.7362 34.3094L44.5646 37.1378ZM76.4756 12.5059L78.3287 13.2583L79.4462 10.5059H76.4756V12.5059ZM73.6631 9.60547L72.3323 8.11244L72.3242 8.11971L72.3161 8.12708L73.6631 9.60547ZM84.9863 27.7256L86.5456 28.978L86.5485 28.9744L84.9863 27.7256ZM79.9766 31.7393L79.1554 29.9156L79.1518 29.9172L79.9766 31.7393ZM72.2715 32.999V30.999H70.9527L70.4332 32.2112L72.2715 32.999ZM72.0957 33.4092L73.9204 34.228L73.9273 34.2125L73.934 34.197L72.0957 33.4092ZM68.9609 38.4043L70.312 39.879L70.3165 39.8748L68.9609 38.4043ZM59.0732 39.0928L60.4351 37.6281L60.4285 37.6219L60.4218 37.6158L59.0732 39.0928ZM58.1064 32.4131L56.3638 31.4316L56.3591 31.4401L58.1064 32.4131ZM60.0547 30.4209L59.0539 28.6893L59.0469 28.6933L60.0547 30.4209ZM69.5762 29.498V31.498H70.9227L71.4292 30.2505L69.5762 29.498ZM73.6924 29.498L71.8399 28.7443L70.7194 31.498H73.6924V29.498ZM81.8809 25.4697L80.2925 24.2544L80.2885 24.2596L81.8809 25.4697ZM84.21 21.2803L82.3423 20.5647L82.3383 20.5754L84.21 21.2803ZM80.6064 12.5059V10.5059H79.261L78.7539 11.7521L80.6064 12.5059ZM68.1553 32.999L69.995 33.7834L71.1822 30.999H68.1553V32.999ZM66.1338 35.9434L64.8232 34.4325L64.8129 34.4416L66.1338 35.9434ZM76.4756 10.5059H75.0254V14.5059H76.4756V10.5059ZM75.0254 10.5059H74.6299V14.5059H75.0254V10.5059ZM74.6299 10.5059C74.3308 10.5059 74.4798 10.435 74.7187 10.6416C74.8444 10.7502 74.9277 10.8814 74.9717 10.9956C75.0111 11.0977 75.0039 11.1459 75.0039 11.0996H71.0039C71.0039 11.9584 71.2657 12.9436 72.1021 13.667C72.883 14.3424 73.845 14.5059 74.6299 14.5059V10.5059ZM75.0039 11.0996C75.0039 11.0741 75.0062 11.0636 75.0059 11.0651C75.0058 11.0656 75.0053 11.0681 75.004 11.0723C75.0027 11.0764 75.0009 11.0813 74.9985 11.0866C74.9962 11.0918 74.9938 11.0965 74.9915 11.1004C74.9893 11.1043 74.9877 11.1066 74.9872 11.1072C74.9861 11.1087 74.9918 11.1005 75.0101 11.0839L72.3161 8.12708C71.4597 8.90733 71.0039 9.94249 71.0039 11.0996H75.0039ZM74.9938 11.0985C75.0493 11.049 75.112 11.0049 75.3037 11.0049V7.00488C74.2064 7.00488 73.1753 7.36112 72.3323 8.11244L74.9938 11.0985ZM75.3037 11.0049H75.6992V7.00488H75.3037V11.0049ZM75.6992 11.0049H79.9912V7.00488H75.6992V11.0049ZM79.9912 11.0049C82.5663 11.0049 84.223 11.6178 85.2666 12.5484L87.9287 9.56295C85.9059 7.75915 83.1583 7.00488 79.9912 7.00488V11.0049ZM85.2666 12.5484C86.2717 13.4447 86.8975 14.8073 86.8975 16.959H90.8975C90.8975 13.974 89.99 11.401 87.9287 9.56295L85.2666 12.5484ZM86.8975 16.959C86.8975 20.3898 85.7683 23.5443 83.4241 26.4768L86.5485 28.9744C89.4192 25.3834 90.8975 21.3602 90.8975 16.959H86.8975ZM83.427 26.4732C82.12 28.1004 80.6923 29.2236 79.1554 29.9156L80.7977 33.5629C82.9913 32.5752 84.9034 31.0226 86.5456 28.978L83.427 26.4732ZM79.1518 29.9172C77.6165 30.6122 75.6856 30.999 73.2969 30.999V34.999C76.1034 34.999 78.6257 34.546 80.8013 33.5613L79.1518 29.9172ZM73.2969 30.999H72.2715V34.999H73.2969V30.999ZM70.4332 32.2112L70.2574 32.6213L73.934 34.197L74.1098 33.7869L70.4332 32.2112ZM70.271 32.5904C69.5897 34.1087 69.1026 35.0623 68.7959 35.5452L72.1728 37.6892C72.6474 36.9416 73.2345 35.7565 73.9204 34.228L70.271 32.5904ZM68.7959 35.5452C68.5124 35.9917 68.1232 36.4564 67.6053 36.9338L70.3165 39.8748C71.0487 39.1998 71.6751 38.4731 72.1728 37.6892L68.7959 35.5452ZM67.6099 36.9296C66.3282 38.1039 64.9337 38.6455 63.3506 38.6455V42.6455C65.9862 42.6455 68.332 41.693 70.312 39.879L67.6099 36.9296ZM63.3506 38.6455C62.0397 38.6455 61.125 38.2696 60.4351 37.6281L57.7114 40.5574C59.248 41.9863 61.1849 42.6455 63.3506 42.6455V38.6455ZM60.4218 37.6158C59.7352 36.9889 59.3887 36.2265 59.3887 35.167H55.3887C55.3887 37.2911 56.1652 39.1459 57.7247 40.5697L60.4218 37.6158ZM59.3887 35.167C59.3887 34.5335 59.5397 33.9502 59.8538 33.3861L56.3591 31.4401C55.7161 32.5948 55.3887 33.8473 55.3887 35.167H59.3887ZM59.8491 33.3946C60.1581 32.8458 60.5575 32.443 61.0624 32.1485L59.0469 28.6933C57.9113 29.3558 57.0118 30.2811 56.3638 31.4316L59.8491 33.3946ZM61.0555 32.1525C61.7042 31.7775 62.7547 31.498 64.376 31.498V27.498C62.3644 27.498 60.5341 27.8338 59.0539 28.6893L61.0555 32.1525ZM64.376 31.498H69.5762V27.498H64.376V31.498ZM71.4292 30.2505L78.3287 13.2583L74.6225 11.7534L67.7231 28.7456L71.4292 30.2505ZM73.6924 31.498H74.2783V27.498H73.6924V31.498ZM74.2783 31.498C78.0083 31.498 81.1035 29.7979 83.4732 26.6799L80.2885 24.2596C78.5762 26.5127 76.603 27.498 74.2783 27.498V31.498ZM83.4692 26.6851C84.5732 25.2422 85.4456 23.674 86.0816 21.9852L82.3383 20.5754C81.8415 21.8943 81.1611 23.1191 80.2925 24.2544L83.4692 26.6851ZM86.0776 21.9958C86.7195 20.3202 87.0742 18.6836 87.0742 17.1055H83.0742C83.0742 18.086 82.8527 19.2325 82.3423 20.5648L86.0776 21.9958ZM87.0742 17.1055C87.0742 15.2917 86.5537 13.6193 85.3042 12.3393L82.4419 15.1334C82.7939 15.494 83.0742 16.0676 83.0742 17.1055H87.0742ZM85.3042 12.3393C84.0528 11.0574 82.4058 10.5059 80.6064 10.5059V14.5059C81.561 14.5059 82.0917 14.7746 82.4419 15.1334L85.3042 12.3393ZM78.7539 11.7521L71.8399 28.7443L75.5449 30.2518L82.459 13.2596L78.7539 11.7521ZM68.1553 30.999H64.2734V34.999H68.1553V30.999ZM64.2734 30.999C63.1408 30.999 61.933 31.1889 60.9632 31.8767C59.8672 32.6539 59.4023 33.8251 59.4023 35.0352H63.4023C63.4023 34.9301 63.4205 34.9342 63.3918 34.9951C63.3583 35.0664 63.3066 35.1185 63.2771 35.1395C63.2601 35.1515 63.3069 35.1129 63.4774 35.0726C63.6487 35.0322 63.9067 34.999 64.2734 34.999V30.999ZM59.4023 35.0352C59.4023 36.1679 59.8595 37.1709 60.6886 37.9228L63.3759 34.96C63.3609 34.9464 63.3587 34.942 63.3633 34.9482C63.3682 34.9548 63.3767 34.9679 63.3851 34.9866C63.3935 35.0054 63.3985 35.0226 63.4011 35.035C63.4035 35.0469 63.4023 35.0481 63.4023 35.0352H59.4023ZM60.6886 37.9228C61.5029 38.6614 62.505 39.0127 63.5703 39.0127V35.0127C63.4799 35.0127 63.439 34.9991 63.4281 34.995C63.4193 34.9918 63.4041 34.9856 63.3759 34.96L60.6886 37.9228ZM63.5703 39.0127C65.0488 39.0127 66.3562 38.4112 67.4546 37.4451L64.8129 34.4416C64.2903 34.9013 63.8887 35.0127 63.5703 35.0127V39.0127ZM67.4443 37.4541C68.5384 36.505 69.3708 35.2476 69.995 33.7834L66.3155 32.2146C65.8656 33.27 65.3502 33.9754 64.8232 34.4326L67.4443 37.4541ZM99.1953 25.8066L97.3412 25.0567L96.2289 27.8066H99.1953V25.8066ZM101.993 28.502L103.199 30.0977L103.21 30.0893L103.221 30.0807L101.993 28.502ZM96.5879 28.0186L98.403 27.1787L97.2692 24.7281L95.2555 26.527L96.5879 28.0186ZM90.1865 27.8574L88.6612 29.151L88.67 29.1614L88.679 29.1717L90.1865 27.8574ZM91.1387 19.8154L89.6335 18.4984L89.6329 18.4991L91.1387 19.8154ZM98.2725 18.8926L96.6055 19.9977L98.2678 22.5052L99.9366 20.002L98.2725 18.8926ZM101.261 18.2041L99.8716 19.6429L99.8837 19.6547L99.8961 19.6662L101.261 18.2041ZM101.466 20.1963L99.6155 19.4372L99.6136 19.4417L101.466 20.1963ZM101.305 20.5918L99.4525 19.8372L99.4506 19.8418L101.305 20.5918ZM95.8408 24.8984L93.9868 24.1483L93.9858 24.1509L95.8408 24.8984ZM96.8662 22.3643L95.0168 21.6027L95.0122 21.6141L96.8662 22.3643ZM96.6758 20.8408L95.4564 22.4261L95.4707 22.4371L95.4853 22.4479L96.6758 20.8408ZM99.1953 27.8066H100.807V23.8066H99.1953V27.8066ZM100.807 27.8066C101.004 27.8066 101.115 27.8245 101.161 27.8351C101.206 27.8456 101.148 27.8398 101.046 27.7686C100.931 27.6884 100.812 27.5602 100.732 27.3932C100.657 27.2361 100.652 27.1192 100.652 27.0957H104.652C104.652 26.1223 104.263 25.1368 103.336 24.4892C102.539 23.9329 101.593 23.8066 100.807 23.8066V27.8066ZM100.652 27.0957C100.652 27.1443 100.645 27.1137 100.677 27.0452C100.692 27.0133 100.71 26.984 100.73 26.9599C100.749 26.9363 100.763 26.9247 100.765 26.9232L103.221 30.0807C104.186 29.3303 104.652 28.2587 104.652 27.0957H100.652ZM100.787 26.9062C100.81 26.8891 100.683 27 100.177 27V31C101.213 31 102.297 30.7789 103.199 30.0977L100.787 26.9062ZM100.177 27H98.3018V31H100.177V27ZM98.3018 27C98.1362 27 98.1479 26.9679 98.2373 27.0191C98.2815 27.0444 98.3243 27.079 98.3589 27.1178C98.3923 27.1554 98.4041 27.1811 98.403 27.1787L94.7728 28.8584C95.081 29.5245 95.5695 30.1008 96.2495 30.4902C96.9102 30.8686 97.6274 31 98.3018 31V27ZM95.2555 26.527C94.7314 26.9952 94.4786 27 94.4639 27V31C95.8163 31 96.9796 30.3505 97.9203 29.5101L95.2555 26.527ZM94.4639 27H92.7939V31H94.4639V27ZM92.7939 27C92.2564 27 91.952 26.839 91.6941 26.5432L88.679 29.1717C89.7492 30.3993 91.1831 31 92.7939 31V27ZM91.7118 26.5638C91.4289 26.2303 91.2051 25.7174 91.2051 24.8398H87.2051C87.2051 26.4428 87.6355 27.9416 88.6612 29.151L91.7118 26.5638ZM91.2051 24.8398C91.2051 23.472 91.6585 22.2596 92.6444 21.1317L89.6329 18.4991C88.0407 20.3205 87.2051 22.4577 87.2051 24.8398H91.2051ZM92.6438 21.1324C93.6497 19.9829 94.5989 19.5889 95.5332 19.5889V15.5889C93.2057 15.5889 91.2253 16.6792 89.6335 18.4984L92.6438 21.1324ZM95.5332 19.5889C96.266 19.5889 96.4772 19.8041 96.6055 19.9977L99.9394 17.7875C98.9154 16.2427 97.3004 15.5889 95.5332 15.5889V19.5889ZM99.9366 20.002C100.042 19.844 100.109 19.8063 100.112 19.8043C100.116 19.8022 100.118 19.8014 100.122 19.8001C100.128 19.7987 100.149 19.7939 100.191 19.7939V15.7939C98.6476 15.7939 97.4184 16.5682 96.6084 17.7832L99.9366 20.002ZM100.191 19.7939C100.192 19.7939 100.142 19.7935 100.065 19.7638C99.9843 19.733 99.917 19.6868 99.8716 19.6429L102.65 16.7653C101.958 16.0973 101.087 15.7939 100.191 15.7939V19.7939ZM99.8961 19.6662C99.8606 19.633 99.8018 19.5643 99.7562 19.4593C99.7105 19.3543 99.7002 19.2641 99.7002 19.2148H103.7C103.7 18.2595 103.323 17.3933 102.625 16.742L99.8961 19.6662ZM99.7002 19.2148C99.7002 19.1642 99.707 19.156 99.6963 19.2007C99.6858 19.2445 99.6627 19.322 99.6155 19.4372L103.316 20.9554C103.526 20.4437 103.7 19.8458 103.7 19.2148H99.7002ZM99.6136 19.4417L99.4525 19.8372L103.157 21.3464L103.318 20.9509L99.6136 19.4417ZM99.4506 19.8418L97.3412 25.0567L101.049 26.5566L103.159 21.3418L99.4506 19.8418ZM93.8779 27.8799H94.2441V23.8799H93.8779V27.8799ZM94.2441 27.8799C94.9116 27.8799 95.6328 27.7431 96.2912 27.3384C96.9683 26.9222 97.4257 26.3165 97.6959 25.646L93.9858 24.1509C93.9858 24.1509 93.9996 24.117 94.0393 24.0681C94.0806 24.0172 94.1348 23.9686 94.1966 23.9307C94.3228 23.8531 94.3774 23.8799 94.2441 23.8799V27.8799ZM97.6948 25.6486L98.7202 23.1144L95.0122 21.6141L93.9868 24.1483L97.6948 25.6486ZM98.7156 23.1258C98.8992 22.6798 99.0713 22.1247 99.0713 21.5293H95.0713C95.0713 21.4847 95.0746 21.4536 95.0767 21.4385C95.0788 21.4232 95.0801 21.4198 95.0777 21.4294C95.0725 21.451 95.0562 21.5071 95.0169 21.6028L98.7156 23.1258ZM99.0713 21.5293C99.0713 20.4772 98.5005 19.7036 97.8662 19.2337L95.4853 22.4479C95.4473 22.4198 95.3382 22.3298 95.2382 22.1557C95.1307 21.9685 95.0713 21.7484 95.0713 21.5293H99.0713ZM97.8952 19.2556C97.2474 18.7573 96.496 18.5479 95.7529 18.5479V22.5479C95.7532 22.5479 95.7433 22.5479 95.7249 22.5452C95.7064 22.5425 95.6806 22.5372 95.6495 22.5273C95.5831 22.5063 95.5153 22.4714 95.4564 22.4261L97.8952 19.2556ZM95.7529 18.5479C94.1854 18.5479 92.9796 19.4736 92.1201 20.5325L95.2256 23.0535C95.4601 22.7646 95.6323 22.6309 95.7255 22.5752C95.8041 22.5281 95.8046 22.5479 95.7529 22.5479V18.5479ZM92.1201 20.5325C91.2179 21.6438 90.6621 22.9352 90.6621 24.3711H94.6621C94.6621 24.0297 94.7801 23.6023 95.2256 23.0535L92.1201 20.5325ZM90.6621 24.3711C90.6621 25.0903 90.7984 26.0002 91.4088 26.7576C92.0856 27.5975 93.0362 27.8799 93.8779 27.8799V23.8799C93.8785 23.8799 93.9709 23.8797 94.1105 23.9375C94.2623 24.0003 94.4103 24.1074 94.5234 24.2478C94.7284 24.5022 94.6621 24.6578 94.6621 24.3711H90.6621ZM110.548 17.7939L108.737 16.9457L107.403 19.7939H110.548V17.7939ZM109.317 20.9873V18.9873H107.972L107.465 20.2329L109.317 20.9873ZM107.354 25.8066L105.502 25.0522L104.38 27.8066H107.354V25.8066ZM110.196 28.502L108.991 26.9062L108.982 26.9128L108.973 26.9194L110.196 28.502ZM103.985 28.4873L102.74 30.0525L102.749 30.0593L102.757 30.066L103.985 28.4873ZM103.604 25.8945L101.768 25.1017L101.758 25.1266L101.748 25.1517L103.604 25.8945ZM103.883 25.25L105.719 26.0429L105.728 26.0223L105.736 26.0016L103.883 25.25ZM105.611 20.9873L107.465 21.7389L108.58 18.9873H105.611V20.9873ZM104.396 18.3066L105.618 19.8892L105.623 19.8853L104.396 18.3066ZM106.9 17.7939V19.7939H108.249L108.754 18.544L106.9 17.7939ZM107.677 15.875L105.825 15.1204L105.823 15.1249L107.677 15.875ZM107.838 15.4795L105.996 14.6997L105.991 14.7122L105.986 14.7249L107.838 15.4795ZM111.031 14.2637L109.642 15.7025L109.667 15.7268L109.693 15.7503L111.031 14.2637ZM111.09 16.6367L112.901 17.485L112.908 17.47L112.915 17.4548L111.09 16.6367ZM110.548 19.7939H111.002V15.7939H110.548V19.7939ZM111.002 19.7939C111.202 19.7939 111.314 19.8121 111.361 19.823C111.407 19.8338 111.35 19.8284 111.249 19.7577C111.136 19.6781 111.018 19.551 110.94 19.3864C110.866 19.2317 110.862 19.1178 110.862 19.0977H114.862C114.862 18.1221 114.474 17.1332 113.545 16.482C112.745 15.9217 111.794 15.7939 111.002 15.7939V19.7939ZM110.862 19.0977C110.862 19.1468 110.854 19.1116 110.89 19.0362C110.907 19.0007 110.928 18.9676 110.951 18.9398C110.974 18.9124 110.992 18.8978 110.997 18.8935L113.409 22.085C114.394 21.3406 114.862 20.2612 114.862 19.0977H110.862ZM110.997 18.8935C111.02 18.8764 110.893 18.9873 110.387 18.9873V22.9873C111.423 22.9873 112.507 22.7662 113.409 22.085L110.997 18.8935ZM110.387 18.9873H109.317V22.9873H110.387V18.9873ZM107.465 20.2329L105.502 25.0522L109.207 26.5611L111.17 21.7417L107.465 20.2329ZM107.354 27.8066H108.995V23.8066H107.354V27.8066ZM108.995 27.8066C109.195 27.8066 109.307 27.8248 109.354 27.8357C109.401 27.8465 109.343 27.8411 109.243 27.7704C109.129 27.6908 109.011 27.5637 108.933 27.3991C108.86 27.2444 108.855 27.1305 108.855 27.1104H112.855C112.855 26.1348 112.467 25.1459 111.538 24.4947C110.739 23.9344 109.788 23.8066 108.995 23.8066V27.8066ZM108.855 27.1104C108.855 27.1595 108.847 27.1243 108.883 27.0489C108.9 27.0134 108.921 26.9803 108.944 26.9525C108.967 26.9251 108.985 26.9105 108.991 26.9062L111.402 30.0977C112.387 29.3533 112.855 28.2739 112.855 27.1104H108.855ZM108.973 26.9194C109.018 26.8847 108.907 27 108.38 27V31C109.416 31 110.515 30.7833 111.419 30.0845L108.973 26.9194ZM108.38 27H105.758V31H108.38V27ZM105.758 27C105.537 27 105.396 26.9743 105.314 26.9506C105.274 26.939 105.248 26.9281 105.234 26.9211C105.221 26.9142 105.215 26.9097 105.213 26.9086L102.757 30.066C103.649 30.7595 104.719 31 105.758 31V27ZM105.23 26.9221C105.233 26.9238 105.246 26.9354 105.265 26.9587C105.284 26.9824 105.302 27.0112 105.317 27.0425C105.348 27.1099 105.341 27.1407 105.341 27.0957H101.341C101.341 28.244 101.798 29.3029 102.74 30.0525L105.23 26.9221ZM105.341 27.0957C105.341 27.0543 105.352 26.91 105.461 26.6373L101.748 25.1517C101.505 25.7579 101.341 26.4145 101.341 27.0957H105.341ZM105.441 26.6874L105.719 26.0429L102.047 24.4571L101.768 25.1017L105.441 26.6874ZM105.736 26.0016L107.465 21.7389L103.758 20.2357L102.029 24.4984L105.736 26.0016ZM105.611 18.9873H105.392V22.9873H105.611V18.9873ZM105.392 18.9873C105.319 18.9873 105.265 18.9837 105.228 18.9796C105.19 18.9754 105.174 18.9712 105.175 18.9715C105.176 18.9718 105.267 18.9955 105.388 19.0892C105.519 19.191 105.627 19.3304 105.691 19.4818C105.721 19.5508 105.736 19.6091 105.744 19.6498C105.751 19.6899 105.751 19.7124 105.751 19.7129H101.751C101.751 20.5999 102.062 21.5708 102.934 22.2482C103.71 22.851 104.641 22.9873 105.392 22.9873V18.9873ZM105.751 19.7129C105.751 19.6481 105.762 19.6718 105.73 19.7405C105.715 19.7733 105.695 19.8061 105.672 19.8353C105.648 19.8642 105.628 19.8816 105.618 19.8892L103.173 16.7241C102.192 17.482 101.751 18.5695 101.751 19.7129H105.751ZM105.623 19.8853C105.595 19.9078 105.714 19.7939 106.227 19.7939V15.7939C105.176 15.7939 104.075 16.0219 103.168 16.7279L105.623 19.8853ZM106.227 19.7939H106.9V15.7939H106.227V19.7939ZM108.754 18.544L109.531 16.6251L105.823 15.1249L105.046 17.0438L108.754 18.544ZM109.529 16.6296L109.69 16.2341L105.986 14.7249L105.825 15.1204L109.529 16.6296ZM109.68 16.2593C109.812 15.9464 109.919 15.8642 109.924 15.86C109.927 15.8581 109.926 15.8586 109.924 15.8599C109.921 15.8612 109.92 15.8617 109.92 15.8616C109.921 15.8613 109.927 15.8595 109.94 15.8576C109.953 15.8557 109.974 15.8535 110.006 15.8535V11.8535C109.122 11.8535 108.264 12.1052 107.524 12.66C106.807 13.1978 106.323 13.9286 105.996 14.6997L109.68 16.2593ZM110.006 15.8535C109.974 15.8535 109.905 15.8471 109.82 15.813C109.734 15.7786 109.674 15.7331 109.642 15.7025L112.42 12.8249C111.757 12.1846 110.915 11.8535 110.006 11.8535V15.8535ZM109.693 15.7503C109.659 15.7189 109.593 15.6472 109.54 15.5307C109.486 15.4126 109.471 15.3035 109.471 15.2305H113.471C113.471 14.2605 113.067 13.405 112.369 12.7771L109.693 15.7503ZM109.471 15.2305C109.471 15.1948 109.476 15.2243 109.445 15.3375C109.415 15.4476 109.36 15.6061 109.265 15.8186L112.915 17.4548C113.217 16.7817 113.471 16.0117 113.471 15.2305H109.471ZM109.279 15.7884L108.737 16.9457L112.359 18.6422L112.901 17.485L109.279 15.7884ZM122.252 25.8066L120.398 25.0567L119.286 27.8066H122.252V25.8066ZM125.05 28.502L126.255 30.0977L126.267 30.0893L126.278 30.0807L125.05 28.502ZM119.645 28.0186L121.46 27.1787L120.326 24.7281L118.312 26.527L119.645 28.0186ZM113.243 27.8574L111.718 29.151L111.727 29.1614L111.736 29.1717L113.243 27.8574ZM114.195 19.8154L112.69 18.4984L112.69 18.4991L114.195 19.8154ZM121.329 18.8926L119.662 19.9977L121.324 22.5052L122.993 20.002L121.329 18.8926ZM124.317 18.2041L122.928 19.6429L122.94 19.6547L122.953 19.6662L124.317 18.2041ZM124.522 20.1963L122.672 19.4372L122.67 19.4417L124.522 20.1963ZM124.361 20.5918L122.509 19.8372L122.507 19.8418L124.361 20.5918ZM118.897 24.8984L117.043 24.1483L117.042 24.1509L118.897 24.8984ZM119.923 22.3643L118.073 21.6027L118.069 21.6141L119.923 22.3643ZM119.732 20.8408L118.513 22.4261L118.527 22.4371L118.542 22.4479L119.732 20.8408ZM122.252 27.8066H123.863V23.8066H122.252V27.8066ZM123.863 27.8066C124.061 27.8066 124.172 27.8245 124.217 27.8351C124.263 27.8456 124.204 27.8398 124.102 27.7686C123.988 27.6884 123.868 27.5602 123.789 27.3932C123.714 27.2361 123.709 27.1192 123.709 27.0957H127.709C127.709 26.1223 127.32 25.1368 126.393 24.4892C125.596 23.9329 124.65 23.8066 123.863 23.8066V27.8066ZM123.709 27.0957C123.709 27.1443 123.701 27.1137 123.733 27.0452C123.748 27.0133 123.767 26.984 123.787 26.9599C123.806 26.9363 123.82 26.9247 123.822 26.9232L126.278 30.0807C127.242 29.3303 127.709 28.2587 127.709 27.0957H123.709ZM123.844 26.9062C123.867 26.8891 123.74 27 123.233 27V31C124.27 31 125.354 30.7789 126.255 30.0977L123.844 26.9062ZM123.233 27H121.358V31H123.233V27ZM121.358 27C121.193 27 121.205 26.9679 121.294 27.0191C121.338 27.0444 121.381 27.079 121.416 27.1178C121.449 27.1554 121.461 27.1811 121.46 27.1787L117.829 28.8584C118.138 29.5245 118.626 30.1008 119.306 30.4902C119.967 30.8686 120.684 31 121.358 31V27ZM118.312 26.527C117.788 26.9952 117.535 27 117.521 27V31C118.873 31 120.036 30.3505 120.977 29.5101L118.312 26.527ZM117.521 27H115.851V31H117.521V27ZM115.851 27C115.313 27 115.009 26.839 114.751 26.5432L111.736 29.1717C112.806 30.3993 114.24 31 115.851 31V27ZM114.768 26.5638C114.486 26.2303 114.262 25.7174 114.262 24.8398H110.262C110.262 26.4428 110.692 27.9416 111.718 29.151L114.768 26.5638ZM114.262 24.8398C114.262 23.472 114.715 22.2596 115.701 21.1317L112.69 18.4991C111.097 20.3205 110.262 22.4577 110.262 24.8398H114.262ZM115.7 21.1324C116.706 19.9829 117.656 19.5889 118.59 19.5889V15.5889C116.262 15.5889 114.282 16.6792 112.69 18.4984L115.7 21.1324ZM118.59 19.5889C119.323 19.5889 119.534 19.8041 119.662 19.9977L122.996 17.7875C121.972 16.2427 120.357 15.5889 118.59 15.5889V19.5889ZM122.993 20.002C123.099 19.844 123.165 19.8063 123.169 19.8043C123.172 19.8022 123.174 19.8014 123.179 19.8001C123.185 19.7987 123.206 19.7939 123.248 19.7939V15.7939C121.704 15.7939 120.475 16.5682 119.665 17.7832L122.993 20.002ZM123.248 19.7939C123.249 19.7939 123.199 19.7935 123.121 19.7638C123.041 19.733 122.974 19.6868 122.928 19.6429L125.707 16.7653C125.015 16.0973 124.144 15.7939 123.248 15.7939V19.7939ZM122.953 19.6662C122.917 19.633 122.858 19.5643 122.813 19.4593C122.767 19.3543 122.757 19.2641 122.757 19.2148H126.757C126.757 18.2595 126.38 17.3933 125.682 16.742L122.953 19.6662ZM122.757 19.2148C122.757 19.1642 122.764 19.156 122.753 19.2007C122.742 19.2445 122.719 19.322 122.672 19.4372L126.373 20.9554C126.583 20.4437 126.757 19.8458 126.757 19.2148H122.757ZM122.67 19.4417L122.509 19.8372L126.214 21.3464L126.375 20.9509L122.67 19.4417ZM122.507 19.8418L120.398 25.0567L124.106 26.5566L126.215 21.3418L122.507 19.8418ZM116.935 27.8799H117.301V23.8799H116.935V27.8799ZM117.301 27.8799C117.968 27.8799 118.689 27.7431 119.348 27.3384C120.025 26.9222 120.482 26.3165 120.752 25.646L117.042 24.1509C117.042 24.1509 117.056 24.117 117.096 24.0681C117.137 24.0172 117.191 23.9686 117.253 23.9307C117.379 23.8531 117.434 23.8799 117.301 23.8799V27.8799ZM120.751 25.6486L121.777 23.1144L118.069 21.6141L117.043 24.1483L120.751 25.6486ZM121.772 23.1258C121.956 22.6798 122.128 22.1247 122.128 21.5293H118.128C118.128 21.4847 118.131 21.4536 118.133 21.4385C118.135 21.4232 118.137 21.4198 118.134 21.4294C118.129 21.451 118.113 21.5071 118.073 21.6028L121.772 23.1258ZM122.128 21.5293C122.128 20.4772 121.557 19.7036 120.923 19.2337L118.542 22.4479C118.504 22.4198 118.395 22.3298 118.295 22.1557C118.187 21.9685 118.128 21.7484 118.128 21.5293H122.128ZM120.952 19.2556C120.304 18.7573 119.553 18.5479 118.81 18.5479V22.5479C118.81 22.5479 118.8 22.5479 118.782 22.5452C118.763 22.5425 118.737 22.5372 118.706 22.5273C118.64 22.5063 118.572 22.4714 118.513 22.4261L120.952 19.2556ZM118.81 18.5479C117.242 18.5479 116.036 19.4736 115.177 20.5325L118.282 23.0535C118.517 22.7646 118.689 22.6309 118.782 22.5752C118.861 22.5281 118.861 22.5479 118.81 22.5479V18.5479ZM115.177 20.5325C114.275 21.6438 113.719 22.9352 113.719 24.3711H117.719C117.719 24.0297 117.837 23.6023 118.282 23.0535L115.177 20.5325ZM113.719 24.3711C113.719 25.0903 113.855 26.0002 114.465 26.7576C115.142 27.5975 116.093 27.8799 116.935 27.8799V23.8799C116.935 23.8799 117.028 23.8797 117.167 23.9375C117.319 24.0003 117.467 24.1074 117.58 24.2478C117.785 24.5022 117.719 24.6578 117.719 24.3711H113.719Z" fill="black" mask="url(#path-2-outside-1_96_429)"/>
</svg>
