<svg width="107" height="70" viewBox="0 0 107 70" fill="none" xmlns="http://www.w3.org/2000/svg">
<circle cx="35" cy="35" r="34" fill="#D6DFFF" stroke="black" stroke-width="2"/>
<mask id="path-2-outside-1_96_408" maskUnits="userSpaceOnUse" x="18" y="8" width="29" height="22" fill="black">
<rect fill="white" x="18" y="8" width="29" height="22"/>
<path d="M28.3828 24.1992H30.3516C31.4297 24.1992 31.9688 24.5742 31.9688 25.3242C31.9688 25.8555 31.7773 26.2695 31.3945 26.5664C31.0195 26.8555 30.4883 27 29.8008 27H27.668C26.8086 27 26.1562 26.8359 25.7109 26.5078C25.2656 26.1719 25.043 25.6875 25.043 25.0547C25.043 24.6094 25.2031 23.9883 25.5234 23.1914L27.8789 17.4023C28.3555 16.2305 28.5938 15.4258 28.5938 14.9883C28.5938 14.6367 28.4336 14.3242 28.1133 14.0508C27.793 13.7695 27.4258 13.6289 27.0117 13.6289C26.2305 13.6289 25.5234 13.9688 24.8906 14.6484C24.2578 15.3203 23.9414 16.0742 23.9414 16.9102C23.9414 17.3945 24.0469 17.7695 24.2578 18.0352C24.4766 18.3008 24.8711 18.5469 25.4414 18.7734C25.9492 18.9766 26.2031 19.3242 26.2031 19.8164C26.2031 20.2695 26.0312 20.6445 25.6875 20.9414C25.3516 21.2305 24.9297 21.375 24.4219 21.375C23.4453 21.375 22.6094 20.9609 21.9141 20.1328C21.2188 19.2969 20.8711 18.2969 20.8711 17.1328C20.8711 15.4375 21.5117 13.9531 22.793 12.6797C24.0742 11.4062 25.5664 10.7695 27.2695 10.7695C28.5508 10.7695 29.6172 11.1445 30.4688 11.8945C31.3281 12.6445 31.7578 13.5781 31.7578 14.6953C31.7578 15.5 31.5547 16.4023 31.1484 17.4023L28.3828 24.1992ZM41.8945 24.4453H43.3008C44.293 24.4453 44.7891 24.793 44.7891 25.4883C44.7891 25.9648 44.6133 26.3359 44.2617 26.6016C43.9102 26.8672 43.4258 27 42.8086 27H40.3594C39.8828 27 39.4805 26.8555 39.1523 26.5664C38.832 26.2773 38.6719 25.9141 38.6719 25.4766C38.6719 25.2109 38.7812 24.8125 39 24.2812L40.0312 21.7266C40.1406 21.4609 40.1992 21.2461 40.207 21.082C40.2148 20.8945 40.1367 20.7344 39.9727 20.6016C39.8164 20.4688 39.6133 20.4023 39.3633 20.4023C38.5586 20.4023 37.9102 21.0078 37.418 22.2188L36.0352 25.6172C35.6211 26.6484 35.0039 27.1641 34.1836 27.1641C33.8477 27.1641 33.5625 27.0625 33.3281 26.8594C33.0938 26.6562 32.9766 26.4062 32.9766 26.1094C32.9766 25.8906 33.0391 25.6289 33.1641 25.3242L33.293 25.0078L35.6602 19.1719C35.9648 18.4141 36.4844 18.0352 37.2188 18.0352C37.8203 18.0352 38.25 18.3008 38.5078 18.832C39.3438 18.1914 40.1406 17.8711 40.8984 17.8711C41.6328 17.8711 42.2383 18.082 42.7148 18.5039C43.1914 18.9258 43.4297 19.4609 43.4297 20.1094C43.4297 20.4688 43.3438 20.8633 43.1719 21.293L41.8945 24.4453Z"/>
</mask>
<path d="M28.3828 24.1992L26.5303 23.4454L25.4098 26.1992H28.3828V24.1992ZM31.3945 26.5664L32.6156 28.1504L32.6202 28.1468L31.3945 26.5664ZM25.7109 26.5078L24.5065 28.1044L24.5155 28.1112L24.5245 28.1179L25.7109 26.5078ZM25.5234 23.1914L23.6709 22.4376L23.6677 22.4455L25.5234 23.1914ZM27.8789 17.4023L29.7314 18.1561L29.7316 18.1558L27.8789 17.4023ZM28.1133 14.0508L26.7937 15.5537L26.8042 15.5629L26.8148 15.5719L28.1133 14.0508ZM24.8906 14.6484L26.3466 16.0197L26.3544 16.0113L24.8906 14.6484ZM24.2578 18.0352L22.6916 19.2789L22.7026 19.2928L22.714 19.3066L24.2578 18.0352ZM25.4414 18.7734L26.1842 16.9165L26.1798 16.9147L25.4414 18.7734ZM25.6875 20.9414L26.992 22.4574L26.9947 22.4551L25.6875 20.9414ZM21.9141 20.1328L20.3764 21.4118L20.3824 21.4189L21.9141 20.1328ZM30.4688 11.8945L29.1469 13.3954L29.1537 13.4014L30.4688 11.8945ZM31.1484 17.4023L33.001 18.1561L33.0014 18.1551L31.1484 17.4023ZM28.3828 26.1992H30.3516V22.1992H28.3828V26.1992ZM30.3516 26.1992C30.5115 26.1992 30.5897 26.2137 30.6073 26.2178C30.6247 26.2219 30.5432 26.2064 30.4223 26.1223C30.2886 26.0293 30.1542 25.8844 30.064 25.6963C29.9786 25.518 29.9688 25.3761 29.9688 25.3242H33.9688C33.9688 24.4022 33.5963 23.4576 32.7066 22.8387C31.9487 22.3114 31.0609 22.1992 30.3516 22.1992V26.1992ZM29.9688 25.3242C29.9688 25.3474 29.9654 25.2899 30.0098 25.194C30.0568 25.0923 30.1233 25.0213 30.1689 24.986L32.6202 28.1468C33.5432 27.431 33.9688 26.4051 33.9688 25.3242H29.9688ZM30.1735 24.9824C30.2241 24.9434 30.2436 24.9471 30.1898 24.9617C30.1315 24.9776 30.0091 25 29.8008 25V29C30.7372 29 31.7637 28.8071 32.6155 28.1504L30.1735 24.9824ZM29.8008 25H27.668V29H29.8008V25ZM27.668 25C27.3597 25 27.1517 24.97 27.022 24.9374C26.8948 24.9054 26.8708 24.8782 26.8973 24.8977L24.5245 28.1179C25.4568 28.8048 26.6027 29 27.668 29V25ZM26.9154 24.9112C26.9256 24.9188 26.9461 24.9363 26.9696 24.9652C26.9934 24.9944 27.013 25.0264 27.0272 25.0573C27.0567 25.1215 27.043 25.136 27.043 25.0547H23.043C23.043 26.2186 23.4879 27.3361 24.5065 28.1044L26.9154 24.9112ZM27.043 25.0547C27.043 25.0565 27.045 24.9666 27.0997 24.7543C27.1524 24.5502 27.2412 24.2805 27.3791 23.9373L23.6677 22.4455C23.324 23.3008 23.043 24.2138 23.043 25.0547H27.043ZM27.376 23.9452L29.7314 18.1561L26.0264 16.6486L23.6709 22.4376L27.376 23.9452ZM29.7316 18.1558C29.9835 17.5362 30.1882 16.9759 30.3327 16.4878C30.4661 16.0373 30.5938 15.5028 30.5938 14.9883H26.5938C26.5938 14.9113 26.6022 14.9978 26.4973 15.3521C26.4036 15.6686 26.2508 16.0966 26.0262 16.6489L29.7316 18.1558ZM30.5938 14.9883C30.5938 13.9351 30.0804 13.1004 29.4118 12.5297L26.8148 15.5719C26.8147 15.5718 26.7997 15.5591 26.777 15.5313C26.7538 15.5032 26.7235 15.4604 26.6938 15.4024C26.629 15.276 26.5938 15.1293 26.5938 14.9883H30.5938ZM29.4329 12.5479C28.7594 11.9566 27.9269 11.6289 27.0117 11.6289V15.6289C26.9874 15.6289 26.9391 15.6238 26.8824 15.6021C26.8265 15.5807 26.7967 15.5563 26.7937 15.5537L29.4329 12.5479ZM27.0117 11.6289C25.5709 11.6289 24.3605 12.2828 23.4268 13.2856L26.3544 16.0113C26.6864 15.6547 26.8901 15.6289 27.0117 15.6289V11.6289ZM23.4347 13.2772C22.492 14.2781 21.9414 15.5096 21.9414 16.9102H25.9414C25.9414 16.6389 26.0236 16.3625 26.3465 16.0197L23.4347 13.2772ZM21.9414 16.9102C21.9414 17.6576 22.1015 18.5358 22.6916 19.2789L25.824 16.7914C25.9064 16.8951 25.9372 16.9827 25.9458 17.0132C25.953 17.0386 25.9414 17.0118 25.9414 16.9102H21.9414ZM22.714 19.3066C23.256 19.9648 24.0298 20.3647 24.703 20.6321L26.1798 16.9147C25.973 16.8326 25.8456 16.7653 25.7763 16.722C25.7026 16.676 25.7345 16.6822 25.8017 16.7637L22.714 19.3066ZM24.6986 20.6304C24.6973 20.6299 24.5447 20.5675 24.3976 20.3661C24.2396 20.1497 24.2031 19.9311 24.2031 19.8164H28.2031C28.2031 19.2095 28.0397 18.571 27.6278 18.0069C27.2268 17.4579 26.6933 17.1201 26.1842 16.9165L24.6986 20.6304ZM24.2031 19.8164C24.2031 19.784 24.2108 19.703 24.2561 19.6042C24.3013 19.5055 24.3572 19.4477 24.3803 19.4278L26.9947 22.4551C27.7772 21.7793 28.2031 20.8524 28.2031 19.8164H24.2031ZM24.383 19.4254C24.3941 19.4159 24.4087 19.4052 24.4262 19.3952C24.4436 19.3852 24.4593 19.3785 24.4709 19.3746C24.4954 19.3662 24.4854 19.375 24.4219 19.375V23.375C25.3343 23.375 26.2407 23.1039 26.992 22.4574L24.383 19.4254ZM24.4219 19.375C24.1043 19.375 23.8071 19.2771 23.4458 18.8468L20.3824 21.4189C21.4117 22.6448 22.7863 23.375 24.4219 23.375V19.375ZM23.4517 18.8539C23.0771 18.4035 22.8711 17.8652 22.8711 17.1328H18.8711C18.8711 18.7286 19.3604 20.1902 20.3764 21.4118L23.4517 18.8539ZM22.8711 17.1328C22.8711 16.0076 23.2719 15.0235 24.2029 14.0982L21.3831 11.2612C19.7516 12.8827 18.8711 14.8674 18.8711 17.1328H22.8711ZM24.2029 14.0982C25.1346 13.1722 26.1292 12.7695 27.2695 12.7695V8.76953C25.0036 8.76953 23.0138 9.64034 21.3831 11.2612L24.2029 14.0982ZM27.2695 12.7695C28.1313 12.7695 28.708 13.0089 29.1469 13.3954L31.7906 10.3937C30.5264 9.28017 28.9702 8.76953 27.2695 8.76953V12.7695ZM29.1537 13.4014C29.5883 13.7807 29.7578 14.1695 29.7578 14.6953H33.7578C33.7578 12.9868 33.0679 11.5084 31.7838 10.3877L29.1537 13.4014ZM29.7578 14.6953C29.7578 15.1702 29.6359 15.8118 29.2955 16.6496L33.0014 18.1551C33.4735 16.9929 33.7578 15.8298 33.7578 14.6953H29.7578ZM29.2959 16.6486L26.5303 23.4454L30.2353 24.953L33.001 18.1561L29.2959 16.6486ZM41.8945 24.4453L40.0409 23.6942L38.9262 26.4453H41.8945V24.4453ZM39.1523 26.5664L37.8124 28.0512L37.8213 28.0592L37.8303 28.0671L39.1523 26.5664ZM39 24.2812L40.8494 25.0428L40.8546 25.0299L39 24.2812ZM40.0312 21.7266L38.1818 20.965L38.1767 20.9779L40.0312 21.7266ZM40.207 21.082L42.2048 21.1772L42.2053 21.1653L40.207 21.082ZM39.9727 20.6016L38.6774 22.1254L38.6956 22.141L38.7143 22.1561L39.9727 20.6016ZM37.418 22.2188L39.2705 22.9725L39.2708 22.9718L37.418 22.2188ZM36.0352 25.6172L34.1826 24.8634L34.1792 24.872L36.0352 25.6172ZM33.1641 25.3242L35.0144 26.0833L35.0162 26.0788L33.1641 25.3242ZM33.293 25.0078L35.1452 25.7624L35.1463 25.7596L33.293 25.0078ZM35.6602 19.1719L37.5135 19.9236L37.5158 19.918L35.6602 19.1719ZM38.5078 18.832L36.7085 19.7052L37.7787 21.9105L39.7244 20.4195L38.5078 18.832ZM43.1719 21.293L45.0255 22.0441L45.0288 22.0358L43.1719 21.293ZM41.8945 26.4453H43.3008V22.4453H41.8945V26.4453ZM43.3008 26.4453C43.3671 26.4453 43.4163 26.4482 43.4504 26.4517C43.4846 26.4551 43.499 26.4585 43.497 26.4581C43.4969 26.458 43.4011 26.4363 43.2692 26.3439C43.1246 26.2426 42.9838 26.0883 42.8899 25.8911C42.8009 25.7038 42.7891 25.5519 42.7891 25.4883H46.7891C46.7891 24.5996 46.432 23.676 45.5648 23.0682C44.8272 22.5513 43.9692 22.4453 43.3008 22.4453V26.4453ZM42.7891 25.4883C42.7891 25.4778 42.792 25.3897 42.8498 25.2679C42.9099 25.1409 42.9938 25.0528 43.0561 25.0058L45.4674 28.1973C46.3647 27.5194 46.7891 26.5326 46.7891 25.4883H42.7891ZM43.0561 25.0058C43.109 24.9658 43.1373 24.963 43.1059 24.9716C43.07 24.9814 42.9776 25 42.8086 25V29C43.6907 29 44.6537 28.8121 45.4674 28.1973L43.0561 25.0058ZM42.8086 25H40.3594V29H42.8086V25ZM40.3594 25C40.3253 25 40.3372 24.9953 40.3763 25.0094C40.3948 25.016 40.4143 25.0251 40.4332 25.0363C40.452 25.0474 40.4658 25.0581 40.4744 25.0657L37.8303 28.0671C38.5576 28.7079 39.4433 29 40.3594 29V25ZM40.4923 25.0816C40.5231 25.1094 40.5788 25.1722 40.622 25.2704C40.665 25.3678 40.6719 25.446 40.6719 25.4766H36.6719C36.6719 26.471 37.0652 27.3769 37.8124 28.0512L40.4923 25.0816ZM40.6719 25.4766C40.6719 25.5114 40.6701 25.5374 40.6687 25.553C40.6672 25.5687 40.6658 25.5772 40.6658 25.5775C40.6657 25.5779 40.6667 25.5722 40.6694 25.56C40.6721 25.5478 40.6763 25.5306 40.6826 25.5079C40.7091 25.4114 40.7601 25.2595 40.8494 25.0427L37.1506 23.5198C36.9213 24.0767 36.6719 24.7887 36.6719 25.4766H40.6719ZM40.8546 25.0299L41.8858 22.4752L38.1767 20.9779L37.1454 23.5326L40.8546 25.0299ZM41.8806 22.4881C42.0221 22.1445 42.1808 21.6803 42.2048 21.1772L38.2093 20.9869C38.2119 20.9313 38.2179 20.8911 38.2217 20.8693C38.2256 20.8472 38.2285 20.8369 38.2277 20.84C38.2269 20.8428 38.2235 20.8548 38.2158 20.8768C38.2082 20.8987 38.1972 20.928 38.1819 20.9651L41.8806 22.4881ZM42.2053 21.1653C42.243 20.2601 41.8164 19.5209 41.2311 19.0471L38.7143 22.1561C38.6107 22.0722 38.4672 21.9246 38.3568 21.6981C38.2425 21.4638 38.1996 21.2185 38.2088 20.9988L42.2053 21.1653ZM41.268 19.0777C40.6755 18.5741 39.9797 18.4023 39.3633 18.4023V22.4023C39.3122 22.4023 39.2115 22.3956 39.0816 22.3531C38.9468 22.3091 38.8055 22.2344 38.6774 22.1254L41.268 19.0777ZM39.3633 18.4023C37.2967 18.4023 36.1498 20.0273 35.5652 21.4657L39.2708 22.9718C39.3591 22.7546 39.4412 22.5974 39.5101 22.4877C39.5792 22.3777 39.6257 22.3301 39.6384 22.3183C39.6483 22.309 39.6226 22.3352 39.5583 22.362C39.4907 22.3902 39.4201 22.4023 39.3633 22.4023V18.4023ZM35.5655 21.465L34.1826 24.8634L37.8877 26.371L39.2705 22.9725L35.5655 21.465ZM34.1792 24.872C34.1173 25.0261 34.0619 25.1253 34.0224 25.1845C33.9836 25.2428 33.9659 25.2538 33.9794 25.2425C33.9958 25.2288 34.0324 25.2039 34.0855 25.1848C34.138 25.166 34.1757 25.1641 34.1836 25.1641V29.1641C35.0522 29.1641 35.8679 28.877 36.544 28.3122C37.1843 27.7772 37.6056 27.0735 37.8911 26.3624L34.1792 24.872ZM34.1836 25.1641C34.2193 25.1641 34.2937 25.1699 34.3888 25.2038C34.4863 25.2385 34.572 25.2908 34.638 25.348L32.0183 28.3708C32.6476 28.9162 33.4097 29.1641 34.1836 29.1641V25.1641ZM34.638 25.348C34.7062 25.4071 34.8013 25.5127 34.8754 25.6707C34.9505 25.8309 34.9766 25.9869 34.9766 26.1094H30.9766C30.9766 27.0152 31.3679 27.8071 32.0183 28.3708L34.638 25.348ZM34.9766 26.1094C34.9766 26.1496 34.9737 26.1787 34.9716 26.1952C34.9694 26.2118 34.9676 26.2182 34.9687 26.2136C34.9698 26.209 34.9732 26.1957 34.9807 26.1732C34.9881 26.1507 34.999 26.1209 35.0144 26.0833L31.3137 24.5651C31.135 25.0007 30.9766 25.5331 30.9766 26.1094H34.9766ZM35.0162 26.0788L35.1452 25.7624L31.4408 24.2532L31.3119 24.5696L35.0162 26.0788ZM35.1463 25.7596L37.5135 19.9236L33.8068 18.4201L31.4396 24.2561L35.1463 25.7596ZM37.5158 19.918C37.5657 19.7937 37.5717 19.8515 37.4568 19.9352C37.4015 19.9756 37.3413 20.0042 37.2868 20.0207C37.2347 20.0364 37.2077 20.0352 37.2188 20.0352V16.0352C36.4906 16.0352 35.7492 16.2298 35.0998 16.7034C34.4654 17.1661 34.0593 17.7922 33.8045 18.4258L37.5158 19.918ZM37.2188 20.0352C37.2196 20.0352 37.0975 20.0326 36.9405 19.9356C36.7813 19.8371 36.7168 19.7222 36.7085 19.7052L40.3071 17.9588C40.0411 17.4106 39.6327 16.8972 39.0438 16.5332C38.4572 16.1705 37.8195 16.0352 37.2188 16.0352V20.0352ZM39.7244 20.4195C40.3447 19.9441 40.7233 19.8711 40.8984 19.8711V15.8711C39.5579 15.8711 38.3428 16.4387 37.2913 17.2446L39.7244 20.4195ZM40.8984 19.8711C41.2243 19.8711 41.334 19.9526 41.3892 20.0014L44.0405 17.0064C43.1425 16.2114 42.0413 15.8711 40.8984 15.8711V19.8711ZM41.3892 20.0014C41.4127 20.0223 41.4228 20.0351 41.4252 20.0384C41.4274 20.0413 41.4259 20.0398 41.4239 20.0352C41.4219 20.0307 41.4227 20.0307 41.4243 20.039C41.4261 20.0478 41.4297 20.0701 41.4297 20.1094H45.4297C45.4297 18.9006 44.955 17.816 44.0405 17.0064L41.3892 20.0014ZM41.4297 20.1094C41.4297 20.1527 41.4183 20.2918 41.3149 20.5502L45.0288 22.0358C45.2692 21.4347 45.4297 20.7848 45.4297 20.1094H41.4297ZM41.3183 20.5419L40.0409 23.6942L43.7481 25.1964L45.0255 22.0441L41.3183 20.5419Z" fill="black" mask="url(#path-2-outside-1_96_408)"/>
<mask id="path-4-outside-2_96_408" maskUnits="userSpaceOnUse" x="8" y="33" width="57" height="26" fill="black">
<rect fill="white" x="8" y="33" width="57" height="26"/>
<path d="M26.7891 42.1992H28.3008H28.6055C29.4805 42.1992 29.918 42.5742 29.918 43.3242C29.918 43.793 29.7383 44.1914 29.3789 44.5195C29.0273 44.8398 28.5898 45 28.0664 45H27.7617H25.6523L23.3789 50.6133C21.8008 54.4883 19.4648 56.4258 16.3711 56.4258C14.7539 56.4258 13.4141 55.9023 12.3516 54.8555C11.2891 53.8164 10.7578 52.5039 10.7578 50.918C10.7578 49.6836 11.0703 48.5039 11.6953 47.3789C12.3281 46.2539 13.2109 45.2852 14.3438 44.4727C15.3047 43.793 16.4219 43.2539 17.6953 42.8555C18.9766 42.457 20.2383 42.2578 21.4805 42.2578L23.1328 42.2109L23.6484 42.1992L25.8984 36.5391L26.0273 36.2109C26.207 35.7266 26.4336 35.4062 26.707 35.25C26.9883 35.0859 27.457 35.0039 28.1133 35.0039H34.125C35.2109 35.0039 35.7539 35.3867 35.7539 36.1523C35.7539 36.6055 35.5742 36.9961 35.2148 37.3242C34.8555 37.6445 34.418 37.8047 33.9023 37.8047H33.5859H28.582L26.7891 42.1992ZM22.5117 45H21.8789C19.5664 45 17.7188 45.5273 16.3359 46.582C14.7891 47.7617 14.0156 49.0938 14.0156 50.5781C14.0156 51.375 14.2578 52.043 14.7422 52.582C15.2344 53.1211 15.8438 53.3906 16.5703 53.3906C18.2578 53.3906 19.6445 52.0508 20.7305 49.3711L22.5117 45ZM35.0273 48.4453H36.2578C37.25 48.4453 37.7461 48.793 37.7461 49.4883C37.7461 49.9648 37.5703 50.3359 37.2188 50.6016C36.875 50.8672 36.3906 51 35.7656 51H33.6562C33.0781 51 32.6211 50.8633 32.2852 50.5898C31.9492 50.3164 31.7812 49.9492 31.7812 49.4883C31.7812 49.2461 31.8945 48.8438 32.1211 48.2812L36.8555 36.6328L36.9844 36.3164C37.3438 35.4414 37.918 35.0039 38.707 35.0039C39.0352 35.0039 39.3125 35.1133 39.5391 35.332C39.7734 35.5508 39.8906 35.8125 39.8906 36.1172C39.8906 36.3516 39.832 36.6172 39.7148 36.9141L39.5859 37.2305L35.0273 48.4453ZM43.6875 41.8711C44.8203 41.8711 45.75 42.2305 46.4766 42.9492C47.2109 43.668 47.5781 44.582 47.5781 45.6914C47.5781 46.5273 47.3867 47.3594 47.0039 48.1875C46.6211 49.0078 46.125 49.6641 45.5156 50.1562C45.1094 50.4766 44.6875 50.6992 44.25 50.8242C43.8203 50.9414 43.2148 51 42.4336 51C41.1602 51 40.3008 50.8477 39.8555 50.543C38.8086 49.8242 38.2852 48.7617 38.2852 47.3555C38.2852 45.8711 38.8203 44.5859 39.8906 43.5C40.9609 42.4141 42.2266 41.8711 43.6875 41.8711ZM43.4062 44.3672C42.8281 44.3672 42.3008 44.6523 41.8242 45.2227C41.3477 45.793 41.1094 46.4219 41.1094 47.1094C41.1094 48.0156 41.6172 48.4688 42.6328 48.4688C43.2266 48.4688 43.6836 48.2852 44.0039 47.918C44.5352 47.3164 44.8008 46.6289 44.8008 45.8555C44.8008 45.4102 44.6719 45.0508 44.4141 44.7773C44.1562 44.5039 43.8203 44.3672 43.4062 44.3672ZM56.7539 46.6406L59.5078 43.0547L59.7305 42.7734C60.1914 42.1719 60.6992 41.8711 61.2539 41.8711C61.6055 41.8711 61.8945 41.9883 62.1211 42.2227C62.3477 42.4492 62.4609 42.7383 62.4609 43.0898C62.4609 43.457 62.2227 43.9414 61.7461 44.543L57.3516 50.0742C56.7734 50.8008 56.1758 51.1641 55.5586 51.1641C55.0508 51.1641 54.6211 50.9727 54.2695 50.5898C53.918 50.207 53.7422 49.7383 53.7422 49.1836C53.7422 49.043 53.7539 48.8984 53.7773 48.75L54.1641 46.6406L51.7734 50.0742C51.2734 50.8008 50.7188 51.1641 50.1094 51.1641C49.5859 51.1641 49.1562 50.9609 48.8203 50.5547C48.4844 50.1484 48.3164 49.625 48.3164 48.9844C48.3164 48.8906 48.3203 48.8125 48.3281 48.75L48.6562 43.8398C48.7031 43.207 48.8672 42.7227 49.1484 42.3867C49.4375 42.043 49.8281 41.8711 50.3203 41.8711C51.0547 41.8711 51.4219 42.2734 51.4219 43.0781C51.4219 43.2109 51.4141 43.3594 51.3984 43.5234L51.0703 46.8047L53.6836 43.0664C54.2383 42.2695 54.8828 41.8711 55.6172 41.8711C56.0703 41.8711 56.4297 42 56.6953 42.2578C56.9609 42.5156 57.0938 42.8633 57.0938 43.3008C57.0938 43.4805 57.0898 43.6133 57.082 43.6992L56.7539 46.6406Z"/>
</mask>
<path d="M26.7891 42.1992L24.9373 41.4437L23.813 44.1992H26.7891V42.1992ZM29.3789 44.5195L30.7259 45.9979L30.7274 45.9965L29.3789 44.5195ZM25.6523 45V43H24.3046L23.7986 44.2492L25.6523 45ZM23.3789 50.6133L25.2312 51.3676L25.2326 51.3641L23.3789 50.6133ZM12.3516 54.8555L13.7553 53.4308L13.7499 53.4256L12.3516 54.8555ZM11.6953 47.3789L9.95214 46.3984L9.947 46.4076L11.6953 47.3789ZM14.3438 44.4727L13.1888 42.8398L13.1781 42.8475L14.3438 44.4727ZM17.6953 42.8555L17.1014 40.9457L17.0981 40.9467L17.6953 42.8555ZM21.4805 42.2578V44.2578H21.5088L21.5372 44.257L21.4805 42.2578ZM23.1328 42.2109L23.0874 40.2114L23.0761 40.2117L23.1328 42.2109ZM23.6484 42.1992L23.6939 44.1987L25.0178 44.1686L25.507 42.938L23.6484 42.1992ZM25.8984 36.5391L27.757 37.2779L27.7599 37.2704L25.8984 36.5391ZM26.0273 36.2109L27.8888 36.9422L27.8958 36.9245L27.9025 36.9066L26.0273 36.2109ZM26.707 35.25L27.6993 36.9865L27.7071 36.9821L27.7148 36.9776L26.707 35.25ZM35.2148 37.3242L36.5456 38.8172L36.5545 38.8093L36.5634 38.8012L35.2148 37.3242ZM28.582 37.8047V35.8047H27.238L26.7302 37.0492L28.582 37.8047ZM22.5117 45L24.3638 45.7548L25.4864 43H22.5117V45ZM16.3359 46.582L17.5487 48.1723L17.5488 48.1723L16.3359 46.582ZM14.7422 52.582L13.2545 53.9188L13.2598 53.9247L13.2652 53.9306L14.7422 52.582ZM20.7305 49.3711L18.8783 48.6163L18.8769 48.6199L20.7305 49.3711ZM26.7891 44.1992H28.3008V40.1992H26.7891V44.1992ZM28.3008 44.1992H28.6055V40.1992H28.3008V44.1992ZM28.6055 44.1992C28.8037 44.1992 28.5791 44.2483 28.2883 43.999C28.1357 43.8682 28.0307 43.708 27.9719 43.5569C27.9179 43.4179 27.918 43.3266 27.918 43.3242H31.918C31.918 42.5535 31.6788 41.6368 30.8914 40.962C30.1631 40.3377 29.2823 40.1992 28.6055 40.1992V44.1992ZM27.918 43.3242C27.918 43.296 27.925 43.23 27.96 43.1524C27.9942 43.0766 28.0318 43.0413 28.0304 43.0426L30.7274 45.9965C31.4839 45.3058 31.918 44.3788 31.918 43.3242H27.918ZM28.0319 43.0411C28.0359 43.0375 28.045 43.03 28.059 43.0215C28.073 43.013 28.0872 43.0063 28.0996 43.0018C28.1117 42.9973 28.1175 42.9966 28.1141 42.9972C28.1103 42.9978 28.0952 43 28.0664 43V47C29.0339 47 29.9677 46.6887 30.7259 45.9979L28.0319 43.0411ZM28.0664 43H27.7617V47H28.0664V43ZM27.7617 43H25.6523V47H27.7617V43ZM23.7986 44.2492L21.5252 49.8625L25.2326 51.3641L27.5061 45.7508L23.7986 44.2492ZM21.5266 49.8589C20.8171 51.601 20.0032 52.7393 19.1665 53.4333C18.365 54.0981 17.4616 54.4258 16.3711 54.4258V58.4258C18.3744 58.4258 20.1858 57.7847 21.7202 56.512C23.2194 55.2685 24.3626 53.5005 25.2312 51.3676L21.5266 49.8589ZM16.3711 54.4258C15.2305 54.4258 14.4103 54.0762 13.7553 53.4308L10.9479 56.2801C12.4179 57.7285 14.2773 58.4258 16.3711 58.4258V54.4258ZM13.7499 53.4256C13.1 52.79 12.7578 52.0059 12.7578 50.918H8.75781C8.75781 53.0019 9.47813 54.8428 10.9532 56.2854L13.7499 53.4256ZM12.7578 50.918C12.7578 50.0382 12.9764 49.1912 13.4436 48.3502L9.947 46.4076C9.16424 47.8166 8.75781 49.329 8.75781 50.918H12.7578ZM13.4385 48.3594C13.9169 47.5088 14.5945 46.754 15.5094 46.0978L13.1781 42.8475C11.8273 43.8163 10.7393 44.999 9.95216 46.3984L13.4385 48.3594ZM15.4987 46.1055C16.2682 45.5612 17.192 45.1085 18.2925 44.7642L17.0981 40.9467C15.6517 41.3993 14.3412 42.0247 13.1888 42.8398L15.4987 46.1055ZM18.2892 44.7653C19.3935 44.4218 20.4551 44.2578 21.4805 44.2578V40.2578C20.0214 40.2578 18.5596 40.4922 17.1014 40.9457L18.2892 44.7653ZM21.5372 44.257L23.1895 44.2101L23.0761 40.2117L21.4238 40.2586L21.5372 44.257ZM23.1783 44.2104L23.6939 44.1987L23.603 40.1997L23.0874 40.2115L23.1783 44.2104ZM25.507 42.938L27.757 37.2779L24.0399 35.8003L21.7899 41.4604L25.507 42.938ZM27.7599 37.2704L27.8888 36.9422L24.1658 35.4796L24.0369 35.8078L27.7599 37.2704ZM27.9025 36.9066C27.9497 36.7791 27.9779 36.744 27.9649 36.7624C27.9499 36.7835 27.8703 36.8888 27.6993 36.9865L25.7148 33.5135C24.8442 34.011 24.398 34.8527 24.1522 35.5153L27.9025 36.9066ZM27.7148 36.9776C27.6411 37.0206 27.5896 37.0384 27.5767 37.0426C27.563 37.0471 27.5731 37.0427 27.6143 37.0355C27.7013 37.0203 27.8607 37.0039 28.1133 37.0039V33.0039C27.3955 33.0039 26.4664 33.075 25.6993 33.5224L27.7148 36.9776ZM28.1133 37.0039H34.125V33.0039H28.1133V37.0039ZM34.125 37.0039C34.2854 37.0039 34.3632 37.0187 34.3801 37.0226C34.3965 37.0265 34.3146 37.0104 34.1942 36.9256C34.0613 36.8319 33.9306 36.6879 33.844 36.5048C33.7622 36.3318 33.7539 36.1968 33.7539 36.1523H37.7539C37.7539 35.2334 37.389 34.2838 36.4991 33.6564C35.7372 33.1193 34.842 33.0039 34.125 33.0039V37.0039ZM33.7539 36.1523C33.7539 36.1062 33.765 36.0302 33.8022 35.9493C33.8378 35.8718 33.8745 35.8398 33.8663 35.8472L36.5634 38.8012C37.3033 38.1256 37.7539 37.2125 37.7539 36.1523H33.7539ZM33.8841 35.8312C33.8834 35.8318 33.888 35.8276 33.898 35.8217C33.908 35.8156 33.9191 35.8103 33.9297 35.8065C33.9401 35.8027 33.9453 35.8019 33.943 35.8023C33.9404 35.8027 33.9276 35.8047 33.9023 35.8047V39.8047C34.8708 39.8047 35.7925 39.4885 36.5456 38.8172L33.8841 35.8312ZM33.9023 35.8047H33.5859V39.8047H33.9023V35.8047ZM33.5859 35.8047H28.582V39.8047H33.5859V35.8047ZM26.7302 37.0492L24.9373 41.4437L28.6409 42.9548L30.4338 38.5602L26.7302 37.0492ZM22.5117 43H21.8789V47H22.5117V43ZM21.8789 43C19.2721 43 16.9537 43.5956 15.123 44.9918L17.5488 48.1723C18.4838 47.4591 19.8608 47 21.8789 47V43ZM15.1231 44.9917C13.2478 46.4219 12.0156 48.2856 12.0156 50.5781H16.0156C16.0156 49.9019 16.3303 49.1015 17.5487 48.1723L15.1231 44.9917ZM12.0156 50.5781C12.0156 51.8154 12.4064 52.9749 13.2545 53.9188L16.2298 51.2453C16.1092 51.111 16.0156 50.9346 16.0156 50.5781H12.0156ZM13.2652 53.9306C14.1343 54.8824 15.2788 55.3906 16.5703 55.3906V51.3906C16.4087 51.3906 16.3344 51.3598 16.2192 51.2335L13.2652 53.9306ZM16.5703 55.3906C19.56 55.3906 21.4303 52.9692 22.584 50.1223L18.8769 48.6199C17.8587 51.1323 16.9556 51.3906 16.5703 51.3906V55.3906ZM22.5826 50.1258L24.3638 45.7548L20.6596 44.2452L18.8783 48.6163L22.5826 50.1258ZM35.0273 48.4453L33.1746 47.6922L32.0555 50.4453H35.0273V48.4453ZM37.2188 50.6016L36.0131 49.0058L36.0044 49.0124L35.9959 49.019L37.2188 50.6016ZM32.1211 48.2812L30.2683 47.5282L30.2659 47.534L32.1211 48.2812ZM36.8555 36.6328L35.0033 35.8782L35.0027 35.8798L36.8555 36.6328ZM36.9844 36.3164L35.1343 35.5566L35.1322 35.5618L36.9844 36.3164ZM39.5391 35.332L38.1499 36.7708L38.1621 36.7826L38.1744 36.7941L39.5391 35.332ZM39.7148 36.9141L41.567 37.6687L41.5711 37.6585L41.5752 37.6484L39.7148 36.9141ZM39.5859 37.2305L37.7338 36.4759L37.7332 36.4774L39.5859 37.2305ZM35.0273 50.4453H36.2578V46.4453H35.0273V50.4453ZM36.2578 50.4453C36.3241 50.4453 36.3733 50.4482 36.4074 50.4517C36.4417 50.4551 36.456 50.4585 36.454 50.4581C36.4539 50.458 36.3581 50.4363 36.2262 50.3439C36.0816 50.2426 35.9408 50.0883 35.847 49.8911C35.7579 49.7038 35.7461 49.5519 35.7461 49.4883H39.7461C39.7461 48.5996 39.3891 47.676 38.5218 47.0682C37.7843 46.5513 36.9262 46.4453 36.2578 46.4453V50.4453ZM35.7461 49.4883C35.7461 49.4778 35.7491 49.3897 35.8068 49.2679C35.8669 49.1409 35.9509 49.0528 36.0131 49.0058L38.4244 52.1973C39.3217 51.5194 39.7461 50.5326 39.7461 49.4883H35.7461ZM35.9959 49.019C36.0602 48.9693 36.0981 48.9635 36.0688 48.9716C36.0349 48.9809 35.941 49 35.7656 49V53C36.645 53 37.6233 52.8165 38.4416 52.1841L35.9959 49.019ZM35.7656 49H33.6562V53H35.7656V49ZM33.6562 49C33.5217 49 33.4611 48.9838 33.4531 48.9814C33.45 48.9804 33.4599 48.9831 33.4787 48.9929C33.4978 49.0028 33.522 49.0178 33.5477 49.0387L31.0226 52.141C31.819 52.7892 32.7726 53 33.6562 53V49ZM33.5477 49.0387C33.6002 49.0814 33.673 49.1617 33.726 49.2774C33.7772 49.3895 33.7812 49.4722 33.7812 49.4883H29.7812C29.7812 50.5066 30.1868 51.4606 31.0226 52.141L33.5477 49.0387ZM33.7812 49.4883C33.7812 49.5348 33.7786 49.5695 33.7766 49.5896C33.7745 49.6102 33.7725 49.6217 33.7723 49.6228C33.7722 49.6234 33.7765 49.5997 33.7914 49.5469C33.8218 49.4387 33.8791 49.2696 33.9763 49.0285L30.2659 47.534C30.0459 48.0804 29.7812 48.8131 29.7812 49.4883H33.7812ZM33.9739 49.0343L38.7083 37.3859L35.0027 35.8798L30.2683 47.5282L33.9739 49.0343ZM38.7077 37.3874L38.8366 37.071L35.1322 35.5618L35.0033 35.8782L38.7077 37.3874ZM38.8344 37.0762C38.9199 36.8682 38.967 36.8693 38.8967 36.9229C38.8607 36.9503 38.8148 36.9748 38.7667 36.9903C38.7205 37.0051 38.6962 37.0039 38.707 37.0039V33.0039C37.9177 33.0039 37.1408 33.232 36.4725 33.7412C35.828 34.2322 35.4082 34.8897 35.1343 35.5566L38.8344 37.0762ZM38.707 37.0039C38.6452 37.0039 38.5448 36.9928 38.4274 36.9465C38.3085 36.8996 38.2145 36.8332 38.1499 36.7708L40.9283 33.8932C40.3119 33.2981 39.5294 33.0039 38.707 33.0039V37.0039ZM38.1744 36.7941C38.1196 36.743 38.04 36.6495 37.9774 36.5097C37.9137 36.3676 37.8906 36.2286 37.8906 36.1172H41.8906C41.8906 35.2264 41.5195 34.4447 40.9037 33.8699L38.1744 36.7941ZM37.8906 36.1172C37.8906 36.0686 37.8966 36.048 37.8936 36.0614C37.8907 36.0748 37.8807 36.1134 37.8545 36.1797L41.5752 37.6484C41.7534 37.1969 41.8906 36.676 41.8906 36.1172H37.8906ZM37.8627 36.1595L37.7338 36.4759L41.4381 37.9851L41.567 37.6687L37.8627 36.1595ZM37.7332 36.4774L33.1746 47.6922L36.8801 49.1984L41.4387 37.9836L37.7332 36.4774ZM46.4766 42.9492L45.07 44.3711L45.0776 44.3786L46.4766 42.9492ZM47.0039 48.1875L48.8163 49.0333L48.8193 49.0267L47.0039 48.1875ZM45.5156 50.1562L46.7539 51.7268L46.7632 51.7195L46.7723 51.7121L45.5156 50.1562ZM44.25 50.8242L44.7762 52.7537L44.7879 52.7506L44.7994 52.7473L44.25 50.8242ZM39.8555 50.543L38.7235 52.1918L38.7261 52.1936L39.8555 50.543ZM44.0039 47.918L42.5048 46.5941L42.4968 46.6032L44.0039 47.918ZM43.6875 43.8711C44.3561 43.8711 44.7601 44.0645 45.07 44.3711L47.8831 41.5274C46.7399 40.3965 45.2845 39.8711 43.6875 39.8711V43.8711ZM45.0776 44.3786C45.395 44.6891 45.5781 45.0725 45.5781 45.6914H49.5781C49.5781 44.0916 49.0269 42.6468 47.8755 41.5199L45.0776 44.3786ZM45.5781 45.6914C45.5781 46.2119 45.461 46.7589 45.1885 47.3483L48.8193 49.0267C49.3125 47.9599 49.5781 46.8428 49.5781 45.6914H45.5781ZM45.1915 47.3417C44.9175 47.9291 44.5972 48.3272 44.259 48.6004L46.7723 51.7121C47.6528 51.0009 48.3247 50.0866 48.8163 49.0333L45.1915 47.3417ZM44.2773 48.5857C44.0477 48.7667 43.8557 48.8568 43.7006 48.9012L44.7994 52.7473C45.5193 52.5416 46.171 52.1864 46.7539 51.7268L44.2773 48.5857ZM43.7238 48.8947C43.5477 48.9427 43.1492 49 42.4336 49V53C43.2805 53 44.0929 52.9401 44.7762 52.7537L43.7238 48.8947ZM42.4336 49C41.8659 49 41.4583 48.9652 41.1831 48.9164C40.8807 48.8628 40.8721 48.8152 40.9848 48.8924L38.7261 52.1936C39.2841 52.5754 39.9279 52.7563 40.4849 52.855C41.069 52.9586 41.7279 53 42.4336 53V49ZM40.9875 48.8942C40.5489 48.593 40.2852 48.1856 40.2852 47.3555H36.2852C36.2852 49.3379 37.0683 51.0554 38.7235 52.1918L40.9875 48.8942ZM40.2852 47.3555C40.2852 46.4122 40.6024 45.627 41.315 44.9039L38.4662 42.0961C37.0383 43.5449 36.2852 45.3299 36.2852 47.3555H40.2852ZM41.315 44.9039C42.0278 44.1807 42.7876 43.8711 43.6875 43.8711V39.8711C41.6655 39.8711 39.894 40.6474 38.4662 42.0961L41.315 44.9039ZM43.4062 42.3672C42.0746 42.3672 41.0291 43.0551 40.2895 43.9402L43.3589 46.5051C43.4724 46.3694 43.5341 46.3373 43.5285 46.3403C43.5246 46.3424 43.5085 46.3504 43.4817 46.3573C43.4546 46.3642 43.4281 46.3672 43.4062 46.3672V42.3672ZM40.2895 43.9402C39.5385 44.8389 39.1094 45.9138 39.1094 47.1094H43.1094C43.1094 46.93 43.1568 46.747 43.3589 46.5051L40.2895 43.9402ZM39.1094 47.1094C39.1094 47.9335 39.3507 48.9003 40.1587 49.6212C40.9232 50.3034 41.8693 50.4688 42.6328 50.4688V46.4688C42.3807 46.4688 42.5651 46.4076 42.8218 46.6366C42.9531 46.7538 43.0357 46.8906 43.0781 47.0042C43.1162 47.1061 43.1094 47.1542 43.1094 47.1094H39.1094ZM42.6328 50.4688C43.6668 50.4688 44.729 50.1292 45.511 49.2327L42.4968 46.6032C42.5183 46.5786 42.5469 46.5517 42.5818 46.527C42.6166 46.5024 42.6494 46.4856 42.6754 46.4752C42.7272 46.4544 42.7255 46.4688 42.6328 46.4688V50.4688ZM45.503 49.2419C46.3437 48.2899 46.8008 47.1363 46.8008 45.8555H42.8008C42.8008 46.1216 42.7266 46.3429 42.5048 46.5941L45.503 49.2419ZM46.8008 45.8555C46.8008 45.0005 46.5403 44.117 45.8692 43.4053L42.9589 46.1494C42.8958 46.0825 42.8485 46.0025 42.8215 45.9272C42.7965 45.8575 42.8008 45.8254 42.8008 45.8555H46.8008ZM45.8692 43.4053C45.1929 42.688 44.309 42.3672 43.4062 42.3672V46.3672C43.3911 46.3672 43.3178 46.3641 43.2148 46.3222C43.1076 46.2786 43.0193 46.2135 42.9589 46.1494L45.8692 43.4053ZM56.7539 46.6406L54.7662 46.4189L53.971 53.548L58.3401 47.8588L56.7539 46.6406ZM59.5078 43.0547L57.9397 41.8133L57.9306 41.8248L57.9216 41.8365L59.5078 43.0547ZM59.7305 42.7734L61.2986 44.0148L61.3084 44.0024L61.318 43.9899L59.7305 42.7734ZM62.1211 42.2227L60.6831 43.6127L60.6949 43.6249L60.7069 43.6369L62.1211 42.2227ZM61.7461 44.543L63.312 45.7871L63.3138 45.7849L61.7461 44.543ZM57.3516 50.0742L58.9166 51.3195L58.9175 51.3183L57.3516 50.0742ZM53.7773 48.75L51.8101 48.3893L51.8057 48.4137L51.8018 48.4381L53.7773 48.75ZM54.1641 46.6406L56.1313 47.0013L52.5227 45.4978L54.1641 46.6406ZM51.7734 50.0742L50.1321 48.9314L50.1259 48.9404L51.7734 50.0742ZM48.3281 48.75L50.3127 48.9981L50.3198 48.9409L50.3237 48.8834L48.3281 48.75ZM48.6562 43.8398L46.6617 43.6921L46.6612 43.6993L46.6607 43.7065L48.6562 43.8398ZM49.1484 42.3867L47.6177 41.0995L47.6149 41.1028L49.1484 42.3867ZM51.3984 43.5234L53.3885 43.7224L53.3894 43.7131L51.3984 43.5234ZM51.0703 46.8047L49.0802 46.6057L48.3175 54.2333L52.7095 47.9506L51.0703 46.8047ZM53.6836 43.0664L55.3228 44.2123L55.3251 44.209L53.6836 43.0664ZM57.082 43.6992L59.0697 43.921L59.072 43.9006L59.0738 43.8803L57.082 43.6992ZM58.3401 47.8588L61.094 44.2729L57.9216 41.8365L55.1677 45.4225L58.3401 47.8588ZM61.0759 44.2961L61.2986 44.0148L58.1624 41.532L57.9397 41.8133L61.0759 44.2961ZM61.318 43.9899C61.375 43.9155 61.4193 43.869 61.4481 43.8421C61.4766 43.8156 61.4867 43.8113 61.4763 43.8175C61.4647 43.8243 61.436 43.8393 61.3914 43.8519C61.3462 43.8647 61.2986 43.8711 61.2539 43.8711V39.8711C59.8679 39.8711 58.8339 40.6552 58.1429 41.557L61.318 43.9899ZM61.2539 43.8711C61.2047 43.8711 61.1056 43.8622 60.983 43.8125C60.8571 43.7615 60.7549 43.687 60.6831 43.6127L63.5591 40.8326C62.924 40.1757 62.1004 39.8711 61.2539 39.8711V43.8711ZM60.7069 43.6369C60.6317 43.5617 60.561 43.4595 60.5139 43.3391C60.4681 43.2224 60.4609 43.131 60.4609 43.0898H64.4609C64.4609 42.2646 64.1752 41.4484 63.5353 40.8084L60.7069 43.6369ZM60.4609 43.0898C60.4609 42.9668 60.4806 42.8828 60.4902 42.8483C60.4999 42.8138 60.5043 42.8117 60.4876 42.8457C60.4513 42.9196 60.3622 43.0691 60.1784 43.301L63.3138 45.7849C63.819 45.1471 64.4609 44.1916 64.4609 43.0898H60.4609ZM60.1802 43.2988L55.7856 48.8301L58.9175 51.3183L63.312 45.7871L60.1802 43.2988ZM55.7865 48.8289C55.599 49.0647 55.4745 49.1561 55.4309 49.1826C55.4125 49.1938 55.4174 49.188 55.4448 49.1798C55.4738 49.1711 55.5136 49.1641 55.5586 49.1641V53.1641C57.0426 53.1641 58.1551 52.2765 58.9166 51.3195L55.7865 48.8289ZM55.5586 49.1641C55.5578 49.1641 55.5702 49.1641 55.5925 49.1686C55.6152 49.1732 55.6418 49.1813 55.6693 49.1936C55.7294 49.2203 55.7529 49.2482 55.7426 49.237L52.7965 51.9427C53.5167 52.7269 54.476 53.1641 55.5586 53.1641V49.1641ZM55.7426 49.237C55.7365 49.2304 55.7365 49.2293 55.7392 49.2336C55.742 49.2382 55.7448 49.2438 55.7467 49.2489C55.7485 49.2539 55.7477 49.2534 55.7463 49.2449C55.7448 49.2361 55.7422 49.2165 55.7422 49.1836H51.7422C51.7422 50.2025 52.0819 51.1646 52.7965 51.9427L55.7426 49.237ZM55.7422 49.1836C55.7422 49.1543 55.7446 49.1142 55.7529 49.0619L51.8018 48.4381C51.7632 48.6827 51.7422 48.9317 51.7422 49.1836H55.7422ZM55.7446 49.1107L56.1313 47.0013L52.1968 46.28L51.8101 48.3893L55.7446 49.1107ZM52.5227 45.4978L50.1321 48.9314L53.4148 51.217L55.8054 47.7834L52.5227 45.4978ZM50.1259 48.9404C50.0539 49.0451 49.9944 49.1153 49.951 49.1602C49.9078 49.2049 49.8852 49.2194 49.8867 49.2185C49.8894 49.2167 49.9143 49.2011 49.9603 49.1868C50.0076 49.172 50.0595 49.1641 50.1094 49.1641V53.1641C51.6389 53.1641 52.7261 52.2178 53.421 51.208L50.1259 48.9404ZM50.1094 49.1641C50.1083 49.1641 50.1236 49.164 50.1512 49.1699C50.1795 49.1759 50.2135 49.1866 50.2493 49.2036C50.3274 49.2405 50.3632 49.2821 50.3616 49.2802L47.279 51.8292C47.9918 52.6911 48.9848 53.1641 50.1094 53.1641V49.1641ZM50.3616 49.2802C50.3605 49.2788 50.3596 49.2776 50.3582 49.275C50.3567 49.2722 50.3523 49.2636 50.3467 49.2463C50.3356 49.2117 50.3164 49.1307 50.3164 48.9844H46.3164C46.3164 49.9864 46.5865 50.9918 47.279 51.8292L50.3616 49.2802ZM50.3164 48.9844C50.3164 48.9747 50.3165 48.9675 50.3166 48.9624C50.3167 48.9574 50.3169 48.9551 50.3168 48.9553C50.3168 48.9556 50.3166 48.9592 50.3161 48.9659C50.3155 48.9725 50.3145 48.9834 50.3127 48.9981L46.3436 48.5019C46.3218 48.6759 46.3164 48.8435 46.3164 48.9844H50.3164ZM50.3237 48.8834L50.6518 43.9732L46.6607 43.7065L46.3326 48.6166L50.3237 48.8834ZM50.6508 43.9876C50.6646 43.8008 50.692 43.6931 50.7087 43.6436C50.7244 43.5974 50.7245 43.6197 50.682 43.6706L47.6149 41.1028C46.9687 41.8748 46.7262 42.8212 46.6617 43.6921L50.6508 43.9876ZM50.6792 43.6739C50.6373 43.7237 50.5632 43.7868 50.4637 43.8306C50.3691 43.8722 50.3093 43.8711 50.3203 43.8711V39.8711C49.3018 39.8711 48.3262 40.257 47.6177 41.0995L50.6792 43.6739ZM50.3203 43.8711C50.3297 43.8711 49.9833 43.8652 49.6692 43.5211C49.3867 43.2115 49.4219 42.9411 49.4219 43.0781H53.4219C53.4219 42.4105 53.2734 41.5365 52.6238 40.8247C51.9425 40.0781 51.0453 39.8711 50.3203 39.8711V43.8711ZM49.4219 43.0781C49.4219 43.1347 49.4184 43.2185 49.4074 43.3338L53.3894 43.7131C53.4097 43.5003 53.4219 43.2872 53.4219 43.0781H49.4219ZM49.4084 43.3244L49.0802 46.6057L53.0604 47.0037L53.3885 43.7224L49.4084 43.3244ZM52.7095 47.9506L55.3228 44.2123L52.0444 41.9205L49.4311 45.6588L52.7095 47.9506ZM55.3251 44.209C55.4883 43.9745 55.6007 43.8921 55.6347 43.8711C55.6497 43.8618 55.6503 43.8638 55.6384 43.8672C55.6262 43.8707 55.617 43.8711 55.6172 43.8711V39.8711C54.026 39.8711 52.8379 40.7806 52.0421 41.9238L55.3251 44.209ZM55.6172 43.8711C55.6555 43.8711 55.6245 43.8766 55.5513 43.8503C55.4713 43.8216 55.3806 43.769 55.3024 43.693L58.0883 40.8227C57.3694 40.1249 56.467 39.8711 55.6172 39.8711V43.8711ZM55.3024 43.693C55.2249 43.6178 55.1628 43.5225 55.1258 43.4257C55.0914 43.3354 55.0938 43.284 55.0938 43.3008H59.0938C59.0938 42.4288 58.8121 41.5252 58.0883 40.8227L55.3024 43.693ZM55.0938 43.3008C55.0938 43.3773 55.0929 43.435 55.0917 43.4764C55.0904 43.5212 55.089 43.5313 55.0902 43.5181L59.0738 43.8803C59.0903 43.6992 59.0938 43.4909 59.0938 43.3008H55.0938ZM55.0944 43.4775L54.7662 46.4189L58.7416 46.8624L59.0697 43.921L55.0944 43.4775Z" fill="black" mask="url(#path-4-outside-2_96_408)"/>
</svg>
